%TF.GenerationSoftware,KiCad,Pcbnew,(7.0.0)*%
%TF.CreationDate,2023-06-14T15:09:39+02:00*%
%TF.ProjectId,PEE50_voltametrie,50454535-305f-4766-9f6c-74616d657472,rev?*%
%TF.SameCoordinates,Original*%
%TF.FileFunction,Legend,Top*%
%TF.FilePolarity,Positive*%
%FSLAX46Y46*%
G04 Gerber Fmt 4.6, Leading zero omitted, Abs format (unit mm)*
G04 Created by KiCad (PCBNEW (7.0.0)) date 2023-06-14 15:09:39*
%MOMM*%
%LPD*%
G01*
G04 APERTURE LIST*
%ADD10C,0.300000*%
%ADD11C,0.200000*%
%ADD12C,0.150000*%
%ADD13C,0.254000*%
%ADD14C,0.100000*%
%ADD15C,0.120000*%
%ADD16C,0.127000*%
G04 APERTURE END LIST*
D10*
X198414285Y-94373571D02*
X197914285Y-93659285D01*
X197557142Y-94373571D02*
X197557142Y-92873571D01*
X197557142Y-92873571D02*
X198128571Y-92873571D01*
X198128571Y-92873571D02*
X198271428Y-92945000D01*
X198271428Y-92945000D02*
X198342857Y-93016428D01*
X198342857Y-93016428D02*
X198414285Y-93159285D01*
X198414285Y-93159285D02*
X198414285Y-93373571D01*
X198414285Y-93373571D02*
X198342857Y-93516428D01*
X198342857Y-93516428D02*
X198271428Y-93587857D01*
X198271428Y-93587857D02*
X198128571Y-93659285D01*
X198128571Y-93659285D02*
X197557142Y-93659285D01*
X199057142Y-93587857D02*
X199557142Y-93587857D01*
X199771428Y-94373571D02*
X199057142Y-94373571D01*
X199057142Y-94373571D02*
X199057142Y-92873571D01*
X199057142Y-92873571D02*
X199771428Y-92873571D01*
X198314285Y-89812714D02*
X198242857Y-89884142D01*
X198242857Y-89884142D02*
X198028571Y-89955571D01*
X198028571Y-89955571D02*
X197885714Y-89955571D01*
X197885714Y-89955571D02*
X197671428Y-89884142D01*
X197671428Y-89884142D02*
X197528571Y-89741285D01*
X197528571Y-89741285D02*
X197457142Y-89598428D01*
X197457142Y-89598428D02*
X197385714Y-89312714D01*
X197385714Y-89312714D02*
X197385714Y-89098428D01*
X197385714Y-89098428D02*
X197457142Y-88812714D01*
X197457142Y-88812714D02*
X197528571Y-88669857D01*
X197528571Y-88669857D02*
X197671428Y-88527000D01*
X197671428Y-88527000D02*
X197885714Y-88455571D01*
X197885714Y-88455571D02*
X198028571Y-88455571D01*
X198028571Y-88455571D02*
X198242857Y-88527000D01*
X198242857Y-88527000D02*
X198314285Y-88598428D01*
X198957142Y-89169857D02*
X199457142Y-89169857D01*
X199671428Y-89955571D02*
X198957142Y-89955571D01*
X198957142Y-89955571D02*
X198957142Y-88455571D01*
X198957142Y-88455571D02*
X199671428Y-88455571D01*
X197214285Y-90673571D02*
X197571428Y-92173571D01*
X197571428Y-92173571D02*
X197857142Y-91102142D01*
X197857142Y-91102142D02*
X198142857Y-92173571D01*
X198142857Y-92173571D02*
X198500000Y-90673571D01*
X199071428Y-91387857D02*
X199571428Y-91387857D01*
X199785714Y-92173571D02*
X199071428Y-92173571D01*
X199071428Y-92173571D02*
X199071428Y-90673571D01*
X199071428Y-90673571D02*
X199785714Y-90673571D01*
D11*
%TO.C,IC6*%
X194367380Y-99676189D02*
X193367380Y-99676189D01*
X194272142Y-98628571D02*
X194319761Y-98676190D01*
X194319761Y-98676190D02*
X194367380Y-98819047D01*
X194367380Y-98819047D02*
X194367380Y-98914285D01*
X194367380Y-98914285D02*
X194319761Y-99057142D01*
X194319761Y-99057142D02*
X194224523Y-99152380D01*
X194224523Y-99152380D02*
X194129285Y-99199999D01*
X194129285Y-99199999D02*
X193938809Y-99247618D01*
X193938809Y-99247618D02*
X193795952Y-99247618D01*
X193795952Y-99247618D02*
X193605476Y-99199999D01*
X193605476Y-99199999D02*
X193510238Y-99152380D01*
X193510238Y-99152380D02*
X193415000Y-99057142D01*
X193415000Y-99057142D02*
X193367380Y-98914285D01*
X193367380Y-98914285D02*
X193367380Y-98819047D01*
X193367380Y-98819047D02*
X193415000Y-98676190D01*
X193415000Y-98676190D02*
X193462619Y-98628571D01*
X193367380Y-97771428D02*
X193367380Y-97961904D01*
X193367380Y-97961904D02*
X193415000Y-98057142D01*
X193415000Y-98057142D02*
X193462619Y-98104761D01*
X193462619Y-98104761D02*
X193605476Y-98199999D01*
X193605476Y-98199999D02*
X193795952Y-98247618D01*
X193795952Y-98247618D02*
X194176904Y-98247618D01*
X194176904Y-98247618D02*
X194272142Y-98199999D01*
X194272142Y-98199999D02*
X194319761Y-98152380D01*
X194319761Y-98152380D02*
X194367380Y-98057142D01*
X194367380Y-98057142D02*
X194367380Y-97866666D01*
X194367380Y-97866666D02*
X194319761Y-97771428D01*
X194319761Y-97771428D02*
X194272142Y-97723809D01*
X194272142Y-97723809D02*
X194176904Y-97676190D01*
X194176904Y-97676190D02*
X193938809Y-97676190D01*
X193938809Y-97676190D02*
X193843571Y-97723809D01*
X193843571Y-97723809D02*
X193795952Y-97771428D01*
X193795952Y-97771428D02*
X193748333Y-97866666D01*
X193748333Y-97866666D02*
X193748333Y-98057142D01*
X193748333Y-98057142D02*
X193795952Y-98152380D01*
X193795952Y-98152380D02*
X193843571Y-98199999D01*
X193843571Y-98199999D02*
X193938809Y-98247618D01*
D12*
%TO.C,C7*%
X194633333Y-103247142D02*
X194585714Y-103294761D01*
X194585714Y-103294761D02*
X194442857Y-103342380D01*
X194442857Y-103342380D02*
X194347619Y-103342380D01*
X194347619Y-103342380D02*
X194204762Y-103294761D01*
X194204762Y-103294761D02*
X194109524Y-103199523D01*
X194109524Y-103199523D02*
X194061905Y-103104285D01*
X194061905Y-103104285D02*
X194014286Y-102913809D01*
X194014286Y-102913809D02*
X194014286Y-102770952D01*
X194014286Y-102770952D02*
X194061905Y-102580476D01*
X194061905Y-102580476D02*
X194109524Y-102485238D01*
X194109524Y-102485238D02*
X194204762Y-102390000D01*
X194204762Y-102390000D02*
X194347619Y-102342380D01*
X194347619Y-102342380D02*
X194442857Y-102342380D01*
X194442857Y-102342380D02*
X194585714Y-102390000D01*
X194585714Y-102390000D02*
X194633333Y-102437619D01*
X194966667Y-102342380D02*
X195633333Y-102342380D01*
X195633333Y-102342380D02*
X195204762Y-103342380D01*
%TO.C,TP5*%
X198738095Y-80719380D02*
X199309523Y-80719380D01*
X199023809Y-81719380D02*
X199023809Y-80719380D01*
X199642857Y-81719380D02*
X199642857Y-80719380D01*
X199642857Y-80719380D02*
X200023809Y-80719380D01*
X200023809Y-80719380D02*
X200119047Y-80767000D01*
X200119047Y-80767000D02*
X200166666Y-80814619D01*
X200166666Y-80814619D02*
X200214285Y-80909857D01*
X200214285Y-80909857D02*
X200214285Y-81052714D01*
X200214285Y-81052714D02*
X200166666Y-81147952D01*
X200166666Y-81147952D02*
X200119047Y-81195571D01*
X200119047Y-81195571D02*
X200023809Y-81243190D01*
X200023809Y-81243190D02*
X199642857Y-81243190D01*
X201119047Y-80719380D02*
X200642857Y-80719380D01*
X200642857Y-80719380D02*
X200595238Y-81195571D01*
X200595238Y-81195571D02*
X200642857Y-81147952D01*
X200642857Y-81147952D02*
X200738095Y-81100333D01*
X200738095Y-81100333D02*
X200976190Y-81100333D01*
X200976190Y-81100333D02*
X201071428Y-81147952D01*
X201071428Y-81147952D02*
X201119047Y-81195571D01*
X201119047Y-81195571D02*
X201166666Y-81290809D01*
X201166666Y-81290809D02*
X201166666Y-81528904D01*
X201166666Y-81528904D02*
X201119047Y-81624142D01*
X201119047Y-81624142D02*
X201071428Y-81671761D01*
X201071428Y-81671761D02*
X200976190Y-81719380D01*
X200976190Y-81719380D02*
X200738095Y-81719380D01*
X200738095Y-81719380D02*
X200642857Y-81671761D01*
X200642857Y-81671761D02*
X200595238Y-81624142D01*
%TO.C,R10*%
X188357142Y-91867380D02*
X188023809Y-91391190D01*
X187785714Y-91867380D02*
X187785714Y-90867380D01*
X187785714Y-90867380D02*
X188166666Y-90867380D01*
X188166666Y-90867380D02*
X188261904Y-90915000D01*
X188261904Y-90915000D02*
X188309523Y-90962619D01*
X188309523Y-90962619D02*
X188357142Y-91057857D01*
X188357142Y-91057857D02*
X188357142Y-91200714D01*
X188357142Y-91200714D02*
X188309523Y-91295952D01*
X188309523Y-91295952D02*
X188261904Y-91343571D01*
X188261904Y-91343571D02*
X188166666Y-91391190D01*
X188166666Y-91391190D02*
X187785714Y-91391190D01*
X189309523Y-91867380D02*
X188738095Y-91867380D01*
X189023809Y-91867380D02*
X189023809Y-90867380D01*
X189023809Y-90867380D02*
X188928571Y-91010238D01*
X188928571Y-91010238D02*
X188833333Y-91105476D01*
X188833333Y-91105476D02*
X188738095Y-91153095D01*
X189928571Y-90867380D02*
X190023809Y-90867380D01*
X190023809Y-90867380D02*
X190119047Y-90915000D01*
X190119047Y-90915000D02*
X190166666Y-90962619D01*
X190166666Y-90962619D02*
X190214285Y-91057857D01*
X190214285Y-91057857D02*
X190261904Y-91248333D01*
X190261904Y-91248333D02*
X190261904Y-91486428D01*
X190261904Y-91486428D02*
X190214285Y-91676904D01*
X190214285Y-91676904D02*
X190166666Y-91772142D01*
X190166666Y-91772142D02*
X190119047Y-91819761D01*
X190119047Y-91819761D02*
X190023809Y-91867380D01*
X190023809Y-91867380D02*
X189928571Y-91867380D01*
X189928571Y-91867380D02*
X189833333Y-91819761D01*
X189833333Y-91819761D02*
X189785714Y-91772142D01*
X189785714Y-91772142D02*
X189738095Y-91676904D01*
X189738095Y-91676904D02*
X189690476Y-91486428D01*
X189690476Y-91486428D02*
X189690476Y-91248333D01*
X189690476Y-91248333D02*
X189738095Y-91057857D01*
X189738095Y-91057857D02*
X189785714Y-90962619D01*
X189785714Y-90962619D02*
X189833333Y-90915000D01*
X189833333Y-90915000D02*
X189928571Y-90867380D01*
%TO.C,R12*%
X155157142Y-109367380D02*
X154823809Y-108891190D01*
X154585714Y-109367380D02*
X154585714Y-108367380D01*
X154585714Y-108367380D02*
X154966666Y-108367380D01*
X154966666Y-108367380D02*
X155061904Y-108415000D01*
X155061904Y-108415000D02*
X155109523Y-108462619D01*
X155109523Y-108462619D02*
X155157142Y-108557857D01*
X155157142Y-108557857D02*
X155157142Y-108700714D01*
X155157142Y-108700714D02*
X155109523Y-108795952D01*
X155109523Y-108795952D02*
X155061904Y-108843571D01*
X155061904Y-108843571D02*
X154966666Y-108891190D01*
X154966666Y-108891190D02*
X154585714Y-108891190D01*
X156109523Y-109367380D02*
X155538095Y-109367380D01*
X155823809Y-109367380D02*
X155823809Y-108367380D01*
X155823809Y-108367380D02*
X155728571Y-108510238D01*
X155728571Y-108510238D02*
X155633333Y-108605476D01*
X155633333Y-108605476D02*
X155538095Y-108653095D01*
X156490476Y-108462619D02*
X156538095Y-108415000D01*
X156538095Y-108415000D02*
X156633333Y-108367380D01*
X156633333Y-108367380D02*
X156871428Y-108367380D01*
X156871428Y-108367380D02*
X156966666Y-108415000D01*
X156966666Y-108415000D02*
X157014285Y-108462619D01*
X157014285Y-108462619D02*
X157061904Y-108557857D01*
X157061904Y-108557857D02*
X157061904Y-108653095D01*
X157061904Y-108653095D02*
X157014285Y-108795952D01*
X157014285Y-108795952D02*
X156442857Y-109367380D01*
X156442857Y-109367380D02*
X157061904Y-109367380D01*
D13*
%TO.C,IC7*%
X201760237Y-98216573D02*
X201760237Y-96946573D01*
X203090714Y-98095621D02*
X203030238Y-98156097D01*
X203030238Y-98156097D02*
X202848809Y-98216573D01*
X202848809Y-98216573D02*
X202727857Y-98216573D01*
X202727857Y-98216573D02*
X202546428Y-98156097D01*
X202546428Y-98156097D02*
X202425476Y-98035145D01*
X202425476Y-98035145D02*
X202364999Y-97914192D01*
X202364999Y-97914192D02*
X202304523Y-97672288D01*
X202304523Y-97672288D02*
X202304523Y-97490859D01*
X202304523Y-97490859D02*
X202364999Y-97248954D01*
X202364999Y-97248954D02*
X202425476Y-97128002D01*
X202425476Y-97128002D02*
X202546428Y-97007050D01*
X202546428Y-97007050D02*
X202727857Y-96946573D01*
X202727857Y-96946573D02*
X202848809Y-96946573D01*
X202848809Y-96946573D02*
X203030238Y-97007050D01*
X203030238Y-97007050D02*
X203090714Y-97067526D01*
X203514047Y-96946573D02*
X204360714Y-96946573D01*
X204360714Y-96946573D02*
X203816428Y-98216573D01*
D12*
%TO.C,J4*%
X200966666Y-86567380D02*
X200966666Y-87281666D01*
X200966666Y-87281666D02*
X200919047Y-87424523D01*
X200919047Y-87424523D02*
X200823809Y-87519761D01*
X200823809Y-87519761D02*
X200680952Y-87567380D01*
X200680952Y-87567380D02*
X200585714Y-87567380D01*
X201871428Y-86900714D02*
X201871428Y-87567380D01*
X201633333Y-86519761D02*
X201395238Y-87234047D01*
X201395238Y-87234047D02*
X202014285Y-87234047D01*
%TO.C,R14*%
X154057142Y-103767380D02*
X153723809Y-103291190D01*
X153485714Y-103767380D02*
X153485714Y-102767380D01*
X153485714Y-102767380D02*
X153866666Y-102767380D01*
X153866666Y-102767380D02*
X153961904Y-102815000D01*
X153961904Y-102815000D02*
X154009523Y-102862619D01*
X154009523Y-102862619D02*
X154057142Y-102957857D01*
X154057142Y-102957857D02*
X154057142Y-103100714D01*
X154057142Y-103100714D02*
X154009523Y-103195952D01*
X154009523Y-103195952D02*
X153961904Y-103243571D01*
X153961904Y-103243571D02*
X153866666Y-103291190D01*
X153866666Y-103291190D02*
X153485714Y-103291190D01*
X155009523Y-103767380D02*
X154438095Y-103767380D01*
X154723809Y-103767380D02*
X154723809Y-102767380D01*
X154723809Y-102767380D02*
X154628571Y-102910238D01*
X154628571Y-102910238D02*
X154533333Y-103005476D01*
X154533333Y-103005476D02*
X154438095Y-103053095D01*
X155866666Y-103100714D02*
X155866666Y-103767380D01*
X155628571Y-102719761D02*
X155390476Y-103434047D01*
X155390476Y-103434047D02*
X156009523Y-103434047D01*
%TO.C,C8*%
X197533333Y-114872142D02*
X197485714Y-114919761D01*
X197485714Y-114919761D02*
X197342857Y-114967380D01*
X197342857Y-114967380D02*
X197247619Y-114967380D01*
X197247619Y-114967380D02*
X197104762Y-114919761D01*
X197104762Y-114919761D02*
X197009524Y-114824523D01*
X197009524Y-114824523D02*
X196961905Y-114729285D01*
X196961905Y-114729285D02*
X196914286Y-114538809D01*
X196914286Y-114538809D02*
X196914286Y-114395952D01*
X196914286Y-114395952D02*
X196961905Y-114205476D01*
X196961905Y-114205476D02*
X197009524Y-114110238D01*
X197009524Y-114110238D02*
X197104762Y-114015000D01*
X197104762Y-114015000D02*
X197247619Y-113967380D01*
X197247619Y-113967380D02*
X197342857Y-113967380D01*
X197342857Y-113967380D02*
X197485714Y-114015000D01*
X197485714Y-114015000D02*
X197533333Y-114062619D01*
X198104762Y-114395952D02*
X198009524Y-114348333D01*
X198009524Y-114348333D02*
X197961905Y-114300714D01*
X197961905Y-114300714D02*
X197914286Y-114205476D01*
X197914286Y-114205476D02*
X197914286Y-114157857D01*
X197914286Y-114157857D02*
X197961905Y-114062619D01*
X197961905Y-114062619D02*
X198009524Y-114015000D01*
X198009524Y-114015000D02*
X198104762Y-113967380D01*
X198104762Y-113967380D02*
X198295238Y-113967380D01*
X198295238Y-113967380D02*
X198390476Y-114015000D01*
X198390476Y-114015000D02*
X198438095Y-114062619D01*
X198438095Y-114062619D02*
X198485714Y-114157857D01*
X198485714Y-114157857D02*
X198485714Y-114205476D01*
X198485714Y-114205476D02*
X198438095Y-114300714D01*
X198438095Y-114300714D02*
X198390476Y-114348333D01*
X198390476Y-114348333D02*
X198295238Y-114395952D01*
X198295238Y-114395952D02*
X198104762Y-114395952D01*
X198104762Y-114395952D02*
X198009524Y-114443571D01*
X198009524Y-114443571D02*
X197961905Y-114491190D01*
X197961905Y-114491190D02*
X197914286Y-114586428D01*
X197914286Y-114586428D02*
X197914286Y-114776904D01*
X197914286Y-114776904D02*
X197961905Y-114872142D01*
X197961905Y-114872142D02*
X198009524Y-114919761D01*
X198009524Y-114919761D02*
X198104762Y-114967380D01*
X198104762Y-114967380D02*
X198295238Y-114967380D01*
X198295238Y-114967380D02*
X198390476Y-114919761D01*
X198390476Y-114919761D02*
X198438095Y-114872142D01*
X198438095Y-114872142D02*
X198485714Y-114776904D01*
X198485714Y-114776904D02*
X198485714Y-114586428D01*
X198485714Y-114586428D02*
X198438095Y-114491190D01*
X198438095Y-114491190D02*
X198390476Y-114443571D01*
X198390476Y-114443571D02*
X198295238Y-114395952D01*
%TO.C,R16*%
X156357142Y-121167380D02*
X156023809Y-120691190D01*
X155785714Y-121167380D02*
X155785714Y-120167380D01*
X155785714Y-120167380D02*
X156166666Y-120167380D01*
X156166666Y-120167380D02*
X156261904Y-120215000D01*
X156261904Y-120215000D02*
X156309523Y-120262619D01*
X156309523Y-120262619D02*
X156357142Y-120357857D01*
X156357142Y-120357857D02*
X156357142Y-120500714D01*
X156357142Y-120500714D02*
X156309523Y-120595952D01*
X156309523Y-120595952D02*
X156261904Y-120643571D01*
X156261904Y-120643571D02*
X156166666Y-120691190D01*
X156166666Y-120691190D02*
X155785714Y-120691190D01*
X157309523Y-121167380D02*
X156738095Y-121167380D01*
X157023809Y-121167380D02*
X157023809Y-120167380D01*
X157023809Y-120167380D02*
X156928571Y-120310238D01*
X156928571Y-120310238D02*
X156833333Y-120405476D01*
X156833333Y-120405476D02*
X156738095Y-120453095D01*
X158166666Y-120167380D02*
X157976190Y-120167380D01*
X157976190Y-120167380D02*
X157880952Y-120215000D01*
X157880952Y-120215000D02*
X157833333Y-120262619D01*
X157833333Y-120262619D02*
X157738095Y-120405476D01*
X157738095Y-120405476D02*
X157690476Y-120595952D01*
X157690476Y-120595952D02*
X157690476Y-120976904D01*
X157690476Y-120976904D02*
X157738095Y-121072142D01*
X157738095Y-121072142D02*
X157785714Y-121119761D01*
X157785714Y-121119761D02*
X157880952Y-121167380D01*
X157880952Y-121167380D02*
X158071428Y-121167380D01*
X158071428Y-121167380D02*
X158166666Y-121119761D01*
X158166666Y-121119761D02*
X158214285Y-121072142D01*
X158214285Y-121072142D02*
X158261904Y-120976904D01*
X158261904Y-120976904D02*
X158261904Y-120738809D01*
X158261904Y-120738809D02*
X158214285Y-120643571D01*
X158214285Y-120643571D02*
X158166666Y-120595952D01*
X158166666Y-120595952D02*
X158071428Y-120548333D01*
X158071428Y-120548333D02*
X157880952Y-120548333D01*
X157880952Y-120548333D02*
X157785714Y-120595952D01*
X157785714Y-120595952D02*
X157738095Y-120643571D01*
X157738095Y-120643571D02*
X157690476Y-120738809D01*
%TO.C,R8*%
X156133333Y-94567380D02*
X155800000Y-94091190D01*
X155561905Y-94567380D02*
X155561905Y-93567380D01*
X155561905Y-93567380D02*
X155942857Y-93567380D01*
X155942857Y-93567380D02*
X156038095Y-93615000D01*
X156038095Y-93615000D02*
X156085714Y-93662619D01*
X156085714Y-93662619D02*
X156133333Y-93757857D01*
X156133333Y-93757857D02*
X156133333Y-93900714D01*
X156133333Y-93900714D02*
X156085714Y-93995952D01*
X156085714Y-93995952D02*
X156038095Y-94043571D01*
X156038095Y-94043571D02*
X155942857Y-94091190D01*
X155942857Y-94091190D02*
X155561905Y-94091190D01*
X156704762Y-93995952D02*
X156609524Y-93948333D01*
X156609524Y-93948333D02*
X156561905Y-93900714D01*
X156561905Y-93900714D02*
X156514286Y-93805476D01*
X156514286Y-93805476D02*
X156514286Y-93757857D01*
X156514286Y-93757857D02*
X156561905Y-93662619D01*
X156561905Y-93662619D02*
X156609524Y-93615000D01*
X156609524Y-93615000D02*
X156704762Y-93567380D01*
X156704762Y-93567380D02*
X156895238Y-93567380D01*
X156895238Y-93567380D02*
X156990476Y-93615000D01*
X156990476Y-93615000D02*
X157038095Y-93662619D01*
X157038095Y-93662619D02*
X157085714Y-93757857D01*
X157085714Y-93757857D02*
X157085714Y-93805476D01*
X157085714Y-93805476D02*
X157038095Y-93900714D01*
X157038095Y-93900714D02*
X156990476Y-93948333D01*
X156990476Y-93948333D02*
X156895238Y-93995952D01*
X156895238Y-93995952D02*
X156704762Y-93995952D01*
X156704762Y-93995952D02*
X156609524Y-94043571D01*
X156609524Y-94043571D02*
X156561905Y-94091190D01*
X156561905Y-94091190D02*
X156514286Y-94186428D01*
X156514286Y-94186428D02*
X156514286Y-94376904D01*
X156514286Y-94376904D02*
X156561905Y-94472142D01*
X156561905Y-94472142D02*
X156609524Y-94519761D01*
X156609524Y-94519761D02*
X156704762Y-94567380D01*
X156704762Y-94567380D02*
X156895238Y-94567380D01*
X156895238Y-94567380D02*
X156990476Y-94519761D01*
X156990476Y-94519761D02*
X157038095Y-94472142D01*
X157038095Y-94472142D02*
X157085714Y-94376904D01*
X157085714Y-94376904D02*
X157085714Y-94186428D01*
X157085714Y-94186428D02*
X157038095Y-94091190D01*
X157038095Y-94091190D02*
X156990476Y-94043571D01*
X156990476Y-94043571D02*
X156895238Y-93995952D01*
%TO.C,C13*%
X153857142Y-118972142D02*
X153809523Y-119019761D01*
X153809523Y-119019761D02*
X153666666Y-119067380D01*
X153666666Y-119067380D02*
X153571428Y-119067380D01*
X153571428Y-119067380D02*
X153428571Y-119019761D01*
X153428571Y-119019761D02*
X153333333Y-118924523D01*
X153333333Y-118924523D02*
X153285714Y-118829285D01*
X153285714Y-118829285D02*
X153238095Y-118638809D01*
X153238095Y-118638809D02*
X153238095Y-118495952D01*
X153238095Y-118495952D02*
X153285714Y-118305476D01*
X153285714Y-118305476D02*
X153333333Y-118210238D01*
X153333333Y-118210238D02*
X153428571Y-118115000D01*
X153428571Y-118115000D02*
X153571428Y-118067380D01*
X153571428Y-118067380D02*
X153666666Y-118067380D01*
X153666666Y-118067380D02*
X153809523Y-118115000D01*
X153809523Y-118115000D02*
X153857142Y-118162619D01*
X154809523Y-119067380D02*
X154238095Y-119067380D01*
X154523809Y-119067380D02*
X154523809Y-118067380D01*
X154523809Y-118067380D02*
X154428571Y-118210238D01*
X154428571Y-118210238D02*
X154333333Y-118305476D01*
X154333333Y-118305476D02*
X154238095Y-118353095D01*
X155142857Y-118067380D02*
X155761904Y-118067380D01*
X155761904Y-118067380D02*
X155428571Y-118448333D01*
X155428571Y-118448333D02*
X155571428Y-118448333D01*
X155571428Y-118448333D02*
X155666666Y-118495952D01*
X155666666Y-118495952D02*
X155714285Y-118543571D01*
X155714285Y-118543571D02*
X155761904Y-118638809D01*
X155761904Y-118638809D02*
X155761904Y-118876904D01*
X155761904Y-118876904D02*
X155714285Y-118972142D01*
X155714285Y-118972142D02*
X155666666Y-119019761D01*
X155666666Y-119019761D02*
X155571428Y-119067380D01*
X155571428Y-119067380D02*
X155285714Y-119067380D01*
X155285714Y-119067380D02*
X155190476Y-119019761D01*
X155190476Y-119019761D02*
X155142857Y-118972142D01*
D11*
%TO.C,IC5*%
X191123810Y-107467380D02*
X191123810Y-106467380D01*
X192171428Y-107372142D02*
X192123809Y-107419761D01*
X192123809Y-107419761D02*
X191980952Y-107467380D01*
X191980952Y-107467380D02*
X191885714Y-107467380D01*
X191885714Y-107467380D02*
X191742857Y-107419761D01*
X191742857Y-107419761D02*
X191647619Y-107324523D01*
X191647619Y-107324523D02*
X191600000Y-107229285D01*
X191600000Y-107229285D02*
X191552381Y-107038809D01*
X191552381Y-107038809D02*
X191552381Y-106895952D01*
X191552381Y-106895952D02*
X191600000Y-106705476D01*
X191600000Y-106705476D02*
X191647619Y-106610238D01*
X191647619Y-106610238D02*
X191742857Y-106515000D01*
X191742857Y-106515000D02*
X191885714Y-106467380D01*
X191885714Y-106467380D02*
X191980952Y-106467380D01*
X191980952Y-106467380D02*
X192123809Y-106515000D01*
X192123809Y-106515000D02*
X192171428Y-106562619D01*
X193076190Y-106467380D02*
X192600000Y-106467380D01*
X192600000Y-106467380D02*
X192552381Y-106943571D01*
X192552381Y-106943571D02*
X192600000Y-106895952D01*
X192600000Y-106895952D02*
X192695238Y-106848333D01*
X192695238Y-106848333D02*
X192933333Y-106848333D01*
X192933333Y-106848333D02*
X193028571Y-106895952D01*
X193028571Y-106895952D02*
X193076190Y-106943571D01*
X193076190Y-106943571D02*
X193123809Y-107038809D01*
X193123809Y-107038809D02*
X193123809Y-107276904D01*
X193123809Y-107276904D02*
X193076190Y-107372142D01*
X193076190Y-107372142D02*
X193028571Y-107419761D01*
X193028571Y-107419761D02*
X192933333Y-107467380D01*
X192933333Y-107467380D02*
X192695238Y-107467380D01*
X192695238Y-107467380D02*
X192600000Y-107419761D01*
X192600000Y-107419761D02*
X192552381Y-107372142D01*
D12*
%TO.C,C15*%
X188087142Y-102997142D02*
X188039523Y-103044761D01*
X188039523Y-103044761D02*
X187896666Y-103092380D01*
X187896666Y-103092380D02*
X187801428Y-103092380D01*
X187801428Y-103092380D02*
X187658571Y-103044761D01*
X187658571Y-103044761D02*
X187563333Y-102949523D01*
X187563333Y-102949523D02*
X187515714Y-102854285D01*
X187515714Y-102854285D02*
X187468095Y-102663809D01*
X187468095Y-102663809D02*
X187468095Y-102520952D01*
X187468095Y-102520952D02*
X187515714Y-102330476D01*
X187515714Y-102330476D02*
X187563333Y-102235238D01*
X187563333Y-102235238D02*
X187658571Y-102140000D01*
X187658571Y-102140000D02*
X187801428Y-102092380D01*
X187801428Y-102092380D02*
X187896666Y-102092380D01*
X187896666Y-102092380D02*
X188039523Y-102140000D01*
X188039523Y-102140000D02*
X188087142Y-102187619D01*
X189039523Y-103092380D02*
X188468095Y-103092380D01*
X188753809Y-103092380D02*
X188753809Y-102092380D01*
X188753809Y-102092380D02*
X188658571Y-102235238D01*
X188658571Y-102235238D02*
X188563333Y-102330476D01*
X188563333Y-102330476D02*
X188468095Y-102378095D01*
X189944285Y-102092380D02*
X189468095Y-102092380D01*
X189468095Y-102092380D02*
X189420476Y-102568571D01*
X189420476Y-102568571D02*
X189468095Y-102520952D01*
X189468095Y-102520952D02*
X189563333Y-102473333D01*
X189563333Y-102473333D02*
X189801428Y-102473333D01*
X189801428Y-102473333D02*
X189896666Y-102520952D01*
X189896666Y-102520952D02*
X189944285Y-102568571D01*
X189944285Y-102568571D02*
X189991904Y-102663809D01*
X189991904Y-102663809D02*
X189991904Y-102901904D01*
X189991904Y-102901904D02*
X189944285Y-102997142D01*
X189944285Y-102997142D02*
X189896666Y-103044761D01*
X189896666Y-103044761D02*
X189801428Y-103092380D01*
X189801428Y-103092380D02*
X189563333Y-103092380D01*
X189563333Y-103092380D02*
X189468095Y-103044761D01*
X189468095Y-103044761D02*
X189420476Y-102997142D01*
%TO.C,TP3*%
X188088095Y-98644380D02*
X188659523Y-98644380D01*
X188373809Y-99644380D02*
X188373809Y-98644380D01*
X188992857Y-99644380D02*
X188992857Y-98644380D01*
X188992857Y-98644380D02*
X189373809Y-98644380D01*
X189373809Y-98644380D02*
X189469047Y-98692000D01*
X189469047Y-98692000D02*
X189516666Y-98739619D01*
X189516666Y-98739619D02*
X189564285Y-98834857D01*
X189564285Y-98834857D02*
X189564285Y-98977714D01*
X189564285Y-98977714D02*
X189516666Y-99072952D01*
X189516666Y-99072952D02*
X189469047Y-99120571D01*
X189469047Y-99120571D02*
X189373809Y-99168190D01*
X189373809Y-99168190D02*
X188992857Y-99168190D01*
X189897619Y-98644380D02*
X190516666Y-98644380D01*
X190516666Y-98644380D02*
X190183333Y-99025333D01*
X190183333Y-99025333D02*
X190326190Y-99025333D01*
X190326190Y-99025333D02*
X190421428Y-99072952D01*
X190421428Y-99072952D02*
X190469047Y-99120571D01*
X190469047Y-99120571D02*
X190516666Y-99215809D01*
X190516666Y-99215809D02*
X190516666Y-99453904D01*
X190516666Y-99453904D02*
X190469047Y-99549142D01*
X190469047Y-99549142D02*
X190421428Y-99596761D01*
X190421428Y-99596761D02*
X190326190Y-99644380D01*
X190326190Y-99644380D02*
X190040476Y-99644380D01*
X190040476Y-99644380D02*
X189945238Y-99596761D01*
X189945238Y-99596761D02*
X189897619Y-99549142D01*
%TO.C,R4*%
X203533333Y-103167380D02*
X203200000Y-102691190D01*
X202961905Y-103167380D02*
X202961905Y-102167380D01*
X202961905Y-102167380D02*
X203342857Y-102167380D01*
X203342857Y-102167380D02*
X203438095Y-102215000D01*
X203438095Y-102215000D02*
X203485714Y-102262619D01*
X203485714Y-102262619D02*
X203533333Y-102357857D01*
X203533333Y-102357857D02*
X203533333Y-102500714D01*
X203533333Y-102500714D02*
X203485714Y-102595952D01*
X203485714Y-102595952D02*
X203438095Y-102643571D01*
X203438095Y-102643571D02*
X203342857Y-102691190D01*
X203342857Y-102691190D02*
X202961905Y-102691190D01*
X204390476Y-102500714D02*
X204390476Y-103167380D01*
X204152381Y-102119761D02*
X203914286Y-102834047D01*
X203914286Y-102834047D02*
X204533333Y-102834047D01*
%TO.C,C10*%
X204157142Y-113172142D02*
X204109523Y-113219761D01*
X204109523Y-113219761D02*
X203966666Y-113267380D01*
X203966666Y-113267380D02*
X203871428Y-113267380D01*
X203871428Y-113267380D02*
X203728571Y-113219761D01*
X203728571Y-113219761D02*
X203633333Y-113124523D01*
X203633333Y-113124523D02*
X203585714Y-113029285D01*
X203585714Y-113029285D02*
X203538095Y-112838809D01*
X203538095Y-112838809D02*
X203538095Y-112695952D01*
X203538095Y-112695952D02*
X203585714Y-112505476D01*
X203585714Y-112505476D02*
X203633333Y-112410238D01*
X203633333Y-112410238D02*
X203728571Y-112315000D01*
X203728571Y-112315000D02*
X203871428Y-112267380D01*
X203871428Y-112267380D02*
X203966666Y-112267380D01*
X203966666Y-112267380D02*
X204109523Y-112315000D01*
X204109523Y-112315000D02*
X204157142Y-112362619D01*
X205109523Y-113267380D02*
X204538095Y-113267380D01*
X204823809Y-113267380D02*
X204823809Y-112267380D01*
X204823809Y-112267380D02*
X204728571Y-112410238D01*
X204728571Y-112410238D02*
X204633333Y-112505476D01*
X204633333Y-112505476D02*
X204538095Y-112553095D01*
X205728571Y-112267380D02*
X205823809Y-112267380D01*
X205823809Y-112267380D02*
X205919047Y-112315000D01*
X205919047Y-112315000D02*
X205966666Y-112362619D01*
X205966666Y-112362619D02*
X206014285Y-112457857D01*
X206014285Y-112457857D02*
X206061904Y-112648333D01*
X206061904Y-112648333D02*
X206061904Y-112886428D01*
X206061904Y-112886428D02*
X206014285Y-113076904D01*
X206014285Y-113076904D02*
X205966666Y-113172142D01*
X205966666Y-113172142D02*
X205919047Y-113219761D01*
X205919047Y-113219761D02*
X205823809Y-113267380D01*
X205823809Y-113267380D02*
X205728571Y-113267380D01*
X205728571Y-113267380D02*
X205633333Y-113219761D01*
X205633333Y-113219761D02*
X205585714Y-113172142D01*
X205585714Y-113172142D02*
X205538095Y-113076904D01*
X205538095Y-113076904D02*
X205490476Y-112886428D01*
X205490476Y-112886428D02*
X205490476Y-112648333D01*
X205490476Y-112648333D02*
X205538095Y-112457857D01*
X205538095Y-112457857D02*
X205585714Y-112362619D01*
X205585714Y-112362619D02*
X205633333Y-112315000D01*
X205633333Y-112315000D02*
X205728571Y-112267380D01*
%TO.C,R3*%
X208033333Y-111767380D02*
X207700000Y-111291190D01*
X207461905Y-111767380D02*
X207461905Y-110767380D01*
X207461905Y-110767380D02*
X207842857Y-110767380D01*
X207842857Y-110767380D02*
X207938095Y-110815000D01*
X207938095Y-110815000D02*
X207985714Y-110862619D01*
X207985714Y-110862619D02*
X208033333Y-110957857D01*
X208033333Y-110957857D02*
X208033333Y-111100714D01*
X208033333Y-111100714D02*
X207985714Y-111195952D01*
X207985714Y-111195952D02*
X207938095Y-111243571D01*
X207938095Y-111243571D02*
X207842857Y-111291190D01*
X207842857Y-111291190D02*
X207461905Y-111291190D01*
X208366667Y-110767380D02*
X208985714Y-110767380D01*
X208985714Y-110767380D02*
X208652381Y-111148333D01*
X208652381Y-111148333D02*
X208795238Y-111148333D01*
X208795238Y-111148333D02*
X208890476Y-111195952D01*
X208890476Y-111195952D02*
X208938095Y-111243571D01*
X208938095Y-111243571D02*
X208985714Y-111338809D01*
X208985714Y-111338809D02*
X208985714Y-111576904D01*
X208985714Y-111576904D02*
X208938095Y-111672142D01*
X208938095Y-111672142D02*
X208890476Y-111719761D01*
X208890476Y-111719761D02*
X208795238Y-111767380D01*
X208795238Y-111767380D02*
X208509524Y-111767380D01*
X208509524Y-111767380D02*
X208414286Y-111719761D01*
X208414286Y-111719761D02*
X208366667Y-111672142D01*
%TO.C,C4*%
X196301833Y-80667142D02*
X196254214Y-80714761D01*
X196254214Y-80714761D02*
X196111357Y-80762380D01*
X196111357Y-80762380D02*
X196016119Y-80762380D01*
X196016119Y-80762380D02*
X195873262Y-80714761D01*
X195873262Y-80714761D02*
X195778024Y-80619523D01*
X195778024Y-80619523D02*
X195730405Y-80524285D01*
X195730405Y-80524285D02*
X195682786Y-80333809D01*
X195682786Y-80333809D02*
X195682786Y-80190952D01*
X195682786Y-80190952D02*
X195730405Y-80000476D01*
X195730405Y-80000476D02*
X195778024Y-79905238D01*
X195778024Y-79905238D02*
X195873262Y-79810000D01*
X195873262Y-79810000D02*
X196016119Y-79762380D01*
X196016119Y-79762380D02*
X196111357Y-79762380D01*
X196111357Y-79762380D02*
X196254214Y-79810000D01*
X196254214Y-79810000D02*
X196301833Y-79857619D01*
X197158976Y-80095714D02*
X197158976Y-80762380D01*
X196920881Y-79714761D02*
X196682786Y-80429047D01*
X196682786Y-80429047D02*
X197301833Y-80429047D01*
%TO.C,JP1*%
X152678666Y-96569380D02*
X152678666Y-97283666D01*
X152678666Y-97283666D02*
X152631047Y-97426523D01*
X152631047Y-97426523D02*
X152535809Y-97521761D01*
X152535809Y-97521761D02*
X152392952Y-97569380D01*
X152392952Y-97569380D02*
X152297714Y-97569380D01*
X153154857Y-97569380D02*
X153154857Y-96569380D01*
X153154857Y-96569380D02*
X153535809Y-96569380D01*
X153535809Y-96569380D02*
X153631047Y-96617000D01*
X153631047Y-96617000D02*
X153678666Y-96664619D01*
X153678666Y-96664619D02*
X153726285Y-96759857D01*
X153726285Y-96759857D02*
X153726285Y-96902714D01*
X153726285Y-96902714D02*
X153678666Y-96997952D01*
X153678666Y-96997952D02*
X153631047Y-97045571D01*
X153631047Y-97045571D02*
X153535809Y-97093190D01*
X153535809Y-97093190D02*
X153154857Y-97093190D01*
X154678666Y-97569380D02*
X154107238Y-97569380D01*
X154392952Y-97569380D02*
X154392952Y-96569380D01*
X154392952Y-96569380D02*
X154297714Y-96712238D01*
X154297714Y-96712238D02*
X154202476Y-96807476D01*
X154202476Y-96807476D02*
X154107238Y-96855095D01*
D14*
%TO.C,R5*%
X209893904Y-101533332D02*
X209512952Y-101799999D01*
X209893904Y-101990475D02*
X209093904Y-101990475D01*
X209093904Y-101990475D02*
X209093904Y-101685713D01*
X209093904Y-101685713D02*
X209132000Y-101609523D01*
X209132000Y-101609523D02*
X209170095Y-101571428D01*
X209170095Y-101571428D02*
X209246285Y-101533332D01*
X209246285Y-101533332D02*
X209360571Y-101533332D01*
X209360571Y-101533332D02*
X209436761Y-101571428D01*
X209436761Y-101571428D02*
X209474857Y-101609523D01*
X209474857Y-101609523D02*
X209512952Y-101685713D01*
X209512952Y-101685713D02*
X209512952Y-101990475D01*
X209093904Y-100809523D02*
X209093904Y-101190475D01*
X209093904Y-101190475D02*
X209474857Y-101228571D01*
X209474857Y-101228571D02*
X209436761Y-101190475D01*
X209436761Y-101190475D02*
X209398666Y-101114285D01*
X209398666Y-101114285D02*
X209398666Y-100923809D01*
X209398666Y-100923809D02*
X209436761Y-100847618D01*
X209436761Y-100847618D02*
X209474857Y-100809523D01*
X209474857Y-100809523D02*
X209551047Y-100771428D01*
X209551047Y-100771428D02*
X209741523Y-100771428D01*
X209741523Y-100771428D02*
X209817714Y-100809523D01*
X209817714Y-100809523D02*
X209855809Y-100847618D01*
X209855809Y-100847618D02*
X209893904Y-100923809D01*
X209893904Y-100923809D02*
X209893904Y-101114285D01*
X209893904Y-101114285D02*
X209855809Y-101190475D01*
X209855809Y-101190475D02*
X209817714Y-101228571D01*
D12*
%TO.C,TP2*%
X192038095Y-112567380D02*
X192609523Y-112567380D01*
X192323809Y-113567380D02*
X192323809Y-112567380D01*
X192942857Y-113567380D02*
X192942857Y-112567380D01*
X192942857Y-112567380D02*
X193323809Y-112567380D01*
X193323809Y-112567380D02*
X193419047Y-112615000D01*
X193419047Y-112615000D02*
X193466666Y-112662619D01*
X193466666Y-112662619D02*
X193514285Y-112757857D01*
X193514285Y-112757857D02*
X193514285Y-112900714D01*
X193514285Y-112900714D02*
X193466666Y-112995952D01*
X193466666Y-112995952D02*
X193419047Y-113043571D01*
X193419047Y-113043571D02*
X193323809Y-113091190D01*
X193323809Y-113091190D02*
X192942857Y-113091190D01*
X193895238Y-112662619D02*
X193942857Y-112615000D01*
X193942857Y-112615000D02*
X194038095Y-112567380D01*
X194038095Y-112567380D02*
X194276190Y-112567380D01*
X194276190Y-112567380D02*
X194371428Y-112615000D01*
X194371428Y-112615000D02*
X194419047Y-112662619D01*
X194419047Y-112662619D02*
X194466666Y-112757857D01*
X194466666Y-112757857D02*
X194466666Y-112853095D01*
X194466666Y-112853095D02*
X194419047Y-112995952D01*
X194419047Y-112995952D02*
X193847619Y-113567380D01*
X193847619Y-113567380D02*
X194466666Y-113567380D01*
D13*
%TO.C,J1*%
X145476667Y-121196573D02*
X145476667Y-122103716D01*
X145476667Y-122103716D02*
X145416190Y-122285145D01*
X145416190Y-122285145D02*
X145295238Y-122406097D01*
X145295238Y-122406097D02*
X145113809Y-122466573D01*
X145113809Y-122466573D02*
X144992857Y-122466573D01*
X146746667Y-122466573D02*
X146020952Y-122466573D01*
X146383809Y-122466573D02*
X146383809Y-121196573D01*
X146383809Y-121196573D02*
X146262857Y-121378002D01*
X146262857Y-121378002D02*
X146141905Y-121498954D01*
X146141905Y-121498954D02*
X146020952Y-121559430D01*
D12*
%TO.C,U1*%
X161128626Y-67516092D02*
X161128626Y-68325928D01*
X161128626Y-68325928D02*
X161176263Y-68421203D01*
X161176263Y-68421203D02*
X161223901Y-68468841D01*
X161223901Y-68468841D02*
X161319175Y-68516478D01*
X161319175Y-68516478D02*
X161509725Y-68516478D01*
X161509725Y-68516478D02*
X161605000Y-68468841D01*
X161605000Y-68468841D02*
X161652637Y-68421203D01*
X161652637Y-68421203D02*
X161700275Y-68325928D01*
X161700275Y-68325928D02*
X161700275Y-67516092D01*
X162700660Y-68516478D02*
X162129011Y-68516478D01*
X162414836Y-68516478D02*
X162414836Y-67516092D01*
X162414836Y-67516092D02*
X162319561Y-67659004D01*
X162319561Y-67659004D02*
X162224286Y-67754279D01*
X162224286Y-67754279D02*
X162129011Y-67801917D01*
%TO.C,TP1*%
X189438095Y-112567380D02*
X190009523Y-112567380D01*
X189723809Y-113567380D02*
X189723809Y-112567380D01*
X190342857Y-113567380D02*
X190342857Y-112567380D01*
X190342857Y-112567380D02*
X190723809Y-112567380D01*
X190723809Y-112567380D02*
X190819047Y-112615000D01*
X190819047Y-112615000D02*
X190866666Y-112662619D01*
X190866666Y-112662619D02*
X190914285Y-112757857D01*
X190914285Y-112757857D02*
X190914285Y-112900714D01*
X190914285Y-112900714D02*
X190866666Y-112995952D01*
X190866666Y-112995952D02*
X190819047Y-113043571D01*
X190819047Y-113043571D02*
X190723809Y-113091190D01*
X190723809Y-113091190D02*
X190342857Y-113091190D01*
X191866666Y-113567380D02*
X191295238Y-113567380D01*
X191580952Y-113567380D02*
X191580952Y-112567380D01*
X191580952Y-112567380D02*
X191485714Y-112710238D01*
X191485714Y-112710238D02*
X191390476Y-112805476D01*
X191390476Y-112805476D02*
X191295238Y-112853095D01*
%TO.C,R6*%
X208033333Y-109167380D02*
X207700000Y-108691190D01*
X207461905Y-109167380D02*
X207461905Y-108167380D01*
X207461905Y-108167380D02*
X207842857Y-108167380D01*
X207842857Y-108167380D02*
X207938095Y-108215000D01*
X207938095Y-108215000D02*
X207985714Y-108262619D01*
X207985714Y-108262619D02*
X208033333Y-108357857D01*
X208033333Y-108357857D02*
X208033333Y-108500714D01*
X208033333Y-108500714D02*
X207985714Y-108595952D01*
X207985714Y-108595952D02*
X207938095Y-108643571D01*
X207938095Y-108643571D02*
X207842857Y-108691190D01*
X207842857Y-108691190D02*
X207461905Y-108691190D01*
X208890476Y-108167380D02*
X208700000Y-108167380D01*
X208700000Y-108167380D02*
X208604762Y-108215000D01*
X208604762Y-108215000D02*
X208557143Y-108262619D01*
X208557143Y-108262619D02*
X208461905Y-108405476D01*
X208461905Y-108405476D02*
X208414286Y-108595952D01*
X208414286Y-108595952D02*
X208414286Y-108976904D01*
X208414286Y-108976904D02*
X208461905Y-109072142D01*
X208461905Y-109072142D02*
X208509524Y-109119761D01*
X208509524Y-109119761D02*
X208604762Y-109167380D01*
X208604762Y-109167380D02*
X208795238Y-109167380D01*
X208795238Y-109167380D02*
X208890476Y-109119761D01*
X208890476Y-109119761D02*
X208938095Y-109072142D01*
X208938095Y-109072142D02*
X208985714Y-108976904D01*
X208985714Y-108976904D02*
X208985714Y-108738809D01*
X208985714Y-108738809D02*
X208938095Y-108643571D01*
X208938095Y-108643571D02*
X208890476Y-108595952D01*
X208890476Y-108595952D02*
X208795238Y-108548333D01*
X208795238Y-108548333D02*
X208604762Y-108548333D01*
X208604762Y-108548333D02*
X208509524Y-108595952D01*
X208509524Y-108595952D02*
X208461905Y-108643571D01*
X208461905Y-108643571D02*
X208414286Y-108738809D01*
D13*
%TO.C,IC3*%
X197360237Y-107766573D02*
X197360237Y-106496573D01*
X198690714Y-107645621D02*
X198630238Y-107706097D01*
X198630238Y-107706097D02*
X198448809Y-107766573D01*
X198448809Y-107766573D02*
X198327857Y-107766573D01*
X198327857Y-107766573D02*
X198146428Y-107706097D01*
X198146428Y-107706097D02*
X198025476Y-107585145D01*
X198025476Y-107585145D02*
X197964999Y-107464192D01*
X197964999Y-107464192D02*
X197904523Y-107222288D01*
X197904523Y-107222288D02*
X197904523Y-107040859D01*
X197904523Y-107040859D02*
X197964999Y-106798954D01*
X197964999Y-106798954D02*
X198025476Y-106678002D01*
X198025476Y-106678002D02*
X198146428Y-106557050D01*
X198146428Y-106557050D02*
X198327857Y-106496573D01*
X198327857Y-106496573D02*
X198448809Y-106496573D01*
X198448809Y-106496573D02*
X198630238Y-106557050D01*
X198630238Y-106557050D02*
X198690714Y-106617526D01*
X199114047Y-106496573D02*
X199900238Y-106496573D01*
X199900238Y-106496573D02*
X199476904Y-106980383D01*
X199476904Y-106980383D02*
X199658333Y-106980383D01*
X199658333Y-106980383D02*
X199779285Y-107040859D01*
X199779285Y-107040859D02*
X199839761Y-107101335D01*
X199839761Y-107101335D02*
X199900238Y-107222288D01*
X199900238Y-107222288D02*
X199900238Y-107524669D01*
X199900238Y-107524669D02*
X199839761Y-107645621D01*
X199839761Y-107645621D02*
X199779285Y-107706097D01*
X199779285Y-107706097D02*
X199658333Y-107766573D01*
X199658333Y-107766573D02*
X199295476Y-107766573D01*
X199295476Y-107766573D02*
X199174523Y-107706097D01*
X199174523Y-107706097D02*
X199114047Y-107645621D01*
D12*
%TO.C,R11*%
X188657142Y-96367380D02*
X188323809Y-95891190D01*
X188085714Y-96367380D02*
X188085714Y-95367380D01*
X188085714Y-95367380D02*
X188466666Y-95367380D01*
X188466666Y-95367380D02*
X188561904Y-95415000D01*
X188561904Y-95415000D02*
X188609523Y-95462619D01*
X188609523Y-95462619D02*
X188657142Y-95557857D01*
X188657142Y-95557857D02*
X188657142Y-95700714D01*
X188657142Y-95700714D02*
X188609523Y-95795952D01*
X188609523Y-95795952D02*
X188561904Y-95843571D01*
X188561904Y-95843571D02*
X188466666Y-95891190D01*
X188466666Y-95891190D02*
X188085714Y-95891190D01*
X189609523Y-96367380D02*
X189038095Y-96367380D01*
X189323809Y-96367380D02*
X189323809Y-95367380D01*
X189323809Y-95367380D02*
X189228571Y-95510238D01*
X189228571Y-95510238D02*
X189133333Y-95605476D01*
X189133333Y-95605476D02*
X189038095Y-95653095D01*
X190561904Y-96367380D02*
X189990476Y-96367380D01*
X190276190Y-96367380D02*
X190276190Y-95367380D01*
X190276190Y-95367380D02*
X190180952Y-95510238D01*
X190180952Y-95510238D02*
X190085714Y-95605476D01*
X190085714Y-95605476D02*
X189990476Y-95653095D01*
%TO.C,R1*%
X195633333Y-114967380D02*
X195300000Y-114491190D01*
X195061905Y-114967380D02*
X195061905Y-113967380D01*
X195061905Y-113967380D02*
X195442857Y-113967380D01*
X195442857Y-113967380D02*
X195538095Y-114015000D01*
X195538095Y-114015000D02*
X195585714Y-114062619D01*
X195585714Y-114062619D02*
X195633333Y-114157857D01*
X195633333Y-114157857D02*
X195633333Y-114300714D01*
X195633333Y-114300714D02*
X195585714Y-114395952D01*
X195585714Y-114395952D02*
X195538095Y-114443571D01*
X195538095Y-114443571D02*
X195442857Y-114491190D01*
X195442857Y-114491190D02*
X195061905Y-114491190D01*
X196585714Y-114967380D02*
X196014286Y-114967380D01*
X196300000Y-114967380D02*
X196300000Y-113967380D01*
X196300000Y-113967380D02*
X196204762Y-114110238D01*
X196204762Y-114110238D02*
X196109524Y-114205476D01*
X196109524Y-114205476D02*
X196014286Y-114253095D01*
%TO.C,R15*%
X156057142Y-111167380D02*
X155723809Y-110691190D01*
X155485714Y-111167380D02*
X155485714Y-110167380D01*
X155485714Y-110167380D02*
X155866666Y-110167380D01*
X155866666Y-110167380D02*
X155961904Y-110215000D01*
X155961904Y-110215000D02*
X156009523Y-110262619D01*
X156009523Y-110262619D02*
X156057142Y-110357857D01*
X156057142Y-110357857D02*
X156057142Y-110500714D01*
X156057142Y-110500714D02*
X156009523Y-110595952D01*
X156009523Y-110595952D02*
X155961904Y-110643571D01*
X155961904Y-110643571D02*
X155866666Y-110691190D01*
X155866666Y-110691190D02*
X155485714Y-110691190D01*
X157009523Y-111167380D02*
X156438095Y-111167380D01*
X156723809Y-111167380D02*
X156723809Y-110167380D01*
X156723809Y-110167380D02*
X156628571Y-110310238D01*
X156628571Y-110310238D02*
X156533333Y-110405476D01*
X156533333Y-110405476D02*
X156438095Y-110453095D01*
X157914285Y-110167380D02*
X157438095Y-110167380D01*
X157438095Y-110167380D02*
X157390476Y-110643571D01*
X157390476Y-110643571D02*
X157438095Y-110595952D01*
X157438095Y-110595952D02*
X157533333Y-110548333D01*
X157533333Y-110548333D02*
X157771428Y-110548333D01*
X157771428Y-110548333D02*
X157866666Y-110595952D01*
X157866666Y-110595952D02*
X157914285Y-110643571D01*
X157914285Y-110643571D02*
X157961904Y-110738809D01*
X157961904Y-110738809D02*
X157961904Y-110976904D01*
X157961904Y-110976904D02*
X157914285Y-111072142D01*
X157914285Y-111072142D02*
X157866666Y-111119761D01*
X157866666Y-111119761D02*
X157771428Y-111167380D01*
X157771428Y-111167380D02*
X157533333Y-111167380D01*
X157533333Y-111167380D02*
X157438095Y-111119761D01*
X157438095Y-111119761D02*
X157390476Y-111072142D01*
D13*
%TO.C,IC2*%
X199271237Y-85306573D02*
X199271237Y-84036573D01*
X200601714Y-85185621D02*
X200541238Y-85246097D01*
X200541238Y-85246097D02*
X200359809Y-85306573D01*
X200359809Y-85306573D02*
X200238857Y-85306573D01*
X200238857Y-85306573D02*
X200057428Y-85246097D01*
X200057428Y-85246097D02*
X199936476Y-85125145D01*
X199936476Y-85125145D02*
X199875999Y-85004192D01*
X199875999Y-85004192D02*
X199815523Y-84762288D01*
X199815523Y-84762288D02*
X199815523Y-84580859D01*
X199815523Y-84580859D02*
X199875999Y-84338954D01*
X199875999Y-84338954D02*
X199936476Y-84218002D01*
X199936476Y-84218002D02*
X200057428Y-84097050D01*
X200057428Y-84097050D02*
X200238857Y-84036573D01*
X200238857Y-84036573D02*
X200359809Y-84036573D01*
X200359809Y-84036573D02*
X200541238Y-84097050D01*
X200541238Y-84097050D02*
X200601714Y-84157526D01*
X201085523Y-84157526D02*
X201145999Y-84097050D01*
X201145999Y-84097050D02*
X201266952Y-84036573D01*
X201266952Y-84036573D02*
X201569333Y-84036573D01*
X201569333Y-84036573D02*
X201690285Y-84097050D01*
X201690285Y-84097050D02*
X201750761Y-84157526D01*
X201750761Y-84157526D02*
X201811238Y-84278478D01*
X201811238Y-84278478D02*
X201811238Y-84399430D01*
X201811238Y-84399430D02*
X201750761Y-84580859D01*
X201750761Y-84580859D02*
X201025047Y-85306573D01*
X201025047Y-85306573D02*
X201811238Y-85306573D01*
D12*
%TO.C,R9*%
X191022380Y-83531666D02*
X190546190Y-83864999D01*
X191022380Y-84103094D02*
X190022380Y-84103094D01*
X190022380Y-84103094D02*
X190022380Y-83722142D01*
X190022380Y-83722142D02*
X190070000Y-83626904D01*
X190070000Y-83626904D02*
X190117619Y-83579285D01*
X190117619Y-83579285D02*
X190212857Y-83531666D01*
X190212857Y-83531666D02*
X190355714Y-83531666D01*
X190355714Y-83531666D02*
X190450952Y-83579285D01*
X190450952Y-83579285D02*
X190498571Y-83626904D01*
X190498571Y-83626904D02*
X190546190Y-83722142D01*
X190546190Y-83722142D02*
X190546190Y-84103094D01*
X191022380Y-83055475D02*
X191022380Y-82864999D01*
X191022380Y-82864999D02*
X190974761Y-82769761D01*
X190974761Y-82769761D02*
X190927142Y-82722142D01*
X190927142Y-82722142D02*
X190784285Y-82626904D01*
X190784285Y-82626904D02*
X190593809Y-82579285D01*
X190593809Y-82579285D02*
X190212857Y-82579285D01*
X190212857Y-82579285D02*
X190117619Y-82626904D01*
X190117619Y-82626904D02*
X190070000Y-82674523D01*
X190070000Y-82674523D02*
X190022380Y-82769761D01*
X190022380Y-82769761D02*
X190022380Y-82960237D01*
X190022380Y-82960237D02*
X190070000Y-83055475D01*
X190070000Y-83055475D02*
X190117619Y-83103094D01*
X190117619Y-83103094D02*
X190212857Y-83150713D01*
X190212857Y-83150713D02*
X190450952Y-83150713D01*
X190450952Y-83150713D02*
X190546190Y-83103094D01*
X190546190Y-83103094D02*
X190593809Y-83055475D01*
X190593809Y-83055475D02*
X190641428Y-82960237D01*
X190641428Y-82960237D02*
X190641428Y-82769761D01*
X190641428Y-82769761D02*
X190593809Y-82674523D01*
X190593809Y-82674523D02*
X190546190Y-82626904D01*
X190546190Y-82626904D02*
X190450952Y-82579285D01*
%TO.C,R7*%
X195833333Y-94367380D02*
X195500000Y-93891190D01*
X195261905Y-94367380D02*
X195261905Y-93367380D01*
X195261905Y-93367380D02*
X195642857Y-93367380D01*
X195642857Y-93367380D02*
X195738095Y-93415000D01*
X195738095Y-93415000D02*
X195785714Y-93462619D01*
X195785714Y-93462619D02*
X195833333Y-93557857D01*
X195833333Y-93557857D02*
X195833333Y-93700714D01*
X195833333Y-93700714D02*
X195785714Y-93795952D01*
X195785714Y-93795952D02*
X195738095Y-93843571D01*
X195738095Y-93843571D02*
X195642857Y-93891190D01*
X195642857Y-93891190D02*
X195261905Y-93891190D01*
X196166667Y-93367380D02*
X196833333Y-93367380D01*
X196833333Y-93367380D02*
X196404762Y-94367380D01*
D13*
%TO.C,IC8*%
X148360237Y-88866573D02*
X148360237Y-87596573D01*
X149690714Y-88745621D02*
X149630238Y-88806097D01*
X149630238Y-88806097D02*
X149448809Y-88866573D01*
X149448809Y-88866573D02*
X149327857Y-88866573D01*
X149327857Y-88866573D02*
X149146428Y-88806097D01*
X149146428Y-88806097D02*
X149025476Y-88685145D01*
X149025476Y-88685145D02*
X148964999Y-88564192D01*
X148964999Y-88564192D02*
X148904523Y-88322288D01*
X148904523Y-88322288D02*
X148904523Y-88140859D01*
X148904523Y-88140859D02*
X148964999Y-87898954D01*
X148964999Y-87898954D02*
X149025476Y-87778002D01*
X149025476Y-87778002D02*
X149146428Y-87657050D01*
X149146428Y-87657050D02*
X149327857Y-87596573D01*
X149327857Y-87596573D02*
X149448809Y-87596573D01*
X149448809Y-87596573D02*
X149630238Y-87657050D01*
X149630238Y-87657050D02*
X149690714Y-87717526D01*
X150416428Y-88140859D02*
X150295476Y-88080383D01*
X150295476Y-88080383D02*
X150234999Y-88019907D01*
X150234999Y-88019907D02*
X150174523Y-87898954D01*
X150174523Y-87898954D02*
X150174523Y-87838478D01*
X150174523Y-87838478D02*
X150234999Y-87717526D01*
X150234999Y-87717526D02*
X150295476Y-87657050D01*
X150295476Y-87657050D02*
X150416428Y-87596573D01*
X150416428Y-87596573D02*
X150658333Y-87596573D01*
X150658333Y-87596573D02*
X150779285Y-87657050D01*
X150779285Y-87657050D02*
X150839761Y-87717526D01*
X150839761Y-87717526D02*
X150900238Y-87838478D01*
X150900238Y-87838478D02*
X150900238Y-87898954D01*
X150900238Y-87898954D02*
X150839761Y-88019907D01*
X150839761Y-88019907D02*
X150779285Y-88080383D01*
X150779285Y-88080383D02*
X150658333Y-88140859D01*
X150658333Y-88140859D02*
X150416428Y-88140859D01*
X150416428Y-88140859D02*
X150295476Y-88201335D01*
X150295476Y-88201335D02*
X150234999Y-88261811D01*
X150234999Y-88261811D02*
X150174523Y-88382764D01*
X150174523Y-88382764D02*
X150174523Y-88624669D01*
X150174523Y-88624669D02*
X150234999Y-88745621D01*
X150234999Y-88745621D02*
X150295476Y-88806097D01*
X150295476Y-88806097D02*
X150416428Y-88866573D01*
X150416428Y-88866573D02*
X150658333Y-88866573D01*
X150658333Y-88866573D02*
X150779285Y-88806097D01*
X150779285Y-88806097D02*
X150839761Y-88745621D01*
X150839761Y-88745621D02*
X150900238Y-88624669D01*
X150900238Y-88624669D02*
X150900238Y-88382764D01*
X150900238Y-88382764D02*
X150839761Y-88261811D01*
X150839761Y-88261811D02*
X150779285Y-88201335D01*
X150779285Y-88201335D02*
X150658333Y-88140859D01*
D12*
%TO.C,C16*%
X205357142Y-98022142D02*
X205309523Y-98069761D01*
X205309523Y-98069761D02*
X205166666Y-98117380D01*
X205166666Y-98117380D02*
X205071428Y-98117380D01*
X205071428Y-98117380D02*
X204928571Y-98069761D01*
X204928571Y-98069761D02*
X204833333Y-97974523D01*
X204833333Y-97974523D02*
X204785714Y-97879285D01*
X204785714Y-97879285D02*
X204738095Y-97688809D01*
X204738095Y-97688809D02*
X204738095Y-97545952D01*
X204738095Y-97545952D02*
X204785714Y-97355476D01*
X204785714Y-97355476D02*
X204833333Y-97260238D01*
X204833333Y-97260238D02*
X204928571Y-97165000D01*
X204928571Y-97165000D02*
X205071428Y-97117380D01*
X205071428Y-97117380D02*
X205166666Y-97117380D01*
X205166666Y-97117380D02*
X205309523Y-97165000D01*
X205309523Y-97165000D02*
X205357142Y-97212619D01*
X206309523Y-98117380D02*
X205738095Y-98117380D01*
X206023809Y-98117380D02*
X206023809Y-97117380D01*
X206023809Y-97117380D02*
X205928571Y-97260238D01*
X205928571Y-97260238D02*
X205833333Y-97355476D01*
X205833333Y-97355476D02*
X205738095Y-97403095D01*
X207166666Y-97117380D02*
X206976190Y-97117380D01*
X206976190Y-97117380D02*
X206880952Y-97165000D01*
X206880952Y-97165000D02*
X206833333Y-97212619D01*
X206833333Y-97212619D02*
X206738095Y-97355476D01*
X206738095Y-97355476D02*
X206690476Y-97545952D01*
X206690476Y-97545952D02*
X206690476Y-97926904D01*
X206690476Y-97926904D02*
X206738095Y-98022142D01*
X206738095Y-98022142D02*
X206785714Y-98069761D01*
X206785714Y-98069761D02*
X206880952Y-98117380D01*
X206880952Y-98117380D02*
X207071428Y-98117380D01*
X207071428Y-98117380D02*
X207166666Y-98069761D01*
X207166666Y-98069761D02*
X207214285Y-98022142D01*
X207214285Y-98022142D02*
X207261904Y-97926904D01*
X207261904Y-97926904D02*
X207261904Y-97688809D01*
X207261904Y-97688809D02*
X207214285Y-97593571D01*
X207214285Y-97593571D02*
X207166666Y-97545952D01*
X207166666Y-97545952D02*
X207071428Y-97498333D01*
X207071428Y-97498333D02*
X206880952Y-97498333D01*
X206880952Y-97498333D02*
X206785714Y-97545952D01*
X206785714Y-97545952D02*
X206738095Y-97593571D01*
X206738095Y-97593571D02*
X206690476Y-97688809D01*
%TO.C,C5*%
X154633333Y-80472142D02*
X154585714Y-80519761D01*
X154585714Y-80519761D02*
X154442857Y-80567380D01*
X154442857Y-80567380D02*
X154347619Y-80567380D01*
X154347619Y-80567380D02*
X154204762Y-80519761D01*
X154204762Y-80519761D02*
X154109524Y-80424523D01*
X154109524Y-80424523D02*
X154061905Y-80329285D01*
X154061905Y-80329285D02*
X154014286Y-80138809D01*
X154014286Y-80138809D02*
X154014286Y-79995952D01*
X154014286Y-79995952D02*
X154061905Y-79805476D01*
X154061905Y-79805476D02*
X154109524Y-79710238D01*
X154109524Y-79710238D02*
X154204762Y-79615000D01*
X154204762Y-79615000D02*
X154347619Y-79567380D01*
X154347619Y-79567380D02*
X154442857Y-79567380D01*
X154442857Y-79567380D02*
X154585714Y-79615000D01*
X154585714Y-79615000D02*
X154633333Y-79662619D01*
X155538095Y-79567380D02*
X155061905Y-79567380D01*
X155061905Y-79567380D02*
X155014286Y-80043571D01*
X155014286Y-80043571D02*
X155061905Y-79995952D01*
X155061905Y-79995952D02*
X155157143Y-79948333D01*
X155157143Y-79948333D02*
X155395238Y-79948333D01*
X155395238Y-79948333D02*
X155490476Y-79995952D01*
X155490476Y-79995952D02*
X155538095Y-80043571D01*
X155538095Y-80043571D02*
X155585714Y-80138809D01*
X155585714Y-80138809D02*
X155585714Y-80376904D01*
X155585714Y-80376904D02*
X155538095Y-80472142D01*
X155538095Y-80472142D02*
X155490476Y-80519761D01*
X155490476Y-80519761D02*
X155395238Y-80567380D01*
X155395238Y-80567380D02*
X155157143Y-80567380D01*
X155157143Y-80567380D02*
X155061905Y-80519761D01*
X155061905Y-80519761D02*
X155014286Y-80472142D01*
%TO.C,C12*%
X199107142Y-96522142D02*
X199059523Y-96569761D01*
X199059523Y-96569761D02*
X198916666Y-96617380D01*
X198916666Y-96617380D02*
X198821428Y-96617380D01*
X198821428Y-96617380D02*
X198678571Y-96569761D01*
X198678571Y-96569761D02*
X198583333Y-96474523D01*
X198583333Y-96474523D02*
X198535714Y-96379285D01*
X198535714Y-96379285D02*
X198488095Y-96188809D01*
X198488095Y-96188809D02*
X198488095Y-96045952D01*
X198488095Y-96045952D02*
X198535714Y-95855476D01*
X198535714Y-95855476D02*
X198583333Y-95760238D01*
X198583333Y-95760238D02*
X198678571Y-95665000D01*
X198678571Y-95665000D02*
X198821428Y-95617380D01*
X198821428Y-95617380D02*
X198916666Y-95617380D01*
X198916666Y-95617380D02*
X199059523Y-95665000D01*
X199059523Y-95665000D02*
X199107142Y-95712619D01*
X200059523Y-96617380D02*
X199488095Y-96617380D01*
X199773809Y-96617380D02*
X199773809Y-95617380D01*
X199773809Y-95617380D02*
X199678571Y-95760238D01*
X199678571Y-95760238D02*
X199583333Y-95855476D01*
X199583333Y-95855476D02*
X199488095Y-95903095D01*
X200440476Y-95712619D02*
X200488095Y-95665000D01*
X200488095Y-95665000D02*
X200583333Y-95617380D01*
X200583333Y-95617380D02*
X200821428Y-95617380D01*
X200821428Y-95617380D02*
X200916666Y-95665000D01*
X200916666Y-95665000D02*
X200964285Y-95712619D01*
X200964285Y-95712619D02*
X201011904Y-95807857D01*
X201011904Y-95807857D02*
X201011904Y-95903095D01*
X201011904Y-95903095D02*
X200964285Y-96045952D01*
X200964285Y-96045952D02*
X200392857Y-96617380D01*
X200392857Y-96617380D02*
X201011904Y-96617380D01*
%TO.C,C1*%
X193798142Y-81831666D02*
X193845761Y-81879285D01*
X193845761Y-81879285D02*
X193893380Y-82022142D01*
X193893380Y-82022142D02*
X193893380Y-82117380D01*
X193893380Y-82117380D02*
X193845761Y-82260237D01*
X193845761Y-82260237D02*
X193750523Y-82355475D01*
X193750523Y-82355475D02*
X193655285Y-82403094D01*
X193655285Y-82403094D02*
X193464809Y-82450713D01*
X193464809Y-82450713D02*
X193321952Y-82450713D01*
X193321952Y-82450713D02*
X193131476Y-82403094D01*
X193131476Y-82403094D02*
X193036238Y-82355475D01*
X193036238Y-82355475D02*
X192941000Y-82260237D01*
X192941000Y-82260237D02*
X192893380Y-82117380D01*
X192893380Y-82117380D02*
X192893380Y-82022142D01*
X192893380Y-82022142D02*
X192941000Y-81879285D01*
X192941000Y-81879285D02*
X192988619Y-81831666D01*
X193893380Y-80879285D02*
X193893380Y-81450713D01*
X193893380Y-81164999D02*
X192893380Y-81164999D01*
X192893380Y-81164999D02*
X193036238Y-81260237D01*
X193036238Y-81260237D02*
X193131476Y-81355475D01*
X193131476Y-81355475D02*
X193179095Y-81450713D01*
%TO.C,C11*%
X207857142Y-110372142D02*
X207809523Y-110419761D01*
X207809523Y-110419761D02*
X207666666Y-110467380D01*
X207666666Y-110467380D02*
X207571428Y-110467380D01*
X207571428Y-110467380D02*
X207428571Y-110419761D01*
X207428571Y-110419761D02*
X207333333Y-110324523D01*
X207333333Y-110324523D02*
X207285714Y-110229285D01*
X207285714Y-110229285D02*
X207238095Y-110038809D01*
X207238095Y-110038809D02*
X207238095Y-109895952D01*
X207238095Y-109895952D02*
X207285714Y-109705476D01*
X207285714Y-109705476D02*
X207333333Y-109610238D01*
X207333333Y-109610238D02*
X207428571Y-109515000D01*
X207428571Y-109515000D02*
X207571428Y-109467380D01*
X207571428Y-109467380D02*
X207666666Y-109467380D01*
X207666666Y-109467380D02*
X207809523Y-109515000D01*
X207809523Y-109515000D02*
X207857142Y-109562619D01*
X208809523Y-110467380D02*
X208238095Y-110467380D01*
X208523809Y-110467380D02*
X208523809Y-109467380D01*
X208523809Y-109467380D02*
X208428571Y-109610238D01*
X208428571Y-109610238D02*
X208333333Y-109705476D01*
X208333333Y-109705476D02*
X208238095Y-109753095D01*
X209761904Y-110467380D02*
X209190476Y-110467380D01*
X209476190Y-110467380D02*
X209476190Y-109467380D01*
X209476190Y-109467380D02*
X209380952Y-109610238D01*
X209380952Y-109610238D02*
X209285714Y-109705476D01*
X209285714Y-109705476D02*
X209190476Y-109753095D01*
%TO.C,J2*%
X144266666Y-92567380D02*
X144266666Y-93281666D01*
X144266666Y-93281666D02*
X144219047Y-93424523D01*
X144219047Y-93424523D02*
X144123809Y-93519761D01*
X144123809Y-93519761D02*
X143980952Y-93567380D01*
X143980952Y-93567380D02*
X143885714Y-93567380D01*
X144695238Y-92662619D02*
X144742857Y-92615000D01*
X144742857Y-92615000D02*
X144838095Y-92567380D01*
X144838095Y-92567380D02*
X145076190Y-92567380D01*
X145076190Y-92567380D02*
X145171428Y-92615000D01*
X145171428Y-92615000D02*
X145219047Y-92662619D01*
X145219047Y-92662619D02*
X145266666Y-92757857D01*
X145266666Y-92757857D02*
X145266666Y-92853095D01*
X145266666Y-92853095D02*
X145219047Y-92995952D01*
X145219047Y-92995952D02*
X144647619Y-93567380D01*
X144647619Y-93567380D02*
X145266666Y-93567380D01*
%TO.C,C9*%
X201633333Y-114872142D02*
X201585714Y-114919761D01*
X201585714Y-114919761D02*
X201442857Y-114967380D01*
X201442857Y-114967380D02*
X201347619Y-114967380D01*
X201347619Y-114967380D02*
X201204762Y-114919761D01*
X201204762Y-114919761D02*
X201109524Y-114824523D01*
X201109524Y-114824523D02*
X201061905Y-114729285D01*
X201061905Y-114729285D02*
X201014286Y-114538809D01*
X201014286Y-114538809D02*
X201014286Y-114395952D01*
X201014286Y-114395952D02*
X201061905Y-114205476D01*
X201061905Y-114205476D02*
X201109524Y-114110238D01*
X201109524Y-114110238D02*
X201204762Y-114015000D01*
X201204762Y-114015000D02*
X201347619Y-113967380D01*
X201347619Y-113967380D02*
X201442857Y-113967380D01*
X201442857Y-113967380D02*
X201585714Y-114015000D01*
X201585714Y-114015000D02*
X201633333Y-114062619D01*
X202109524Y-114967380D02*
X202300000Y-114967380D01*
X202300000Y-114967380D02*
X202395238Y-114919761D01*
X202395238Y-114919761D02*
X202442857Y-114872142D01*
X202442857Y-114872142D02*
X202538095Y-114729285D01*
X202538095Y-114729285D02*
X202585714Y-114538809D01*
X202585714Y-114538809D02*
X202585714Y-114157857D01*
X202585714Y-114157857D02*
X202538095Y-114062619D01*
X202538095Y-114062619D02*
X202490476Y-114015000D01*
X202490476Y-114015000D02*
X202395238Y-113967380D01*
X202395238Y-113967380D02*
X202204762Y-113967380D01*
X202204762Y-113967380D02*
X202109524Y-114015000D01*
X202109524Y-114015000D02*
X202061905Y-114062619D01*
X202061905Y-114062619D02*
X202014286Y-114157857D01*
X202014286Y-114157857D02*
X202014286Y-114395952D01*
X202014286Y-114395952D02*
X202061905Y-114491190D01*
X202061905Y-114491190D02*
X202109524Y-114538809D01*
X202109524Y-114538809D02*
X202204762Y-114586428D01*
X202204762Y-114586428D02*
X202395238Y-114586428D01*
X202395238Y-114586428D02*
X202490476Y-114538809D01*
X202490476Y-114538809D02*
X202538095Y-114491190D01*
X202538095Y-114491190D02*
X202585714Y-114395952D01*
%TO.C,R2*%
X199533333Y-114967380D02*
X199200000Y-114491190D01*
X198961905Y-114967380D02*
X198961905Y-113967380D01*
X198961905Y-113967380D02*
X199342857Y-113967380D01*
X199342857Y-113967380D02*
X199438095Y-114015000D01*
X199438095Y-114015000D02*
X199485714Y-114062619D01*
X199485714Y-114062619D02*
X199533333Y-114157857D01*
X199533333Y-114157857D02*
X199533333Y-114300714D01*
X199533333Y-114300714D02*
X199485714Y-114395952D01*
X199485714Y-114395952D02*
X199438095Y-114443571D01*
X199438095Y-114443571D02*
X199342857Y-114491190D01*
X199342857Y-114491190D02*
X198961905Y-114491190D01*
X199914286Y-114062619D02*
X199961905Y-114015000D01*
X199961905Y-114015000D02*
X200057143Y-113967380D01*
X200057143Y-113967380D02*
X200295238Y-113967380D01*
X200295238Y-113967380D02*
X200390476Y-114015000D01*
X200390476Y-114015000D02*
X200438095Y-114062619D01*
X200438095Y-114062619D02*
X200485714Y-114157857D01*
X200485714Y-114157857D02*
X200485714Y-114253095D01*
X200485714Y-114253095D02*
X200438095Y-114395952D01*
X200438095Y-114395952D02*
X199866667Y-114967380D01*
X199866667Y-114967380D02*
X200485714Y-114967380D01*
%TO.C,C14*%
X151757142Y-83472142D02*
X151709523Y-83519761D01*
X151709523Y-83519761D02*
X151566666Y-83567380D01*
X151566666Y-83567380D02*
X151471428Y-83567380D01*
X151471428Y-83567380D02*
X151328571Y-83519761D01*
X151328571Y-83519761D02*
X151233333Y-83424523D01*
X151233333Y-83424523D02*
X151185714Y-83329285D01*
X151185714Y-83329285D02*
X151138095Y-83138809D01*
X151138095Y-83138809D02*
X151138095Y-82995952D01*
X151138095Y-82995952D02*
X151185714Y-82805476D01*
X151185714Y-82805476D02*
X151233333Y-82710238D01*
X151233333Y-82710238D02*
X151328571Y-82615000D01*
X151328571Y-82615000D02*
X151471428Y-82567380D01*
X151471428Y-82567380D02*
X151566666Y-82567380D01*
X151566666Y-82567380D02*
X151709523Y-82615000D01*
X151709523Y-82615000D02*
X151757142Y-82662619D01*
X152709523Y-83567380D02*
X152138095Y-83567380D01*
X152423809Y-83567380D02*
X152423809Y-82567380D01*
X152423809Y-82567380D02*
X152328571Y-82710238D01*
X152328571Y-82710238D02*
X152233333Y-82805476D01*
X152233333Y-82805476D02*
X152138095Y-82853095D01*
X153566666Y-82900714D02*
X153566666Y-83567380D01*
X153328571Y-82519761D02*
X153090476Y-83234047D01*
X153090476Y-83234047D02*
X153709523Y-83234047D01*
D11*
%TO.C,IC6*%
X196800000Y-100225000D02*
X195400000Y-100225000D01*
X195050000Y-100225000D02*
X192750000Y-100225000D01*
X195050000Y-97225000D02*
X195050000Y-100225000D01*
X192750000Y-100225000D02*
X192750000Y-97225000D01*
X192750000Y-97225000D02*
X195050000Y-97225000D01*
D15*
%TO.C,C7*%
X197823752Y-103710000D02*
X197301248Y-103710000D01*
X197823752Y-102240000D02*
X197301248Y-102240000D01*
%TO.C,TP5*%
X200700000Y-82800000D02*
G75*
G03*
X200700000Y-82800000I-700000J0D01*
G01*
%TO.C,R10*%
X189485000Y-88272936D02*
X189485000Y-88727064D01*
X188015000Y-88272936D02*
X188015000Y-88727064D01*
%TO.C,R12*%
X154515000Y-106477064D02*
X154515000Y-106022936D01*
X155985000Y-106477064D02*
X155985000Y-106022936D01*
D11*
%TO.C,IC7*%
X199836000Y-98530000D02*
X201363000Y-98530000D01*
X201713000Y-98658000D02*
X204909000Y-98658000D01*
X201713000Y-103562000D02*
X201713000Y-98658000D01*
X204909000Y-98658000D02*
X204909000Y-103562000D01*
X204909000Y-103562000D02*
X201713000Y-103562000D01*
D15*
%TO.C,J4*%
X200660000Y-88392000D02*
X201930000Y-88392000D01*
X200660000Y-89662000D02*
X200660000Y-88392000D01*
X202972929Y-91822000D02*
X203427071Y-91822000D01*
X202972929Y-92582000D02*
X203427071Y-92582000D01*
X202972929Y-94362000D02*
X203427071Y-94362000D01*
X202972929Y-95122000D02*
X203427071Y-95122000D01*
X203040000Y-89282000D02*
X203427071Y-89282000D01*
X203040000Y-90042000D02*
X203427071Y-90042000D01*
%TO.C,R14*%
X156515000Y-104477064D02*
X156515000Y-104022936D01*
X157985000Y-104477064D02*
X157985000Y-104022936D01*
%TO.C,C8*%
X198367000Y-111522748D02*
X198367000Y-112045252D01*
X196897000Y-111522748D02*
X196897000Y-112045252D01*
%TO.C,R16*%
X157985000Y-117772936D02*
X157985000Y-118227064D01*
X156515000Y-117772936D02*
X156515000Y-118227064D01*
%TO.C,R8*%
X155772936Y-91515000D02*
X156227064Y-91515000D01*
X155772936Y-92985000D02*
X156227064Y-92985000D01*
%TO.C,C13*%
X155985000Y-115526248D02*
X155985000Y-116048752D01*
X154515000Y-115526248D02*
X154515000Y-116048752D01*
D11*
%TO.C,IC5*%
X190600000Y-109825000D02*
X190600000Y-108425000D01*
X190600000Y-108075000D02*
X190600000Y-105775000D01*
X193600000Y-108075000D02*
X190600000Y-108075000D01*
X190600000Y-105775000D02*
X193600000Y-105775000D01*
X193600000Y-105775000D02*
X193600000Y-108075000D01*
D15*
%TO.C,C15*%
X191876248Y-101990000D02*
X192398752Y-101990000D01*
X191876248Y-103460000D02*
X192398752Y-103460000D01*
%TO.C,TP3*%
X190050000Y-100725000D02*
G75*
G03*
X190050000Y-100725000I-700000J0D01*
G01*
%TO.C,R4*%
X204572936Y-104290000D02*
X205027064Y-104290000D01*
X204572936Y-105760000D02*
X205027064Y-105760000D01*
%TO.C,C10*%
X204568748Y-110215000D02*
X205091252Y-110215000D01*
X204568748Y-111685000D02*
X205091252Y-111685000D01*
%TO.C,R3*%
X204572936Y-108240000D02*
X205027064Y-108240000D01*
X204572936Y-109710000D02*
X205027064Y-109710000D01*
%TO.C,C4*%
X196729752Y-83035000D02*
X196207248Y-83035000D01*
X196729752Y-81565000D02*
X196207248Y-81565000D01*
%TO.C,JP1*%
X156605000Y-98920000D02*
X156605000Y-100250000D01*
X155275000Y-98920000D02*
X156605000Y-98920000D01*
X154005000Y-98920000D02*
X148865000Y-98920000D01*
X154005000Y-98920000D02*
X154005000Y-101580000D01*
X148865000Y-98920000D02*
X148865000Y-101580000D01*
X154005000Y-101580000D02*
X148865000Y-101580000D01*
%TO.C,R5*%
X208905000Y-102122936D02*
X208905000Y-102577064D01*
X207435000Y-102122936D02*
X207435000Y-102577064D01*
%TO.C,TP2*%
X193900000Y-111200000D02*
G75*
G03*
X193900000Y-111200000I-700000J0D01*
G01*
D14*
%TO.C,J1*%
X143865000Y-105427500D02*
X140065000Y-105427500D01*
X149265000Y-105444500D02*
X146765000Y-105427500D01*
X138165000Y-106902500D02*
X138165000Y-118002500D01*
X152765000Y-118602500D02*
X152765000Y-106702500D01*
X151365000Y-119370500D02*
X147465000Y-119370500D01*
X145465000Y-119370500D02*
X139715000Y-119377500D01*
X140715000Y-119902500D02*
X140715000Y-119902500D01*
X140715000Y-120002500D02*
X140715000Y-120002500D01*
X140715000Y-120002500D02*
G75*
G03*
X140715000Y-119902500I0J50000D01*
G01*
X140715000Y-119902500D02*
G75*
G03*
X140715000Y-120002500I0J-50000D01*
G01*
D16*
%TO.C,U1*%
X158770000Y-69445000D02*
X186670000Y-69445000D01*
X158770000Y-123845000D02*
X158770000Y-69445000D01*
X186670000Y-69445000D02*
X186670000Y-123845000D01*
X186670000Y-123845000D02*
X158770000Y-123845000D01*
D11*
X158220000Y-76835000D02*
G75*
G03*
X158220000Y-76835000I-100000J0D01*
G01*
D15*
%TO.C,TP1*%
X191900000Y-111200000D02*
G75*
G03*
X191900000Y-111200000I-700000J0D01*
G01*
%TO.C,R6*%
X208905000Y-105932936D02*
X208905000Y-106387064D01*
X207435000Y-105932936D02*
X207435000Y-106387064D01*
D11*
%TO.C,IC3*%
X194985000Y-104044000D02*
X196460000Y-104044000D01*
X196810000Y-104394000D02*
X200510000Y-104394000D01*
X196810000Y-109394000D02*
X196810000Y-104394000D01*
X200510000Y-104394000D02*
X200510000Y-109394000D01*
X200510000Y-109394000D02*
X196810000Y-109394000D01*
D15*
%TO.C,R11*%
X192827064Y-96460000D02*
X192372936Y-96460000D01*
X192827064Y-94990000D02*
X192372936Y-94990000D01*
%TO.C,R1*%
X196335000Y-111526936D02*
X196335000Y-111981064D01*
X194865000Y-111526936D02*
X194865000Y-111981064D01*
%TO.C,R15*%
X156515000Y-113727064D02*
X156515000Y-113272936D01*
X157985000Y-113727064D02*
X157985000Y-113272936D01*
D11*
%TO.C,IC2*%
X194831000Y-83660000D02*
X196031000Y-83660000D01*
X196381000Y-83710000D02*
X196981000Y-83710000D01*
X196381000Y-86610000D02*
X196381000Y-83710000D01*
X196981000Y-83710000D02*
X196981000Y-86610000D01*
X196981000Y-86610000D02*
X196381000Y-86610000D01*
D15*
%TO.C,R9*%
X188015000Y-83227064D02*
X188015000Y-82772936D01*
X189485000Y-83227064D02*
X189485000Y-82772936D01*
%TO.C,R7*%
X196372936Y-94990000D02*
X196827064Y-94990000D01*
X196372936Y-96460000D02*
X196827064Y-96460000D01*
D14*
%TO.C,IC8*%
X152040000Y-88900000D02*
X152040000Y-88900000D01*
X152140000Y-88900000D02*
X152140000Y-88900000D01*
D11*
X152740000Y-90040000D02*
X157140000Y-90040000D01*
D14*
X152140000Y-88900000D02*
G75*
G03*
X152040000Y-88900000I-50000J0D01*
G01*
X152040000Y-88900000D02*
G75*
G03*
X152140000Y-88900000I50000J0D01*
G01*
D15*
%TO.C,C16*%
X207465000Y-98798752D02*
X207465000Y-98276248D01*
X208935000Y-98798752D02*
X208935000Y-98276248D01*
%TO.C,C5*%
X157580000Y-79346248D02*
X157580000Y-79868752D01*
X156110000Y-79346248D02*
X156110000Y-79868752D01*
%TO.C,C12*%
X197615000Y-99023752D02*
X197615000Y-98501248D01*
X199085000Y-99023752D02*
X199085000Y-98501248D01*
%TO.C,C1*%
X192791000Y-85333752D02*
X192791000Y-84811248D01*
X194261000Y-85333752D02*
X194261000Y-84811248D01*
%TO.C,C11*%
X204568748Y-106265000D02*
X205091252Y-106265000D01*
X204568748Y-107735000D02*
X205091252Y-107735000D01*
%TO.C,J2*%
X142660000Y-87640000D02*
X142660000Y-89700000D01*
X140950000Y-87640000D02*
X142660000Y-87640000D01*
X136840000Y-87640000D02*
X138450000Y-87640000D01*
X136840000Y-87640000D02*
X136840000Y-95360000D01*
X142660000Y-89700000D02*
X143250000Y-89700000D01*
X142660000Y-95360000D02*
X142660000Y-93300000D01*
X140950000Y-95360000D02*
X142660000Y-95360000D01*
X136840000Y-95360000D02*
X138450000Y-95360000D01*
%TO.C,C9*%
X202385000Y-111522748D02*
X202385000Y-112045252D01*
X200915000Y-111522748D02*
X200915000Y-112045252D01*
%TO.C,R2*%
X200385000Y-111526936D02*
X200385000Y-111981064D01*
X198915000Y-111526936D02*
X198915000Y-111981064D01*
%TO.C,C14*%
X156238752Y-84555000D02*
X155716248Y-84555000D01*
X156238752Y-83085000D02*
X155716248Y-83085000D01*
%TD*%
M02*
