%TF.GenerationSoftware,KiCad,Pcbnew,(7.0.0)*%
%TF.CreationDate,2023-06-14T15:09:39+02:00*%
%TF.ProjectId,PEE50_voltametrie,50454535-305f-4766-9f6c-74616d657472,rev?*%
%TF.SameCoordinates,Original*%
%TF.FileFunction,Soldermask,Bot*%
%TF.FilePolarity,Negative*%
%FSLAX46Y46*%
G04 Gerber Fmt 4.6, Leading zero omitted, Abs format (unit mm)*
G04 Created by KiCad (PCBNEW (7.0.0)) date 2023-06-14 15:09:39*
%MOMM*%
%LPD*%
G01*
G04 APERTURE LIST*
%ADD10C,5.600000*%
%ADD11R,1.700000X1.700000*%
%ADD12O,1.700000X1.700000*%
%ADD13R,1.560000X1.560000*%
%ADD14C,1.560000*%
%ADD15C,1.100000*%
G04 APERTURE END LIST*
D10*
%TO.C,H1*%
X140000000Y-72000000D03*
%TD*%
D11*
%TO.C,J4*%
X201929999Y-89661999D03*
D12*
X204469999Y-89661999D03*
X201929999Y-92201999D03*
X204469999Y-92201999D03*
X201929999Y-94741999D03*
X204469999Y-94741999D03*
%TD*%
D10*
%TO.C,H4*%
X205000000Y-127000000D03*
%TD*%
D11*
%TO.C,JP1*%
X155274999Y-100249999D03*
D12*
X152734999Y-100249999D03*
X150194999Y-100249999D03*
%TD*%
D13*
%TO.C,U1*%
X160019999Y-76834999D03*
D14*
X160020000Y-79375000D03*
X160020000Y-81915000D03*
X160020000Y-84455000D03*
X160020000Y-86995000D03*
X160020000Y-89535000D03*
X160020000Y-92075000D03*
X160020000Y-94615000D03*
X160020000Y-97155000D03*
X160020000Y-99695000D03*
X160020000Y-102235000D03*
X160020000Y-104775000D03*
X160020000Y-107315000D03*
X160020000Y-109855000D03*
X160020000Y-112395000D03*
X160020000Y-114935000D03*
X160020000Y-117475000D03*
X160020000Y-120015000D03*
X160020000Y-122555000D03*
X185420000Y-76835000D03*
X185420000Y-79375000D03*
X185420000Y-81915000D03*
X185420000Y-84455000D03*
X185420000Y-86995000D03*
X185420000Y-89535000D03*
X185420000Y-92075000D03*
X185420000Y-94615000D03*
X185420000Y-97155000D03*
X185420000Y-99695000D03*
X185420000Y-102235000D03*
X185420000Y-104775000D03*
X185420000Y-107315000D03*
X185420000Y-109855000D03*
X185420000Y-112395000D03*
X185420000Y-114935000D03*
X185420000Y-117475000D03*
X185420000Y-120015000D03*
X185420000Y-122555000D03*
%TD*%
D10*
%TO.C,H3*%
X140000000Y-127000000D03*
%TD*%
%TO.C,H2*%
X205000000Y-72000000D03*
%TD*%
D15*
%TO.C,IC8*%
X153670000Y-88900000D03*
X154940000Y-88900000D03*
X156210000Y-88900000D03*
%TD*%
M02*
