%TF.GenerationSoftware,KiCad,Pcbnew,(7.0.0)*%
%TF.CreationDate,2023-06-14T15:09:39+02:00*%
%TF.ProjectId,PEE50_voltametrie,50454535-305f-4766-9f6c-74616d657472,rev?*%
%TF.SameCoordinates,Original*%
%TF.FileFunction,Legend,Bot*%
%TF.FilePolarity,Positive*%
%FSLAX46Y46*%
G04 Gerber Fmt 4.6, Leading zero omitted, Abs format (unit mm)*
G04 Created by KiCad (PCBNEW (7.0.0)) date 2023-06-14 15:09:39*
%MOMM*%
%LPD*%
G01*
G04 APERTURE LIST*
%ADD10C,0.300000*%
G04 APERTURE END LIST*
D10*
G36*
X174664436Y-96230852D02*
G01*
X174708150Y-96274567D01*
X174752857Y-96363981D01*
X174752857Y-96507447D01*
X174708151Y-96596857D01*
X174671145Y-96633863D01*
X174581731Y-96678571D01*
X174438267Y-96678571D01*
X174348854Y-96633864D01*
X174302173Y-96587184D01*
X174289519Y-96570311D01*
X174566807Y-96237565D01*
X174574661Y-96234137D01*
X174594647Y-96204157D01*
X174603326Y-96193743D01*
X174604547Y-96190926D01*
X174664436Y-96230852D01*
G37*
G36*
X174505339Y-95511803D02*
G01*
X174538571Y-95578267D01*
X174538571Y-95661371D01*
X174504475Y-95763658D01*
X174426991Y-95712003D01*
X174383278Y-95668289D01*
X174338571Y-95578875D01*
X174338571Y-95578268D01*
X174371803Y-95511802D01*
X174438267Y-95478571D01*
X174438874Y-95478571D01*
X174505339Y-95511803D01*
G37*
G36*
X175924286Y-97819286D02*
G01*
X172288571Y-97819286D01*
X172288571Y-96850820D01*
X173533829Y-96850820D01*
X173570422Y-96930947D01*
X173644527Y-96978571D01*
X173751925Y-96978571D01*
X173787688Y-96982432D01*
X173815102Y-96968724D01*
X173844520Y-96960087D01*
X173853802Y-96949374D01*
X173953115Y-96899717D01*
X173977779Y-96894352D01*
X174006999Y-96865131D01*
X174037270Y-96836975D01*
X174037996Y-96834134D01*
X174080504Y-96791626D01*
X174081512Y-96792969D01*
X174090145Y-96799420D01*
X174140633Y-96849906D01*
X174153523Y-96871609D01*
X174190497Y-96890096D01*
X174226770Y-96909903D01*
X174229692Y-96909693D01*
X174328551Y-96959123D01*
X174358813Y-96978571D01*
X174389466Y-96978571D01*
X174419638Y-96984001D01*
X174432730Y-96978571D01*
X174609066Y-96978571D01*
X174644830Y-96982432D01*
X174672245Y-96968724D01*
X174701662Y-96960087D01*
X174710943Y-96949375D01*
X174810261Y-96899716D01*
X174834922Y-96894352D01*
X174864133Y-96865140D01*
X174894413Y-96836975D01*
X174895139Y-96834134D01*
X174924193Y-96805080D01*
X174945895Y-96792191D01*
X174964378Y-96755224D01*
X174984188Y-96718946D01*
X174983978Y-96716023D01*
X175033409Y-96617162D01*
X175052857Y-96586901D01*
X175052857Y-96556248D01*
X175058287Y-96526076D01*
X175052857Y-96512984D01*
X175052857Y-96336646D01*
X175056718Y-96300882D01*
X175043009Y-96273466D01*
X175034373Y-96244051D01*
X175023661Y-96234769D01*
X174974002Y-96135454D01*
X174968638Y-96110793D01*
X174939423Y-96081578D01*
X174911261Y-96051301D01*
X174908420Y-96050574D01*
X174886124Y-96028278D01*
X174879852Y-96013909D01*
X174855563Y-95997716D01*
X174850816Y-95992969D01*
X174837693Y-95985803D01*
X174763206Y-95936145D01*
X174824926Y-95750988D01*
X174838571Y-95729758D01*
X174838571Y-95688446D01*
X174840066Y-95647121D01*
X174838571Y-95644599D01*
X174838571Y-95550932D01*
X174842432Y-95515168D01*
X174828723Y-95487752D01*
X174820087Y-95458337D01*
X174809375Y-95449055D01*
X174768396Y-95367099D01*
X174768602Y-95361270D01*
X174748874Y-95328056D01*
X174741660Y-95313627D01*
X174737909Y-95309595D01*
X174723618Y-95285533D01*
X174708494Y-95277971D01*
X174696975Y-95265587D01*
X174669859Y-95258653D01*
X174548594Y-95198021D01*
X174518329Y-95178571D01*
X174487676Y-95178571D01*
X174457504Y-95173141D01*
X174444412Y-95178571D01*
X174410932Y-95178571D01*
X174375168Y-95174710D01*
X174347752Y-95188418D01*
X174318337Y-95197055D01*
X174309055Y-95207766D01*
X174227099Y-95248745D01*
X174221270Y-95248540D01*
X174188056Y-95268267D01*
X174173627Y-95275482D01*
X174169595Y-95279232D01*
X174145533Y-95293524D01*
X174137971Y-95308647D01*
X174125587Y-95320167D01*
X174118653Y-95347282D01*
X174058021Y-95468547D01*
X174038571Y-95498813D01*
X174038571Y-95529466D01*
X174033141Y-95559638D01*
X174038571Y-95572730D01*
X174038571Y-95606210D01*
X174034710Y-95641973D01*
X174048417Y-95669387D01*
X174057055Y-95698805D01*
X174067767Y-95708087D01*
X174117425Y-95807401D01*
X174122790Y-95832063D01*
X174152004Y-95861277D01*
X174180167Y-95891555D01*
X174183007Y-95892281D01*
X174205303Y-95914577D01*
X174211576Y-95928947D01*
X174235864Y-95945139D01*
X174240612Y-95949887D01*
X174253734Y-95957052D01*
X174354184Y-96024019D01*
X174353924Y-96024408D01*
X174106265Y-96321600D01*
X174052857Y-96161373D01*
X174052857Y-96021289D01*
X174034373Y-95958337D01*
X173967800Y-95900652D01*
X173880608Y-95888115D01*
X173800481Y-95924708D01*
X173752857Y-95998813D01*
X173752857Y-96166909D01*
X173746627Y-96191364D01*
X173759689Y-96230552D01*
X173771341Y-96270234D01*
X173773556Y-96272153D01*
X173826035Y-96429592D01*
X173827859Y-96454765D01*
X173852649Y-96487819D01*
X173876245Y-96521771D01*
X173878954Y-96522891D01*
X173898677Y-96549189D01*
X173814003Y-96633863D01*
X173724590Y-96678571D01*
X173667003Y-96678571D01*
X173604051Y-96697055D01*
X173546366Y-96763628D01*
X173533829Y-96850820D01*
X172288571Y-96850820D01*
X172288571Y-94240714D01*
X175924286Y-94240714D01*
X175924286Y-97819286D01*
G37*
G36*
X182998289Y-72028278D02*
G01*
X183035293Y-72065282D01*
X183088470Y-72171636D01*
X183151428Y-72423468D01*
X183151428Y-72743678D01*
X183088472Y-72995501D01*
X183035294Y-73101857D01*
X182998288Y-73138863D01*
X182908874Y-73183571D01*
X182836838Y-73183571D01*
X182747427Y-73138865D01*
X182710420Y-73101859D01*
X182657242Y-72995505D01*
X182594285Y-72743677D01*
X182594285Y-72423465D01*
X182657240Y-72171642D01*
X182710421Y-72065282D01*
X182747425Y-72028277D01*
X182836838Y-71983571D01*
X182908875Y-71983571D01*
X182998289Y-72028278D01*
G37*
G36*
X173769718Y-72028278D02*
G01*
X173806722Y-72065282D01*
X173859899Y-72171636D01*
X173922857Y-72423468D01*
X173922857Y-72743678D01*
X173859901Y-72995501D01*
X173806723Y-73101857D01*
X173769717Y-73138863D01*
X173680303Y-73183571D01*
X173608267Y-73183571D01*
X173518856Y-73138865D01*
X173481849Y-73101859D01*
X173428671Y-72995505D01*
X173365714Y-72743677D01*
X173365714Y-72423465D01*
X173428669Y-72171642D01*
X173481850Y-72065282D01*
X173518854Y-72028277D01*
X173608267Y-71983571D01*
X173680304Y-71983571D01*
X173769718Y-72028278D01*
G37*
G36*
X167369720Y-72528278D02*
G01*
X167406723Y-72565281D01*
X167451430Y-72654695D01*
X167451430Y-73012447D01*
X167406722Y-73101861D01*
X167369720Y-73138863D01*
X167280306Y-73183571D01*
X167136840Y-73183571D01*
X167047429Y-73138865D01*
X167010422Y-73101859D01*
X166965716Y-73012447D01*
X166965716Y-72654696D01*
X167010423Y-72565282D01*
X167047427Y-72528277D01*
X167136840Y-72483571D01*
X167280305Y-72483571D01*
X167369720Y-72528278D01*
G37*
G36*
X164418198Y-72945374D02*
G01*
X164451430Y-73011838D01*
X164451430Y-73083875D01*
X164418197Y-73150339D01*
X164351735Y-73183571D01*
X164065412Y-73183571D01*
X164037145Y-73169438D01*
X164037145Y-72915837D01*
X164046784Y-72917572D01*
X164059876Y-72912142D01*
X164351734Y-72912142D01*
X164418198Y-72945374D01*
G37*
G36*
X159061055Y-72516803D02*
G01*
X159094287Y-72583267D01*
X159094287Y-72650601D01*
X158687057Y-72569154D01*
X158713233Y-72516802D01*
X158779697Y-72483571D01*
X158994591Y-72483571D01*
X159061055Y-72516803D01*
G37*
G36*
X155275341Y-72516803D02*
G01*
X155308573Y-72583267D01*
X155308573Y-72650601D01*
X154901343Y-72569154D01*
X154927519Y-72516802D01*
X154993983Y-72483571D01*
X155208877Y-72483571D01*
X155275341Y-72516803D01*
G37*
G36*
X188722857Y-72469285D02*
G01*
X188336838Y-72469285D01*
X188247424Y-72424578D01*
X188210419Y-72387573D01*
X188165714Y-72298161D01*
X188165714Y-72154695D01*
X188210420Y-72065281D01*
X188247424Y-72028277D01*
X188336838Y-71983571D01*
X188722857Y-71983571D01*
X188722857Y-72469285D01*
G37*
G36*
X189894286Y-74324286D02*
G01*
X153344288Y-74324286D01*
X153344288Y-72682184D01*
X154588188Y-72682184D01*
X154594288Y-72708119D01*
X154594288Y-72712282D01*
X154599209Y-72729043D01*
X154608356Y-72767931D01*
X154611528Y-72770998D01*
X154612772Y-72775234D01*
X154642969Y-72801399D01*
X154671682Y-72829163D01*
X154676009Y-72830028D01*
X154679345Y-72832919D01*
X154718897Y-72838606D01*
X155308573Y-72956542D01*
X155308573Y-73083875D01*
X155275340Y-73150339D01*
X155208878Y-73183571D01*
X154993983Y-73183571D01*
X154863507Y-73118333D01*
X154798935Y-73106712D01*
X154717568Y-73140459D01*
X154667361Y-73212839D01*
X154664256Y-73300872D01*
X154709239Y-73376609D01*
X154884267Y-73464123D01*
X154914529Y-73483571D01*
X154945182Y-73483571D01*
X154975354Y-73489001D01*
X154988446Y-73483571D01*
X155236213Y-73483571D01*
X155271976Y-73487432D01*
X155299390Y-73473724D01*
X155328808Y-73465087D01*
X155338090Y-73454374D01*
X155420045Y-73413396D01*
X155425875Y-73413602D01*
X155459088Y-73393874D01*
X155473518Y-73386660D01*
X155477549Y-73382909D01*
X155501612Y-73368618D01*
X155508351Y-73355139D01*
X155951431Y-73355139D01*
X155969915Y-73418091D01*
X156036488Y-73475776D01*
X156123680Y-73488313D01*
X156203807Y-73451720D01*
X156251431Y-73377615D01*
X156251431Y-72355820D01*
X156446688Y-72355820D01*
X156483281Y-72435947D01*
X156557386Y-72483571D01*
X156708877Y-72483571D01*
X156798291Y-72528278D01*
X156835295Y-72565282D01*
X156880002Y-72654695D01*
X156880002Y-73355139D01*
X156898486Y-73418091D01*
X156965059Y-73475776D01*
X157052251Y-73488313D01*
X157132378Y-73451720D01*
X157180002Y-73377615D01*
X157180002Y-73355820D01*
X157375260Y-73355820D01*
X157411853Y-73435947D01*
X157485958Y-73483571D01*
X157664784Y-73483571D01*
X157700547Y-73487432D01*
X157727961Y-73473724D01*
X157757379Y-73465087D01*
X157766661Y-73454374D01*
X157848616Y-73413396D01*
X157854446Y-73413602D01*
X157887664Y-73393872D01*
X157902089Y-73386660D01*
X157906118Y-73382911D01*
X157930183Y-73368619D01*
X157937745Y-73353493D01*
X157950129Y-73341975D01*
X157957061Y-73314861D01*
X158017697Y-73193590D01*
X158037145Y-73163329D01*
X158037145Y-73132676D01*
X158042575Y-73102504D01*
X158037145Y-73089412D01*
X158037145Y-72682184D01*
X158373902Y-72682184D01*
X158380002Y-72708119D01*
X158380002Y-72712282D01*
X158384923Y-72729043D01*
X158394070Y-72767931D01*
X158397242Y-72770998D01*
X158398486Y-72775234D01*
X158428683Y-72801399D01*
X158457396Y-72829163D01*
X158461723Y-72830028D01*
X158465059Y-72832919D01*
X158504611Y-72838606D01*
X159094287Y-72956542D01*
X159094287Y-73083875D01*
X159061054Y-73150339D01*
X158994592Y-73183571D01*
X158779697Y-73183571D01*
X158649221Y-73118333D01*
X158584649Y-73106712D01*
X158503282Y-73140459D01*
X158453075Y-73212839D01*
X158449970Y-73300872D01*
X158494953Y-73376609D01*
X158669981Y-73464123D01*
X158700243Y-73483571D01*
X158730896Y-73483571D01*
X158761068Y-73489001D01*
X158774160Y-73483571D01*
X159021927Y-73483571D01*
X159057690Y-73487432D01*
X159085104Y-73473724D01*
X159114522Y-73465087D01*
X159123804Y-73454374D01*
X159205759Y-73413396D01*
X159211589Y-73413602D01*
X159244802Y-73393874D01*
X159259232Y-73386660D01*
X159263263Y-73382909D01*
X159287326Y-73368618D01*
X159294887Y-73353494D01*
X159307272Y-73341975D01*
X159314205Y-73314858D01*
X159374839Y-73193590D01*
X159394287Y-73163329D01*
X159394287Y-73132677D01*
X159399717Y-73102503D01*
X159394287Y-73089411D01*
X159394287Y-72859338D01*
X159400388Y-72842102D01*
X159394287Y-72816162D01*
X159394287Y-72564638D01*
X159731714Y-72564638D01*
X159737144Y-72577730D01*
X159737144Y-73355139D01*
X159755628Y-73418091D01*
X159822201Y-73475776D01*
X159909393Y-73488313D01*
X159989520Y-73451720D01*
X160037144Y-73377615D01*
X160037144Y-72583268D01*
X160070376Y-72516802D01*
X160136840Y-72483571D01*
X160280305Y-72483571D01*
X160346770Y-72516803D01*
X160380002Y-72583267D01*
X160380002Y-73355139D01*
X160398486Y-73418091D01*
X160465059Y-73475776D01*
X160552251Y-73488313D01*
X160632378Y-73451720D01*
X160680002Y-73377615D01*
X160680002Y-72583267D01*
X160713233Y-72516802D01*
X160779697Y-72483571D01*
X160923162Y-72483571D01*
X161012577Y-72528278D01*
X161022859Y-72538560D01*
X161022859Y-73355139D01*
X161041343Y-73418091D01*
X161107916Y-73475776D01*
X161195108Y-73488313D01*
X161275235Y-73451720D01*
X161322859Y-73377615D01*
X161322859Y-72564638D01*
X161731714Y-72564638D01*
X161737144Y-72577730D01*
X161737144Y-73355139D01*
X161755628Y-73418091D01*
X161822201Y-73475776D01*
X161909393Y-73488313D01*
X161989520Y-73451720D01*
X162037144Y-73377615D01*
X162037144Y-72583268D01*
X162070376Y-72516802D01*
X162136840Y-72483571D01*
X162280305Y-72483571D01*
X162346770Y-72516803D01*
X162380002Y-72583267D01*
X162380002Y-73355139D01*
X162398486Y-73418091D01*
X162465059Y-73475776D01*
X162552251Y-73488313D01*
X162632378Y-73451720D01*
X162680002Y-73377615D01*
X162680002Y-72583267D01*
X162713233Y-72516802D01*
X162779697Y-72483571D01*
X162923162Y-72483571D01*
X163012577Y-72528278D01*
X163022859Y-72538560D01*
X163022859Y-73355139D01*
X163041343Y-73418091D01*
X163107916Y-73475776D01*
X163195108Y-73488313D01*
X163275235Y-73451720D01*
X163322859Y-73377615D01*
X163322859Y-72564639D01*
X163731715Y-72564639D01*
X163737145Y-72577731D01*
X163737145Y-72688037D01*
X163735685Y-72729444D01*
X163737145Y-72731902D01*
X163737145Y-73259478D01*
X163735685Y-73300872D01*
X163737145Y-73303330D01*
X163737145Y-73355139D01*
X163755629Y-73418091D01*
X163822202Y-73475776D01*
X163909394Y-73488313D01*
X163958465Y-73465902D01*
X163985958Y-73483571D01*
X164016611Y-73483571D01*
X164046783Y-73489001D01*
X164059875Y-73483571D01*
X164379070Y-73483571D01*
X164414833Y-73487432D01*
X164442247Y-73473724D01*
X164471665Y-73465087D01*
X164480947Y-73454374D01*
X164562902Y-73413396D01*
X164568732Y-73413602D01*
X164601945Y-73393874D01*
X164616375Y-73386660D01*
X164620406Y-73382909D01*
X164644469Y-73368618D01*
X164650867Y-73355820D01*
X164875260Y-73355820D01*
X164911853Y-73435947D01*
X164985958Y-73483571D01*
X165164784Y-73483571D01*
X165200547Y-73487432D01*
X165227961Y-73473724D01*
X165257379Y-73465087D01*
X165266661Y-73454374D01*
X165348616Y-73413396D01*
X165354446Y-73413602D01*
X165387664Y-73393872D01*
X165402089Y-73386660D01*
X165406118Y-73382911D01*
X165430183Y-73368619D01*
X165437745Y-73353493D01*
X165450129Y-73341975D01*
X165450869Y-73339081D01*
X165802338Y-73339081D01*
X165830118Y-73422674D01*
X165898682Y-73477977D01*
X165986261Y-73487432D01*
X166134330Y-73413396D01*
X166140160Y-73413602D01*
X166173378Y-73393872D01*
X166187803Y-73386660D01*
X166191832Y-73382911D01*
X166215897Y-73368619D01*
X166223459Y-73353493D01*
X166235843Y-73341975D01*
X166242775Y-73314861D01*
X166303411Y-73193590D01*
X166322859Y-73163329D01*
X166322859Y-73132676D01*
X166328289Y-73102504D01*
X166322859Y-73089412D01*
X166322859Y-72636066D01*
X166660286Y-72636066D01*
X166665716Y-72649158D01*
X166665716Y-73039782D01*
X166661855Y-73075545D01*
X166675562Y-73102959D01*
X166684200Y-73132377D01*
X166694912Y-73141659D01*
X166744569Y-73240972D01*
X166749935Y-73265636D01*
X166779155Y-73294856D01*
X166807312Y-73325127D01*
X166810152Y-73325853D01*
X166839206Y-73354907D01*
X166852096Y-73376609D01*
X166889062Y-73395092D01*
X166925341Y-73414902D01*
X166928263Y-73414692D01*
X167027124Y-73464123D01*
X167057386Y-73483571D01*
X167088039Y-73483571D01*
X167118211Y-73489001D01*
X167131303Y-73483571D01*
X167307641Y-73483571D01*
X167343404Y-73487432D01*
X167370818Y-73473724D01*
X167400236Y-73465087D01*
X167409518Y-73454374D01*
X167508832Y-73404716D01*
X167533494Y-73399352D01*
X167562708Y-73370137D01*
X167592986Y-73341975D01*
X167593712Y-73339134D01*
X167622768Y-73310079D01*
X167644469Y-73297190D01*
X167662948Y-73260231D01*
X167682762Y-73223946D01*
X167682552Y-73221021D01*
X167731982Y-73122162D01*
X167751430Y-73091901D01*
X167751430Y-73061249D01*
X167756860Y-73031075D01*
X167751430Y-73017983D01*
X167751430Y-72627361D01*
X167755291Y-72591598D01*
X167741583Y-72564183D01*
X167732946Y-72534765D01*
X167722234Y-72525483D01*
X167672576Y-72426165D01*
X167667211Y-72401505D01*
X167638003Y-72372297D01*
X167609835Y-72342015D01*
X167606994Y-72341288D01*
X167577936Y-72312231D01*
X167565049Y-72290533D01*
X167528099Y-72272058D01*
X167491803Y-72252239D01*
X167488879Y-72252448D01*
X167390025Y-72203021D01*
X167359760Y-72183571D01*
X167329107Y-72183571D01*
X167298935Y-72178141D01*
X167285843Y-72183571D01*
X167109505Y-72183571D01*
X167073741Y-72179710D01*
X167046325Y-72193418D01*
X167016910Y-72202055D01*
X167007628Y-72212766D01*
X166908313Y-72262424D01*
X166883650Y-72267790D01*
X166854419Y-72297020D01*
X166824160Y-72325167D01*
X166823433Y-72328006D01*
X166794376Y-72357064D01*
X166772678Y-72369952D01*
X166754202Y-72406903D01*
X166734384Y-72443197D01*
X166734593Y-72446121D01*
X166685166Y-72544975D01*
X166665716Y-72575241D01*
X166665716Y-72605894D01*
X166660286Y-72636066D01*
X166322859Y-72636066D01*
X166322859Y-71839221D01*
X167873771Y-71839221D01*
X168379117Y-73355262D01*
X168378506Y-73372165D01*
X168392777Y-73396243D01*
X168394519Y-73401467D01*
X168403728Y-73414718D01*
X168423421Y-73447942D01*
X168428633Y-73450554D01*
X168431962Y-73455343D01*
X168467645Y-73470104D01*
X168502175Y-73487408D01*
X168507974Y-73486787D01*
X168513360Y-73489015D01*
X168551357Y-73482142D01*
X168589761Y-73478031D01*
X168594301Y-73474375D01*
X168600042Y-73473337D01*
X168628302Y-73447001D01*
X168658376Y-73422789D01*
X168660219Y-73417257D01*
X168664485Y-73413283D01*
X168674017Y-73375865D01*
X168896807Y-72707495D01*
X170203142Y-72707495D01*
X170208572Y-72720587D01*
X170208572Y-73039782D01*
X170204711Y-73075545D01*
X170218418Y-73102959D01*
X170227056Y-73132377D01*
X170237768Y-73141659D01*
X170287426Y-73240974D01*
X170292792Y-73265637D01*
X170322005Y-73294849D01*
X170350168Y-73325127D01*
X170353009Y-73325853D01*
X170382063Y-73354906D01*
X170394953Y-73376609D01*
X170431927Y-73395096D01*
X170468200Y-73414903D01*
X170471122Y-73414693D01*
X170569981Y-73464123D01*
X170600243Y-73483571D01*
X170630896Y-73483571D01*
X170661068Y-73489001D01*
X170674160Y-73483571D01*
X171064783Y-73483571D01*
X171100546Y-73487432D01*
X171127960Y-73473724D01*
X171157378Y-73465087D01*
X171166660Y-73454374D01*
X171265974Y-73404716D01*
X171290636Y-73399352D01*
X171319850Y-73370137D01*
X171350128Y-73341975D01*
X171350854Y-73339134D01*
X171408460Y-73281530D01*
X171439904Y-73223946D01*
X171433620Y-73136083D01*
X171380831Y-73065563D01*
X171298298Y-73034779D01*
X171212223Y-73053504D01*
X171126862Y-73138863D01*
X171037448Y-73183571D01*
X170679697Y-73183571D01*
X170590284Y-73138864D01*
X170553278Y-73101859D01*
X170508572Y-73012447D01*
X170508572Y-72726125D01*
X170553279Y-72636711D01*
X170590284Y-72599705D01*
X170679697Y-72555000D01*
X170814921Y-72555000D01*
X170815253Y-72555211D01*
X170858883Y-72555000D01*
X170880140Y-72555000D01*
X170880495Y-72554895D01*
X170903340Y-72554785D01*
X170921877Y-72542745D01*
X170943092Y-72536516D01*
X170958054Y-72519247D01*
X170977214Y-72506804D01*
X170986300Y-72486649D01*
X171000777Y-72469943D01*
X171004028Y-72447329D01*
X171013419Y-72426501D01*
X171010167Y-72404636D01*
X171013314Y-72382751D01*
X171003821Y-72361964D01*
X171000461Y-72339371D01*
X170985906Y-72322737D01*
X170976721Y-72302624D01*
X170957497Y-72290270D01*
X170937830Y-72267793D01*
X171630913Y-72267793D01*
X171643976Y-72306984D01*
X171655627Y-72346662D01*
X171657842Y-72348581D01*
X171713714Y-72516197D01*
X171721362Y-72551350D01*
X171743038Y-72573026D01*
X171760533Y-72598199D01*
X171773628Y-72603616D01*
X172353583Y-73183571D01*
X171765575Y-73183571D01*
X171702623Y-73202055D01*
X171644938Y-73268628D01*
X171632401Y-73355820D01*
X171668994Y-73435947D01*
X171743099Y-73483571D01*
X172677429Y-73483571D01*
X172682484Y-73486331D01*
X172721074Y-73483571D01*
X172737283Y-73483571D01*
X172742502Y-73482038D01*
X172770347Y-73480047D01*
X172783940Y-73469871D01*
X172800235Y-73465087D01*
X172818517Y-73443987D01*
X172840866Y-73427258D01*
X172846800Y-73411346D01*
X172857920Y-73398514D01*
X172861892Y-73370883D01*
X172871650Y-73344724D01*
X172868040Y-73328130D01*
X172870457Y-73311322D01*
X172858858Y-73285925D01*
X172852925Y-73258649D01*
X172840918Y-73246642D01*
X172833864Y-73231195D01*
X172810376Y-73216100D01*
X172350070Y-72755794D01*
X173059510Y-72755794D01*
X173065714Y-72780610D01*
X173065714Y-72783710D01*
X173070931Y-72801480D01*
X173135141Y-73058317D01*
X173133282Y-73075545D01*
X173145615Y-73100212D01*
X173146853Y-73105161D01*
X173155227Y-73119435D01*
X173215996Y-73240972D01*
X173221362Y-73265636D01*
X173250582Y-73294856D01*
X173278739Y-73325127D01*
X173281579Y-73325853D01*
X173310633Y-73354907D01*
X173323523Y-73376609D01*
X173360489Y-73395092D01*
X173396768Y-73414902D01*
X173399690Y-73414692D01*
X173498551Y-73464123D01*
X173528813Y-73483571D01*
X173559466Y-73483571D01*
X173589638Y-73489001D01*
X173602730Y-73483571D01*
X173707638Y-73483571D01*
X173743402Y-73487432D01*
X173770817Y-73473724D01*
X173800234Y-73465087D01*
X173809515Y-73454375D01*
X173908833Y-73404716D01*
X173933494Y-73399352D01*
X173962705Y-73370140D01*
X173992985Y-73341975D01*
X173993711Y-73339134D01*
X174022765Y-73310080D01*
X174044467Y-73297191D01*
X174062950Y-73260224D01*
X174082760Y-73223946D01*
X174082550Y-73221023D01*
X174123644Y-73138835D01*
X174136268Y-73126966D01*
X174142956Y-73100212D01*
X174145238Y-73095649D01*
X174148169Y-73079358D01*
X174212390Y-72822472D01*
X174222857Y-72806186D01*
X174222857Y-72780606D01*
X174223609Y-72777598D01*
X174222857Y-72759093D01*
X174222857Y-72429687D01*
X174229061Y-72411349D01*
X174222857Y-72386533D01*
X174222857Y-72383432D01*
X174217639Y-72365662D01*
X174193172Y-72267793D01*
X174488055Y-72267793D01*
X174501118Y-72306984D01*
X174512769Y-72346662D01*
X174514984Y-72348581D01*
X174570856Y-72516197D01*
X174578504Y-72551350D01*
X174600180Y-72573026D01*
X174617675Y-72598199D01*
X174630770Y-72603616D01*
X175210725Y-73183571D01*
X174622717Y-73183571D01*
X174559765Y-73202055D01*
X174502080Y-73268628D01*
X174489543Y-73355820D01*
X174526136Y-73435947D01*
X174600241Y-73483571D01*
X175534571Y-73483571D01*
X175539626Y-73486331D01*
X175578216Y-73483571D01*
X175594425Y-73483571D01*
X175599644Y-73482038D01*
X175627489Y-73480047D01*
X175641082Y-73469871D01*
X175657377Y-73465087D01*
X175675659Y-73443987D01*
X175698008Y-73427258D01*
X175703942Y-73411346D01*
X175715062Y-73398514D01*
X175719034Y-73370883D01*
X175724907Y-73355139D01*
X176894286Y-73355139D01*
X176912770Y-73418091D01*
X176979343Y-73475776D01*
X177066535Y-73488313D01*
X177146662Y-73451720D01*
X177194286Y-73377615D01*
X177194286Y-72564639D01*
X177603142Y-72564639D01*
X177608572Y-72577731D01*
X177608572Y-73355139D01*
X177627056Y-73418091D01*
X177693629Y-73475776D01*
X177780821Y-73488313D01*
X177860948Y-73451720D01*
X177908572Y-73377615D01*
X177908572Y-72583267D01*
X177941803Y-72516802D01*
X178008267Y-72483571D01*
X178151732Y-72483571D01*
X178241147Y-72528278D01*
X178251429Y-72538560D01*
X178251429Y-73355139D01*
X178269913Y-73418091D01*
X178336486Y-73475776D01*
X178423678Y-73488313D01*
X178503805Y-73451720D01*
X178551429Y-73377615D01*
X178551429Y-73179561D01*
X178959780Y-73179561D01*
X178965715Y-73206843D01*
X178965715Y-73355139D01*
X178984199Y-73418091D01*
X179050772Y-73475776D01*
X179137964Y-73488313D01*
X179218091Y-73451720D01*
X179221203Y-73446877D01*
X179255694Y-73464123D01*
X179285956Y-73483571D01*
X179316609Y-73483571D01*
X179346781Y-73489001D01*
X179359873Y-73483571D01*
X179536211Y-73483571D01*
X179571974Y-73487432D01*
X179599388Y-73473724D01*
X179628806Y-73465087D01*
X179638088Y-73454374D01*
X179720043Y-73413396D01*
X179725873Y-73413602D01*
X179759091Y-73393872D01*
X179773516Y-73386660D01*
X179777545Y-73382911D01*
X179801610Y-73368619D01*
X179809172Y-73353493D01*
X179821556Y-73341975D01*
X179828488Y-73314861D01*
X179889124Y-73193590D01*
X179908572Y-73163329D01*
X179908572Y-73132676D01*
X179914002Y-73102504D01*
X179908572Y-73089412D01*
X179908572Y-72910651D01*
X180316627Y-72910651D01*
X180329690Y-72949841D01*
X180341341Y-72989520D01*
X180343556Y-72991440D01*
X180399428Y-73159055D01*
X180407076Y-73194207D01*
X180428751Y-73215882D01*
X180446247Y-73241057D01*
X180459343Y-73246474D01*
X180575368Y-73362499D01*
X180597925Y-73390516D01*
X180627003Y-73400208D01*
X180653912Y-73414902D01*
X180668048Y-73413890D01*
X180836154Y-73469926D01*
X180857385Y-73483571D01*
X180898697Y-73483571D01*
X180940022Y-73485066D01*
X180942544Y-73483571D01*
X181065854Y-73483571D01*
X181128806Y-73465087D01*
X181186491Y-73398514D01*
X181199028Y-73311322D01*
X181162435Y-73231195D01*
X181088330Y-73183571D01*
X180925772Y-73183571D01*
X180768170Y-73131037D01*
X180675390Y-73038257D01*
X180622857Y-72880658D01*
X180622857Y-72755794D01*
X182288081Y-72755794D01*
X182294285Y-72780610D01*
X182294285Y-72783710D01*
X182299502Y-72801480D01*
X182363712Y-73058317D01*
X182361853Y-73075545D01*
X182374186Y-73100212D01*
X182375424Y-73105161D01*
X182383798Y-73119435D01*
X182444567Y-73240972D01*
X182449933Y-73265636D01*
X182479153Y-73294856D01*
X182507310Y-73325127D01*
X182510150Y-73325853D01*
X182539204Y-73354907D01*
X182552094Y-73376609D01*
X182589060Y-73395092D01*
X182625339Y-73414902D01*
X182628261Y-73414692D01*
X182727122Y-73464123D01*
X182757384Y-73483571D01*
X182788037Y-73483571D01*
X182818209Y-73489001D01*
X182831301Y-73483571D01*
X182936209Y-73483571D01*
X182971973Y-73487432D01*
X182999388Y-73473724D01*
X183028805Y-73465087D01*
X183038086Y-73454375D01*
X183137404Y-73404716D01*
X183162065Y-73399352D01*
X183191276Y-73370140D01*
X183221556Y-73341975D01*
X183222282Y-73339134D01*
X183251336Y-73310080D01*
X183273038Y-73297191D01*
X183291521Y-73260224D01*
X183311331Y-73223946D01*
X183311121Y-73221023D01*
X183352215Y-73138835D01*
X183364839Y-73126966D01*
X183371527Y-73100212D01*
X183373809Y-73095649D01*
X183376740Y-73079358D01*
X183440961Y-72822472D01*
X183451428Y-72806186D01*
X183451428Y-72780606D01*
X183452180Y-72777598D01*
X183451428Y-72759093D01*
X183451428Y-72707495D01*
X183717426Y-72707495D01*
X183722856Y-72720587D01*
X183722856Y-73039782D01*
X183718995Y-73075545D01*
X183732702Y-73102959D01*
X183741340Y-73132377D01*
X183752052Y-73141659D01*
X183801710Y-73240974D01*
X183807076Y-73265637D01*
X183836289Y-73294849D01*
X183864452Y-73325127D01*
X183867293Y-73325853D01*
X183896347Y-73354906D01*
X183909237Y-73376609D01*
X183946211Y-73395096D01*
X183982484Y-73414903D01*
X183985406Y-73414693D01*
X184084265Y-73464123D01*
X184114527Y-73483571D01*
X184145180Y-73483571D01*
X184175352Y-73489001D01*
X184188444Y-73483571D01*
X184507639Y-73483571D01*
X184543402Y-73487432D01*
X184570816Y-73473724D01*
X184600234Y-73465087D01*
X184609516Y-73454374D01*
X184708829Y-73404717D01*
X184733493Y-73399352D01*
X184762713Y-73370131D01*
X184778099Y-73355820D01*
X185146686Y-73355820D01*
X185183279Y-73435947D01*
X185257384Y-73483571D01*
X186004983Y-73483571D01*
X186037963Y-73488313D01*
X186068269Y-73474472D01*
X186100234Y-73465087D01*
X186107708Y-73456461D01*
X186118090Y-73451720D01*
X186136102Y-73423692D01*
X186157919Y-73398514D01*
X186159543Y-73387216D01*
X186165714Y-73377615D01*
X186165714Y-73355820D01*
X186503829Y-73355820D01*
X186540422Y-73435947D01*
X186614527Y-73483571D01*
X187362126Y-73483571D01*
X187395106Y-73488313D01*
X187425412Y-73474472D01*
X187457377Y-73465087D01*
X187464851Y-73456461D01*
X187475233Y-73451720D01*
X187493245Y-73423692D01*
X187515062Y-73398514D01*
X187516686Y-73387216D01*
X187522857Y-73377615D01*
X187522857Y-73344302D01*
X187527599Y-73311322D01*
X187522857Y-73300939D01*
X187522857Y-72558588D01*
X187527599Y-72525608D01*
X187522857Y-72515225D01*
X187522857Y-72136067D01*
X187860284Y-72136067D01*
X187865714Y-72149159D01*
X187865714Y-72325495D01*
X187861853Y-72361258D01*
X187875560Y-72388672D01*
X187884198Y-72418091D01*
X187894909Y-72427372D01*
X187944567Y-72526688D01*
X187949932Y-72551350D01*
X187979137Y-72580555D01*
X188007309Y-72610841D01*
X188010149Y-72611567D01*
X188039206Y-72640624D01*
X188052095Y-72662324D01*
X188089044Y-72680798D01*
X188125340Y-72700618D01*
X188128264Y-72700408D01*
X188227122Y-72749837D01*
X188257384Y-72769285D01*
X188288036Y-72769285D01*
X188318210Y-72774715D01*
X188331302Y-72769285D01*
X188722857Y-72769285D01*
X188722857Y-73355139D01*
X188741341Y-73418091D01*
X188807914Y-73475776D01*
X188895106Y-73488313D01*
X188975233Y-73451720D01*
X189022857Y-73377615D01*
X189022857Y-72630016D01*
X189027599Y-72597036D01*
X189022857Y-72586653D01*
X189022857Y-71844302D01*
X189027599Y-71811322D01*
X189013758Y-71781015D01*
X189004373Y-71749051D01*
X188995747Y-71741576D01*
X188991006Y-71731195D01*
X188962978Y-71713182D01*
X188937800Y-71691366D01*
X188926502Y-71689741D01*
X188916901Y-71683571D01*
X188883588Y-71683571D01*
X188850608Y-71678829D01*
X188840225Y-71683571D01*
X188309503Y-71683571D01*
X188273739Y-71679710D01*
X188246323Y-71693418D01*
X188216908Y-71702055D01*
X188207626Y-71712766D01*
X188108311Y-71762425D01*
X188083650Y-71767790D01*
X188054435Y-71797004D01*
X188024158Y-71825167D01*
X188023431Y-71828007D01*
X187994375Y-71857062D01*
X187972675Y-71869952D01*
X187954194Y-71906912D01*
X187934382Y-71943196D01*
X187934591Y-71946119D01*
X187885159Y-72044982D01*
X187865714Y-72075241D01*
X187865714Y-72105892D01*
X187860284Y-72136067D01*
X187522857Y-72136067D01*
X187522857Y-71844302D01*
X187527599Y-71811322D01*
X187513758Y-71781015D01*
X187504373Y-71749051D01*
X187495747Y-71741576D01*
X187491006Y-71731195D01*
X187462978Y-71713182D01*
X187437800Y-71691366D01*
X187426502Y-71689741D01*
X187416901Y-71683571D01*
X187383588Y-71683571D01*
X187350608Y-71678829D01*
X187340225Y-71683571D01*
X186637003Y-71683571D01*
X186574051Y-71702055D01*
X186516366Y-71768628D01*
X186503829Y-71855820D01*
X186540422Y-71935947D01*
X186614527Y-71983571D01*
X187222857Y-71983571D01*
X187222857Y-72397857D01*
X186851289Y-72397857D01*
X186788337Y-72416341D01*
X186730652Y-72482914D01*
X186718115Y-72570106D01*
X186754708Y-72650233D01*
X186828813Y-72697857D01*
X187222857Y-72697857D01*
X187222857Y-73183571D01*
X186637003Y-73183571D01*
X186574051Y-73202055D01*
X186516366Y-73268628D01*
X186503829Y-73355820D01*
X186165714Y-73355820D01*
X186165714Y-73344302D01*
X186170456Y-73311322D01*
X186165714Y-73300939D01*
X186165714Y-72558588D01*
X186170456Y-72525608D01*
X186165714Y-72515225D01*
X186165714Y-71844302D01*
X186170456Y-71811322D01*
X186156615Y-71781015D01*
X186147230Y-71749051D01*
X186138604Y-71741576D01*
X186133863Y-71731195D01*
X186105835Y-71713182D01*
X186080657Y-71691366D01*
X186069359Y-71689741D01*
X186059758Y-71683571D01*
X186026445Y-71683571D01*
X185993465Y-71678829D01*
X185983082Y-71683571D01*
X185279860Y-71683571D01*
X185216908Y-71702055D01*
X185159223Y-71768628D01*
X185146686Y-71855820D01*
X185183279Y-71935947D01*
X185257384Y-71983571D01*
X185865714Y-71983571D01*
X185865714Y-72397857D01*
X185494146Y-72397857D01*
X185431194Y-72416341D01*
X185373509Y-72482914D01*
X185360972Y-72570106D01*
X185397565Y-72650233D01*
X185471670Y-72697857D01*
X185865714Y-72697857D01*
X185865714Y-73183571D01*
X185279860Y-73183571D01*
X185216908Y-73202055D01*
X185159223Y-73268628D01*
X185146686Y-73355820D01*
X184778099Y-73355820D01*
X184792984Y-73341975D01*
X184793710Y-73339134D01*
X184851316Y-73281529D01*
X184882759Y-73223946D01*
X184876474Y-73136082D01*
X184823685Y-73065563D01*
X184741152Y-73034780D01*
X184655076Y-73053504D01*
X184569716Y-73138864D01*
X184480304Y-73183571D01*
X184193981Y-73183571D01*
X184104568Y-73138864D01*
X184067562Y-73101859D01*
X184022856Y-73012447D01*
X184022856Y-72726125D01*
X184067563Y-72636711D01*
X184104568Y-72599705D01*
X184193981Y-72555000D01*
X184480304Y-72555000D01*
X184569717Y-72599706D01*
X184602424Y-72632413D01*
X184607546Y-72645043D01*
X184633027Y-72663016D01*
X184639183Y-72669173D01*
X184650566Y-72675389D01*
X184679528Y-72695818D01*
X184688703Y-72696214D01*
X184696767Y-72700617D01*
X184732122Y-72698088D01*
X184767535Y-72699617D01*
X184775470Y-72694988D01*
X184784630Y-72694333D01*
X184813003Y-72673093D01*
X184843623Y-72655232D01*
X184847795Y-72647049D01*
X184855150Y-72641544D01*
X184867539Y-72608327D01*
X184883637Y-72576757D01*
X184882723Y-72567619D01*
X184885934Y-72559011D01*
X184878398Y-72524372D01*
X184809645Y-71836829D01*
X184813313Y-71811322D01*
X184796359Y-71774198D01*
X184781024Y-71736384D01*
X184778170Y-71734371D01*
X184776720Y-71731195D01*
X184742388Y-71709131D01*
X184709042Y-71685610D01*
X184705553Y-71685459D01*
X184702615Y-71683571D01*
X184661807Y-71683571D01*
X184621035Y-71681811D01*
X184618018Y-71683571D01*
X183922717Y-71683571D01*
X183859765Y-71702055D01*
X183802080Y-71768628D01*
X183789543Y-71855820D01*
X183826136Y-71935947D01*
X183900241Y-71983571D01*
X184522823Y-71983571D01*
X184549965Y-72255000D01*
X184529107Y-72255000D01*
X184498932Y-72249570D01*
X184485840Y-72255000D01*
X184166647Y-72255000D01*
X184130884Y-72251139D01*
X184103469Y-72264846D01*
X184074051Y-72273484D01*
X184064769Y-72284195D01*
X183965453Y-72333853D01*
X183940792Y-72339218D01*
X183911580Y-72368429D01*
X183881301Y-72396595D01*
X183880574Y-72399435D01*
X183851517Y-72428492D01*
X183829818Y-72441381D01*
X183811342Y-72478332D01*
X183791524Y-72514626D01*
X183791733Y-72517550D01*
X183742306Y-72616404D01*
X183722856Y-72646670D01*
X183722856Y-72677323D01*
X183717426Y-72707495D01*
X183451428Y-72707495D01*
X183451428Y-72429687D01*
X183457632Y-72411349D01*
X183451428Y-72386533D01*
X183451428Y-72383432D01*
X183446210Y-72365662D01*
X183382001Y-72108822D01*
X183383861Y-72091596D01*
X183371528Y-72066931D01*
X183370291Y-72061981D01*
X183361914Y-72047704D01*
X183301146Y-71926168D01*
X183295781Y-71901505D01*
X183266550Y-71872274D01*
X183238404Y-71842015D01*
X183235564Y-71841288D01*
X183206506Y-71812231D01*
X183193619Y-71790533D01*
X183156665Y-71772056D01*
X183120374Y-71752239D01*
X183117449Y-71752448D01*
X183018587Y-71703016D01*
X182988329Y-71683571D01*
X182957678Y-71683571D01*
X182927504Y-71678141D01*
X182914412Y-71683571D01*
X182809503Y-71683571D01*
X182773739Y-71679710D01*
X182746323Y-71693418D01*
X182716908Y-71702055D01*
X182707626Y-71712766D01*
X182608311Y-71762424D01*
X182583648Y-71767790D01*
X182554417Y-71797020D01*
X182524158Y-71825167D01*
X182523431Y-71828006D01*
X182494374Y-71857064D01*
X182472676Y-71869952D01*
X182454200Y-71906903D01*
X182434382Y-71943197D01*
X182434591Y-71946121D01*
X182393499Y-72028305D01*
X182380875Y-72040176D01*
X182374186Y-72066932D01*
X182371905Y-72071494D01*
X182368974Y-72087779D01*
X182304751Y-72344669D01*
X182294285Y-72360956D01*
X182294285Y-72386536D01*
X182293533Y-72389544D01*
X182294285Y-72408049D01*
X182294285Y-72737455D01*
X182288081Y-72755794D01*
X180622857Y-72755794D01*
X180622857Y-71812003D01*
X180604373Y-71749051D01*
X180537800Y-71691366D01*
X180450608Y-71678829D01*
X180370481Y-71715422D01*
X180322857Y-71789527D01*
X180322857Y-72886195D01*
X180316627Y-72910651D01*
X179908572Y-72910651D01*
X179908572Y-72312003D01*
X179890088Y-72249051D01*
X179823515Y-72191366D01*
X179736323Y-72178829D01*
X179656196Y-72215422D01*
X179608572Y-72289527D01*
X179608572Y-73083875D01*
X179575340Y-73150338D01*
X179508876Y-73183571D01*
X179365410Y-73183571D01*
X179275999Y-73138865D01*
X179265715Y-73128581D01*
X179265715Y-72312003D01*
X179247231Y-72249051D01*
X179180658Y-72191366D01*
X179093466Y-72178829D01*
X179013339Y-72215422D01*
X178965715Y-72289527D01*
X178965715Y-73163648D01*
X178959780Y-73179561D01*
X178551429Y-73179561D01*
X178551429Y-72503493D01*
X178557364Y-72487580D01*
X178551429Y-72460299D01*
X178551429Y-72312003D01*
X178532945Y-72249051D01*
X178466372Y-72191366D01*
X178379180Y-72178829D01*
X178299053Y-72215422D01*
X178295940Y-72220265D01*
X178261452Y-72203021D01*
X178231187Y-72183571D01*
X178200534Y-72183571D01*
X178170362Y-72178141D01*
X178157270Y-72183571D01*
X177980932Y-72183571D01*
X177945168Y-72179710D01*
X177917752Y-72193418D01*
X177888337Y-72202055D01*
X177879055Y-72212766D01*
X177797099Y-72253745D01*
X177791270Y-72253540D01*
X177758056Y-72273267D01*
X177743627Y-72280482D01*
X177739595Y-72284232D01*
X177715533Y-72298524D01*
X177707971Y-72313647D01*
X177695587Y-72325167D01*
X177688653Y-72352282D01*
X177628017Y-72473554D01*
X177608572Y-72503813D01*
X177608572Y-72534464D01*
X177603142Y-72564639D01*
X177194286Y-72564639D01*
X177194286Y-72312003D01*
X177175802Y-72249051D01*
X177109229Y-72191366D01*
X177022037Y-72178829D01*
X176941910Y-72215422D01*
X176894286Y-72289527D01*
X176894286Y-73355139D01*
X175724907Y-73355139D01*
X175728792Y-73344724D01*
X175725182Y-73328130D01*
X175727599Y-73311322D01*
X175716000Y-73285925D01*
X175710067Y-73258649D01*
X175698060Y-73246642D01*
X175691006Y-73231195D01*
X175667518Y-73216100D01*
X174846818Y-72395400D01*
X174794285Y-72237800D01*
X174794285Y-72154696D01*
X174838992Y-72065281D01*
X174875996Y-72028277D01*
X174965410Y-71983571D01*
X175251732Y-71983571D01*
X175341146Y-72028278D01*
X175410613Y-72097745D01*
X175468196Y-72129188D01*
X175556060Y-72122903D01*
X175626579Y-72070114D01*
X175657362Y-71987581D01*
X175638638Y-71901505D01*
X175630981Y-71893848D01*
X176816922Y-71893848D01*
X176824003Y-71926400D01*
X176826381Y-71959632D01*
X176833221Y-71968770D01*
X176835648Y-71979923D01*
X176859200Y-72003475D01*
X176879170Y-72030152D01*
X176889867Y-72034142D01*
X176911147Y-72055420D01*
X176912770Y-72060948D01*
X176933867Y-72079229D01*
X176950599Y-72101580D01*
X176966512Y-72107515D01*
X176979343Y-72118633D01*
X176996150Y-72121049D01*
X177011056Y-72129189D01*
X177022439Y-72128374D01*
X177033133Y-72132363D01*
X177049726Y-72128753D01*
X177066535Y-72131170D01*
X177081984Y-72124114D01*
X177098919Y-72122903D01*
X177108054Y-72116064D01*
X177119208Y-72113638D01*
X177131214Y-72101631D01*
X177146662Y-72094577D01*
X177155843Y-72080290D01*
X177169438Y-72070114D01*
X177173426Y-72059419D01*
X177214193Y-72018652D01*
X177240865Y-71998687D01*
X177252508Y-71967470D01*
X177268474Y-71938232D01*
X177267659Y-71926849D01*
X177271649Y-71916154D01*
X177264565Y-71883593D01*
X177262189Y-71850368D01*
X177255350Y-71841232D01*
X177252924Y-71830079D01*
X177229365Y-71806519D01*
X177209400Y-71779849D01*
X177198706Y-71775860D01*
X177177425Y-71754578D01*
X177175802Y-71749051D01*
X177154704Y-71730770D01*
X177137973Y-71708419D01*
X177122059Y-71702483D01*
X177109229Y-71691366D01*
X177092421Y-71688949D01*
X177077518Y-71680811D01*
X177066134Y-71681625D01*
X177055439Y-71677636D01*
X177038845Y-71681245D01*
X177022037Y-71678829D01*
X177006589Y-71685883D01*
X176989655Y-71687095D01*
X176980518Y-71693934D01*
X176969364Y-71696361D01*
X176957357Y-71708367D01*
X176941910Y-71715422D01*
X176932730Y-71729706D01*
X176919135Y-71739883D01*
X176915145Y-71750579D01*
X176874378Y-71791346D01*
X176847705Y-71811314D01*
X176836062Y-71842529D01*
X176820096Y-71871769D01*
X176820910Y-71883154D01*
X176816922Y-71893848D01*
X175630981Y-71893848D01*
X175549363Y-71812231D01*
X175536476Y-71790533D01*
X175499524Y-71772057D01*
X175463231Y-71752239D01*
X175460306Y-71752448D01*
X175361452Y-71703021D01*
X175331187Y-71683571D01*
X175300534Y-71683571D01*
X175270362Y-71678141D01*
X175257270Y-71683571D01*
X174938075Y-71683571D01*
X174902311Y-71679710D01*
X174874895Y-71693418D01*
X174845480Y-71702055D01*
X174836198Y-71712766D01*
X174736883Y-71762425D01*
X174712222Y-71767790D01*
X174683007Y-71797004D01*
X174652730Y-71825167D01*
X174652003Y-71828007D01*
X174622947Y-71857062D01*
X174601247Y-71869952D01*
X174582766Y-71906912D01*
X174562954Y-71943196D01*
X174563163Y-71946119D01*
X174513735Y-72044975D01*
X174494285Y-72075241D01*
X174494285Y-72105894D01*
X174488855Y-72136066D01*
X174494285Y-72149158D01*
X174494285Y-72243336D01*
X174488055Y-72267793D01*
X174193172Y-72267793D01*
X174153430Y-72108822D01*
X174155290Y-72091596D01*
X174142957Y-72066931D01*
X174141720Y-72061981D01*
X174133343Y-72047704D01*
X174072575Y-71926168D01*
X174067210Y-71901505D01*
X174037979Y-71872274D01*
X174009833Y-71842015D01*
X174006993Y-71841288D01*
X173977935Y-71812231D01*
X173965048Y-71790533D01*
X173928094Y-71772056D01*
X173891803Y-71752239D01*
X173888878Y-71752448D01*
X173790016Y-71703016D01*
X173759758Y-71683571D01*
X173729107Y-71683571D01*
X173698933Y-71678141D01*
X173685841Y-71683571D01*
X173580932Y-71683571D01*
X173545168Y-71679710D01*
X173517752Y-71693418D01*
X173488337Y-71702055D01*
X173479055Y-71712766D01*
X173379740Y-71762424D01*
X173355077Y-71767790D01*
X173325846Y-71797020D01*
X173295587Y-71825167D01*
X173294860Y-71828006D01*
X173265803Y-71857064D01*
X173244105Y-71869952D01*
X173225629Y-71906903D01*
X173205811Y-71943197D01*
X173206020Y-71946121D01*
X173164928Y-72028305D01*
X173152304Y-72040176D01*
X173145615Y-72066932D01*
X173143334Y-72071494D01*
X173140403Y-72087779D01*
X173076180Y-72344669D01*
X173065714Y-72360956D01*
X173065714Y-72386536D01*
X173064962Y-72389544D01*
X173065714Y-72408049D01*
X173065714Y-72737455D01*
X173059510Y-72755794D01*
X172350070Y-72755794D01*
X171989676Y-72395400D01*
X171937143Y-72237800D01*
X171937143Y-72154696D01*
X171981850Y-72065281D01*
X172018854Y-72028277D01*
X172108268Y-71983571D01*
X172394590Y-71983571D01*
X172484004Y-72028278D01*
X172553471Y-72097745D01*
X172611054Y-72129188D01*
X172698918Y-72122903D01*
X172769437Y-72070114D01*
X172800220Y-71987581D01*
X172781496Y-71901505D01*
X172692221Y-71812231D01*
X172679334Y-71790533D01*
X172642382Y-71772057D01*
X172606089Y-71752239D01*
X172603164Y-71752448D01*
X172504310Y-71703021D01*
X172474045Y-71683571D01*
X172443392Y-71683571D01*
X172413220Y-71678141D01*
X172400128Y-71683571D01*
X172080933Y-71683571D01*
X172045169Y-71679710D01*
X172017753Y-71693418D01*
X171988338Y-71702055D01*
X171979056Y-71712766D01*
X171879741Y-71762425D01*
X171855080Y-71767790D01*
X171825865Y-71797004D01*
X171795588Y-71825167D01*
X171794861Y-71828007D01*
X171765805Y-71857062D01*
X171744105Y-71869952D01*
X171725624Y-71906912D01*
X171705812Y-71943196D01*
X171706021Y-71946119D01*
X171656593Y-72044975D01*
X171637143Y-72075241D01*
X171637143Y-72105894D01*
X171631713Y-72136066D01*
X171637143Y-72149158D01*
X171637143Y-72243336D01*
X171630913Y-72267793D01*
X170937830Y-72267793D01*
X170689137Y-71983571D01*
X171308712Y-71983571D01*
X171371664Y-71965087D01*
X171429349Y-71898514D01*
X171441886Y-71811322D01*
X171405293Y-71731195D01*
X171331188Y-71683571D01*
X170402224Y-71683571D01*
X170401891Y-71683359D01*
X170358157Y-71683571D01*
X170337004Y-71683571D01*
X170336648Y-71683675D01*
X170313804Y-71683786D01*
X170295266Y-71695825D01*
X170274052Y-71702055D01*
X170259089Y-71719323D01*
X170239930Y-71731767D01*
X170230843Y-71751921D01*
X170216367Y-71768628D01*
X170213115Y-71791241D01*
X170203725Y-71812070D01*
X170206976Y-71833935D01*
X170203830Y-71855820D01*
X170213321Y-71876603D01*
X170216682Y-71899200D01*
X170231238Y-71915836D01*
X170240423Y-71935947D01*
X170259644Y-71948299D01*
X170552011Y-72282434D01*
X170550485Y-72284195D01*
X170451169Y-72333853D01*
X170426508Y-72339218D01*
X170397296Y-72368429D01*
X170367017Y-72396595D01*
X170366290Y-72399435D01*
X170337233Y-72428492D01*
X170315534Y-72441381D01*
X170297058Y-72478332D01*
X170277240Y-72514626D01*
X170277449Y-72517550D01*
X170228022Y-72616404D01*
X170208572Y-72646670D01*
X170208572Y-72677323D01*
X170203142Y-72707495D01*
X168896807Y-72707495D01*
X169179124Y-71860544D01*
X169181496Y-71794977D01*
X169136581Y-71719200D01*
X169057828Y-71679734D01*
X168970241Y-71689111D01*
X168901626Y-71744353D01*
X168530000Y-72859229D01*
X168165483Y-71765676D01*
X168128040Y-71711799D01*
X168046642Y-71678127D01*
X167959960Y-71693806D01*
X167895517Y-71753859D01*
X167873771Y-71839221D01*
X166322859Y-71839221D01*
X166322859Y-71812003D01*
X166304375Y-71749051D01*
X166237802Y-71691366D01*
X166150610Y-71678829D01*
X166070483Y-71715422D01*
X166022859Y-71789527D01*
X166022859Y-73083875D01*
X165989627Y-73150338D01*
X165872200Y-73209053D01*
X165824160Y-73253738D01*
X165802338Y-73339081D01*
X165450869Y-73339081D01*
X165457061Y-73314861D01*
X165517697Y-73193590D01*
X165537145Y-73163329D01*
X165537145Y-73132676D01*
X165542575Y-73102504D01*
X165537145Y-73089412D01*
X165537145Y-72483571D01*
X165622998Y-72483571D01*
X165685950Y-72465087D01*
X165743635Y-72398514D01*
X165756172Y-72311322D01*
X165719579Y-72231195D01*
X165645474Y-72183571D01*
X165537145Y-72183571D01*
X165537145Y-71812003D01*
X165518661Y-71749051D01*
X165452088Y-71691366D01*
X165364896Y-71678829D01*
X165284769Y-71715422D01*
X165237145Y-71789527D01*
X165237145Y-72183571D01*
X165008434Y-72183571D01*
X164945482Y-72202055D01*
X164887797Y-72268628D01*
X164875260Y-72355820D01*
X164911853Y-72435947D01*
X164985958Y-72483571D01*
X165237145Y-72483571D01*
X165237145Y-73083875D01*
X165203913Y-73150338D01*
X165137449Y-73183571D01*
X165008434Y-73183571D01*
X164945482Y-73202055D01*
X164887797Y-73268628D01*
X164875260Y-73355820D01*
X164650867Y-73355820D01*
X164652030Y-73353494D01*
X164664415Y-73341975D01*
X164671348Y-73314858D01*
X164731982Y-73193590D01*
X164751430Y-73163329D01*
X164751430Y-73132677D01*
X164756860Y-73102503D01*
X164751430Y-73089411D01*
X164751430Y-72984504D01*
X164755291Y-72948741D01*
X164741583Y-72921326D01*
X164732946Y-72891908D01*
X164722234Y-72882626D01*
X164681256Y-72800669D01*
X164681462Y-72794841D01*
X164661739Y-72761636D01*
X164654521Y-72747198D01*
X164650768Y-72743163D01*
X164636478Y-72719104D01*
X164621354Y-72711542D01*
X164609835Y-72699158D01*
X164582718Y-72692224D01*
X164461454Y-72631592D01*
X164431189Y-72612142D01*
X164400536Y-72612142D01*
X164370364Y-72606712D01*
X164357272Y-72612142D01*
X164065412Y-72612142D01*
X164037145Y-72598009D01*
X164037145Y-72583267D01*
X164070376Y-72516802D01*
X164136840Y-72483571D01*
X164351734Y-72483571D01*
X164482210Y-72548809D01*
X164546783Y-72560430D01*
X164628150Y-72526683D01*
X164678357Y-72454303D01*
X164681462Y-72366270D01*
X164636478Y-72290533D01*
X164461454Y-72203021D01*
X164431189Y-72183571D01*
X164400536Y-72183571D01*
X164370364Y-72178141D01*
X164357272Y-72183571D01*
X164109505Y-72183571D01*
X164073741Y-72179710D01*
X164046325Y-72193418D01*
X164016910Y-72202055D01*
X164007628Y-72212766D01*
X163925672Y-72253745D01*
X163919843Y-72253540D01*
X163886629Y-72273267D01*
X163872200Y-72280482D01*
X163868168Y-72284232D01*
X163844106Y-72298524D01*
X163836544Y-72313647D01*
X163824160Y-72325167D01*
X163817226Y-72352282D01*
X163756590Y-72473554D01*
X163737145Y-72503813D01*
X163737145Y-72534464D01*
X163731715Y-72564639D01*
X163322859Y-72564639D01*
X163322859Y-72503493D01*
X163328794Y-72487580D01*
X163322859Y-72460299D01*
X163322859Y-72312003D01*
X163304375Y-72249051D01*
X163237802Y-72191366D01*
X163150610Y-72178829D01*
X163070483Y-72215422D01*
X163067370Y-72220265D01*
X163032882Y-72203021D01*
X163002617Y-72183571D01*
X162971964Y-72183571D01*
X162941792Y-72178141D01*
X162928700Y-72183571D01*
X162752362Y-72183571D01*
X162716598Y-72179710D01*
X162689182Y-72193418D01*
X162659767Y-72202055D01*
X162650485Y-72212766D01*
X162568529Y-72253745D01*
X162562700Y-72253540D01*
X162535325Y-72269799D01*
X162511290Y-72263653D01*
X162390025Y-72203021D01*
X162359760Y-72183571D01*
X162329107Y-72183571D01*
X162298935Y-72178141D01*
X162285843Y-72183571D01*
X162109505Y-72183571D01*
X162073741Y-72179710D01*
X162046325Y-72193418D01*
X162016910Y-72202055D01*
X162007628Y-72212766D01*
X161925672Y-72253745D01*
X161919843Y-72253540D01*
X161886629Y-72273267D01*
X161872200Y-72280482D01*
X161868168Y-72284232D01*
X161844106Y-72298524D01*
X161836544Y-72313647D01*
X161824160Y-72325167D01*
X161817226Y-72352282D01*
X161756594Y-72473547D01*
X161737144Y-72503813D01*
X161737144Y-72534466D01*
X161731714Y-72564638D01*
X161322859Y-72564638D01*
X161322859Y-72503493D01*
X161328794Y-72487580D01*
X161322859Y-72460299D01*
X161322859Y-72312003D01*
X161304375Y-72249051D01*
X161237802Y-72191366D01*
X161150610Y-72178829D01*
X161070483Y-72215422D01*
X161067370Y-72220265D01*
X161032882Y-72203021D01*
X161002617Y-72183571D01*
X160971964Y-72183571D01*
X160941792Y-72178141D01*
X160928700Y-72183571D01*
X160752362Y-72183571D01*
X160716598Y-72179710D01*
X160689182Y-72193418D01*
X160659767Y-72202055D01*
X160650485Y-72212766D01*
X160568529Y-72253745D01*
X160562700Y-72253540D01*
X160535325Y-72269799D01*
X160511290Y-72263653D01*
X160390025Y-72203021D01*
X160359760Y-72183571D01*
X160329107Y-72183571D01*
X160298935Y-72178141D01*
X160285843Y-72183571D01*
X160109505Y-72183571D01*
X160073741Y-72179710D01*
X160046325Y-72193418D01*
X160016910Y-72202055D01*
X160007628Y-72212766D01*
X159925672Y-72253745D01*
X159919843Y-72253540D01*
X159886629Y-72273267D01*
X159872200Y-72280482D01*
X159868168Y-72284232D01*
X159844106Y-72298524D01*
X159836544Y-72313647D01*
X159824160Y-72325167D01*
X159817226Y-72352282D01*
X159756594Y-72473547D01*
X159737144Y-72503813D01*
X159737144Y-72534466D01*
X159731714Y-72564638D01*
X159394287Y-72564638D01*
X159394287Y-72555933D01*
X159398148Y-72520170D01*
X159384440Y-72492755D01*
X159375803Y-72463337D01*
X159365091Y-72454055D01*
X159324113Y-72372098D01*
X159324319Y-72366270D01*
X159304596Y-72333065D01*
X159297378Y-72318627D01*
X159293625Y-72314592D01*
X159279335Y-72290533D01*
X159264211Y-72282971D01*
X159252692Y-72270587D01*
X159225575Y-72263653D01*
X159104311Y-72203021D01*
X159074046Y-72183571D01*
X159043393Y-72183571D01*
X159013221Y-72178141D01*
X159000129Y-72183571D01*
X158752362Y-72183571D01*
X158716598Y-72179710D01*
X158689182Y-72193418D01*
X158659767Y-72202055D01*
X158650485Y-72212766D01*
X158568529Y-72253745D01*
X158562700Y-72253540D01*
X158529486Y-72273267D01*
X158515057Y-72280482D01*
X158511025Y-72284232D01*
X158486963Y-72298524D01*
X158479401Y-72313647D01*
X158467017Y-72325167D01*
X158460083Y-72352282D01*
X158399447Y-72473554D01*
X158380002Y-72503813D01*
X158380002Y-72534464D01*
X158374572Y-72564639D01*
X158380002Y-72577731D01*
X158380002Y-72664950D01*
X158373902Y-72682184D01*
X158037145Y-72682184D01*
X158037145Y-72483571D01*
X158122998Y-72483571D01*
X158185950Y-72465087D01*
X158243635Y-72398514D01*
X158256172Y-72311322D01*
X158219579Y-72231195D01*
X158145474Y-72183571D01*
X158037145Y-72183571D01*
X158037145Y-71812003D01*
X158018661Y-71749051D01*
X157952088Y-71691366D01*
X157864896Y-71678829D01*
X157784769Y-71715422D01*
X157737145Y-71789527D01*
X157737145Y-72183571D01*
X157508434Y-72183571D01*
X157445482Y-72202055D01*
X157387797Y-72268628D01*
X157375260Y-72355820D01*
X157411853Y-72435947D01*
X157485958Y-72483571D01*
X157737145Y-72483571D01*
X157737145Y-73083875D01*
X157703913Y-73150338D01*
X157637449Y-73183571D01*
X157508434Y-73183571D01*
X157445482Y-73202055D01*
X157387797Y-73268628D01*
X157375260Y-73355820D01*
X157180002Y-73355820D01*
X157180002Y-72627360D01*
X157183863Y-72591596D01*
X157180002Y-72583874D01*
X157180002Y-72312003D01*
X157161518Y-72249051D01*
X157094945Y-72191366D01*
X157007753Y-72178829D01*
X156927626Y-72215422D01*
X156907143Y-72247293D01*
X156818589Y-72203016D01*
X156788331Y-72183571D01*
X156757680Y-72183571D01*
X156727506Y-72178141D01*
X156714414Y-72183571D01*
X156579862Y-72183571D01*
X156516910Y-72202055D01*
X156459225Y-72268628D01*
X156446688Y-72355820D01*
X156251431Y-72355820D01*
X156251431Y-72312003D01*
X156232947Y-72249051D01*
X156166374Y-72191366D01*
X156079182Y-72178829D01*
X155999055Y-72215422D01*
X155951431Y-72289527D01*
X155951431Y-73355139D01*
X155508351Y-73355139D01*
X155509173Y-73353494D01*
X155521558Y-73341975D01*
X155528491Y-73314858D01*
X155589125Y-73193590D01*
X155608573Y-73163329D01*
X155608573Y-73132677D01*
X155614003Y-73102503D01*
X155608573Y-73089411D01*
X155608573Y-72859338D01*
X155614674Y-72842102D01*
X155608573Y-72816162D01*
X155608573Y-72555933D01*
X155612434Y-72520170D01*
X155598726Y-72492755D01*
X155590089Y-72463337D01*
X155579377Y-72454055D01*
X155538399Y-72372098D01*
X155538605Y-72366270D01*
X155518882Y-72333065D01*
X155511664Y-72318627D01*
X155507911Y-72314592D01*
X155493621Y-72290533D01*
X155478497Y-72282971D01*
X155466978Y-72270587D01*
X155439861Y-72263653D01*
X155318597Y-72203021D01*
X155288332Y-72183571D01*
X155257679Y-72183571D01*
X155227507Y-72178141D01*
X155214415Y-72183571D01*
X154966648Y-72183571D01*
X154930884Y-72179710D01*
X154903468Y-72193418D01*
X154874053Y-72202055D01*
X154864771Y-72212766D01*
X154782815Y-72253745D01*
X154776986Y-72253540D01*
X154743772Y-72273267D01*
X154729343Y-72280482D01*
X154725311Y-72284232D01*
X154701249Y-72298524D01*
X154693687Y-72313647D01*
X154681303Y-72325167D01*
X154674369Y-72352282D01*
X154613733Y-72473554D01*
X154594288Y-72503813D01*
X154594288Y-72534464D01*
X154588858Y-72564639D01*
X154594288Y-72577731D01*
X154594288Y-72664950D01*
X154588188Y-72682184D01*
X153344288Y-72682184D01*
X153344288Y-71893848D01*
X155874067Y-71893848D01*
X155881148Y-71926400D01*
X155883526Y-71959632D01*
X155890366Y-71968770D01*
X155892793Y-71979923D01*
X155916345Y-72003475D01*
X155936315Y-72030152D01*
X155947012Y-72034142D01*
X155968292Y-72055420D01*
X155969915Y-72060948D01*
X155991012Y-72079229D01*
X156007744Y-72101580D01*
X156023657Y-72107515D01*
X156036488Y-72118633D01*
X156053295Y-72121049D01*
X156068201Y-72129189D01*
X156079584Y-72128374D01*
X156090278Y-72132363D01*
X156106871Y-72128753D01*
X156123680Y-72131170D01*
X156139129Y-72124114D01*
X156156064Y-72122903D01*
X156165199Y-72116064D01*
X156176353Y-72113638D01*
X156188359Y-72101631D01*
X156203807Y-72094577D01*
X156212988Y-72080290D01*
X156226583Y-72070114D01*
X156230571Y-72059419D01*
X156271338Y-72018652D01*
X156298010Y-71998687D01*
X156309653Y-71967470D01*
X156325619Y-71938232D01*
X156324804Y-71926849D01*
X156328794Y-71916154D01*
X156321710Y-71883593D01*
X156319334Y-71850368D01*
X156312495Y-71841232D01*
X156310069Y-71830079D01*
X156286510Y-71806519D01*
X156266545Y-71779849D01*
X156255851Y-71775860D01*
X156234570Y-71754578D01*
X156232947Y-71749051D01*
X156211849Y-71730770D01*
X156195118Y-71708419D01*
X156179204Y-71702483D01*
X156166374Y-71691366D01*
X156149566Y-71688949D01*
X156134663Y-71680811D01*
X156123279Y-71681625D01*
X156112584Y-71677636D01*
X156095990Y-71681245D01*
X156079182Y-71678829D01*
X156063734Y-71685883D01*
X156046800Y-71687095D01*
X156037663Y-71693934D01*
X156026509Y-71696361D01*
X156014502Y-71708367D01*
X155999055Y-71715422D01*
X155989875Y-71729706D01*
X155976280Y-71739883D01*
X155972290Y-71750579D01*
X155931523Y-71791346D01*
X155904850Y-71811314D01*
X155893207Y-71842529D01*
X155877241Y-71871769D01*
X155878055Y-71883154D01*
X155874067Y-71893848D01*
X153344288Y-71893848D01*
X153344288Y-70745714D01*
X189894286Y-70745714D01*
X189894286Y-74324286D01*
G37*
G36*
X174303289Y-101103278D02*
G01*
X174340292Y-101140281D01*
X174384999Y-101229695D01*
X174384999Y-101587447D01*
X174340291Y-101676861D01*
X174303289Y-101713863D01*
X174213875Y-101758571D01*
X173998981Y-101758571D01*
X173970714Y-101744438D01*
X173970714Y-101072704D01*
X173998981Y-101058571D01*
X174213874Y-101058571D01*
X174303289Y-101103278D01*
G37*
G36*
X172994624Y-101091803D02*
G01*
X173027856Y-101158267D01*
X173027856Y-101225601D01*
X172620626Y-101144154D01*
X172646802Y-101091802D01*
X172713266Y-101058571D01*
X172928160Y-101058571D01*
X172994624Y-101091803D01*
G37*
G36*
X179099286Y-102899286D02*
G01*
X168563571Y-102899286D01*
X168563571Y-101930820D01*
X169665972Y-101930820D01*
X169702565Y-102010947D01*
X169776670Y-102058571D01*
X169955496Y-102058571D01*
X169991259Y-102062432D01*
X170018673Y-102048724D01*
X170048091Y-102040087D01*
X170057373Y-102029374D01*
X170139328Y-101988396D01*
X170145158Y-101988602D01*
X170178376Y-101968872D01*
X170192801Y-101961660D01*
X170196830Y-101957911D01*
X170220895Y-101943619D01*
X170228457Y-101928493D01*
X170240841Y-101916975D01*
X170247773Y-101889861D01*
X170308409Y-101768590D01*
X170327857Y-101738329D01*
X170327857Y-101707676D01*
X170333287Y-101677504D01*
X170327857Y-101664412D01*
X170327857Y-101058571D01*
X170413710Y-101058571D01*
X170476662Y-101040087D01*
X170534347Y-100973514D01*
X170536326Y-100959748D01*
X170559708Y-101010947D01*
X170633813Y-101058571D01*
X170885000Y-101058571D01*
X170885000Y-101930139D01*
X170903484Y-101993091D01*
X170970057Y-102050776D01*
X171057249Y-102063313D01*
X171137376Y-102026720D01*
X171185000Y-101952615D01*
X171185000Y-101914081D01*
X171450193Y-101914081D01*
X171477973Y-101997674D01*
X171546537Y-102052977D01*
X171634116Y-102062432D01*
X171782185Y-101988396D01*
X171788015Y-101988602D01*
X171821233Y-101968872D01*
X171835658Y-101961660D01*
X171839687Y-101957911D01*
X171863752Y-101943619D01*
X171871314Y-101928493D01*
X171883698Y-101916975D01*
X171890630Y-101889861D01*
X171951266Y-101768590D01*
X171970714Y-101738329D01*
X171970714Y-101707676D01*
X171976144Y-101677504D01*
X171970714Y-101664412D01*
X171970714Y-101257184D01*
X172307471Y-101257184D01*
X172313571Y-101283119D01*
X172313571Y-101287282D01*
X172318492Y-101304043D01*
X172327639Y-101342931D01*
X172330811Y-101345998D01*
X172332055Y-101350234D01*
X172362252Y-101376399D01*
X172390965Y-101404163D01*
X172395292Y-101405028D01*
X172398628Y-101407919D01*
X172438180Y-101413606D01*
X173027856Y-101531542D01*
X173027856Y-101658875D01*
X172994623Y-101725339D01*
X172928161Y-101758571D01*
X172713266Y-101758571D01*
X172582790Y-101693333D01*
X172518218Y-101681712D01*
X172436851Y-101715459D01*
X172386644Y-101787839D01*
X172383539Y-101875872D01*
X172428522Y-101951609D01*
X172603550Y-102039123D01*
X172633812Y-102058571D01*
X172664465Y-102058571D01*
X172694637Y-102064001D01*
X172707729Y-102058571D01*
X172955496Y-102058571D01*
X172991259Y-102062432D01*
X173018673Y-102048724D01*
X173048091Y-102040087D01*
X173057373Y-102029374D01*
X173139328Y-101988396D01*
X173145158Y-101988602D01*
X173178371Y-101968874D01*
X173192801Y-101961660D01*
X173196832Y-101957909D01*
X173220895Y-101943618D01*
X173228456Y-101928494D01*
X173240841Y-101916975D01*
X173247774Y-101889858D01*
X173308408Y-101768590D01*
X173327856Y-101738329D01*
X173327856Y-101707677D01*
X173333286Y-101677503D01*
X173327856Y-101664411D01*
X173327856Y-101434338D01*
X173333957Y-101417102D01*
X173327856Y-101391162D01*
X173327856Y-101130933D01*
X173331717Y-101095170D01*
X173318009Y-101067755D01*
X173309372Y-101038337D01*
X173298660Y-101029055D01*
X173276888Y-100985510D01*
X173664479Y-100985510D01*
X173670714Y-101004272D01*
X173670714Y-101834478D01*
X173669254Y-101875872D01*
X173670714Y-101878330D01*
X173670714Y-101930139D01*
X173689198Y-101993091D01*
X173755771Y-102050776D01*
X173842963Y-102063313D01*
X173892034Y-102040902D01*
X173919527Y-102058571D01*
X173950180Y-102058571D01*
X173980352Y-102064001D01*
X173993444Y-102058571D01*
X174241210Y-102058571D01*
X174276973Y-102062432D01*
X174304387Y-102048724D01*
X174333805Y-102040087D01*
X174343087Y-102029374D01*
X174442401Y-101979716D01*
X174467063Y-101974352D01*
X174496277Y-101945137D01*
X174526555Y-101916975D01*
X174527281Y-101914134D01*
X174556337Y-101885079D01*
X174578038Y-101872190D01*
X174596517Y-101835231D01*
X174616331Y-101798946D01*
X174616121Y-101796021D01*
X174665551Y-101697162D01*
X174684999Y-101666901D01*
X174684999Y-101650544D01*
X175923996Y-101650544D01*
X175937703Y-101677958D01*
X175946341Y-101707377D01*
X175957052Y-101716658D01*
X176006710Y-101815976D01*
X176012076Y-101840637D01*
X176041280Y-101869840D01*
X176069452Y-101900127D01*
X176072293Y-101900853D01*
X176101347Y-101929906D01*
X176114237Y-101951609D01*
X176151211Y-101970096D01*
X176187484Y-101989903D01*
X176190406Y-101989693D01*
X176289265Y-102039123D01*
X176319527Y-102058571D01*
X176350180Y-102058571D01*
X176380352Y-102064001D01*
X176393444Y-102058571D01*
X176641209Y-102058571D01*
X176676973Y-102062432D01*
X176704388Y-102048724D01*
X176733805Y-102040087D01*
X176743086Y-102029375D01*
X176842404Y-101979716D01*
X176867065Y-101974352D01*
X176896276Y-101945140D01*
X176926556Y-101916975D01*
X176927282Y-101914134D01*
X176956336Y-101885080D01*
X176978038Y-101872191D01*
X176996521Y-101835224D01*
X177016331Y-101798946D01*
X177016121Y-101796023D01*
X177065552Y-101697162D01*
X177085000Y-101666901D01*
X177085000Y-101636248D01*
X177090430Y-101606076D01*
X177085000Y-101592984D01*
X177085000Y-100430820D01*
X177280258Y-100430820D01*
X177316851Y-100510947D01*
X177390956Y-100558571D01*
X177713571Y-100558571D01*
X177713571Y-101930139D01*
X177732055Y-101993091D01*
X177798628Y-102050776D01*
X177885820Y-102063313D01*
X177965947Y-102026720D01*
X178013571Y-101952615D01*
X178013571Y-100558571D01*
X178313710Y-100558571D01*
X178376662Y-100540087D01*
X178434347Y-100473514D01*
X178446884Y-100386322D01*
X178410291Y-100306195D01*
X178336186Y-100258571D01*
X177874302Y-100258571D01*
X177841322Y-100253829D01*
X177830939Y-100258571D01*
X177413432Y-100258571D01*
X177350480Y-100277055D01*
X177292795Y-100343628D01*
X177280258Y-100430820D01*
X177085000Y-100430820D01*
X177085000Y-100387003D01*
X177066516Y-100324051D01*
X176999943Y-100266366D01*
X176912751Y-100253829D01*
X176832624Y-100290422D01*
X176785000Y-100364527D01*
X176785000Y-101587447D01*
X176740294Y-101676857D01*
X176703288Y-101713863D01*
X176613874Y-101758571D01*
X176398981Y-101758571D01*
X176309568Y-101713864D01*
X176272562Y-101676859D01*
X176227857Y-101587447D01*
X176227857Y-100387003D01*
X176209373Y-100324051D01*
X176142800Y-100266366D01*
X176055608Y-100253829D01*
X175975481Y-100290422D01*
X175927857Y-100364527D01*
X175927857Y-101614781D01*
X175923996Y-101650544D01*
X174684999Y-101650544D01*
X174684999Y-101636249D01*
X174690429Y-101606075D01*
X174684999Y-101592983D01*
X174684999Y-101202361D01*
X174688860Y-101166598D01*
X174675152Y-101139183D01*
X174666515Y-101109765D01*
X174655803Y-101100483D01*
X174606145Y-101001165D01*
X174600780Y-100976505D01*
X174571572Y-100947297D01*
X174543404Y-100917015D01*
X174540563Y-100916288D01*
X174511505Y-100887231D01*
X174498618Y-100865533D01*
X174461668Y-100847058D01*
X174425372Y-100827239D01*
X174422448Y-100827448D01*
X174323594Y-100778021D01*
X174293329Y-100758571D01*
X174262676Y-100758571D01*
X174232504Y-100753141D01*
X174219412Y-100758571D01*
X173971646Y-100758571D01*
X173970714Y-100758470D01*
X173970714Y-100387003D01*
X173952230Y-100324051D01*
X173885657Y-100266366D01*
X173798465Y-100253829D01*
X173718338Y-100290422D01*
X173670714Y-100364527D01*
X173670714Y-100961126D01*
X173664479Y-100985510D01*
X173276888Y-100985510D01*
X173257682Y-100947098D01*
X173257888Y-100941270D01*
X173238165Y-100908065D01*
X173230947Y-100893627D01*
X173227194Y-100889592D01*
X173212904Y-100865533D01*
X173197780Y-100857971D01*
X173186261Y-100845587D01*
X173159144Y-100838653D01*
X173037880Y-100778021D01*
X173007615Y-100758571D01*
X172976962Y-100758571D01*
X172946790Y-100753141D01*
X172933698Y-100758571D01*
X172685931Y-100758571D01*
X172650167Y-100754710D01*
X172622751Y-100768418D01*
X172593336Y-100777055D01*
X172584054Y-100787766D01*
X172502098Y-100828745D01*
X172496269Y-100828540D01*
X172463055Y-100848267D01*
X172448626Y-100855482D01*
X172444594Y-100859232D01*
X172420532Y-100873524D01*
X172412970Y-100888647D01*
X172400586Y-100900167D01*
X172393652Y-100927282D01*
X172333016Y-101048554D01*
X172313571Y-101078813D01*
X172313571Y-101109464D01*
X172308141Y-101139639D01*
X172313571Y-101152731D01*
X172313571Y-101239950D01*
X172307471Y-101257184D01*
X171970714Y-101257184D01*
X171970714Y-100387003D01*
X171952230Y-100324051D01*
X171885657Y-100266366D01*
X171798465Y-100253829D01*
X171718338Y-100290422D01*
X171670714Y-100364527D01*
X171670714Y-101658875D01*
X171637482Y-101725338D01*
X171520055Y-101784053D01*
X171472015Y-101828738D01*
X171450193Y-101914081D01*
X171185000Y-101914081D01*
X171185000Y-101058571D01*
X171270853Y-101058571D01*
X171333805Y-101040087D01*
X171391490Y-100973514D01*
X171404027Y-100886322D01*
X171367434Y-100806195D01*
X171293329Y-100758571D01*
X171185000Y-100758571D01*
X171185000Y-100630932D01*
X171188861Y-100595168D01*
X171175152Y-100567752D01*
X171166516Y-100538337D01*
X171155804Y-100529055D01*
X171114825Y-100447099D01*
X171115031Y-100441270D01*
X171095303Y-100408056D01*
X171088089Y-100393627D01*
X171084338Y-100389595D01*
X171070047Y-100365533D01*
X171054923Y-100357971D01*
X171043404Y-100345587D01*
X171016288Y-100338653D01*
X170895023Y-100278021D01*
X170864758Y-100258571D01*
X170834105Y-100258571D01*
X170803933Y-100253141D01*
X170790841Y-100258571D01*
X170656289Y-100258571D01*
X170593337Y-100277055D01*
X170535652Y-100343628D01*
X170523115Y-100430820D01*
X170559708Y-100510947D01*
X170633813Y-100558571D01*
X170785303Y-100558571D01*
X170851768Y-100591803D01*
X170885000Y-100658267D01*
X170885000Y-100758571D01*
X170656289Y-100758571D01*
X170593337Y-100777055D01*
X170535652Y-100843628D01*
X170533672Y-100857393D01*
X170510291Y-100806195D01*
X170436186Y-100758571D01*
X170327857Y-100758571D01*
X170327857Y-100387003D01*
X170309373Y-100324051D01*
X170242800Y-100266366D01*
X170155608Y-100253829D01*
X170075481Y-100290422D01*
X170027857Y-100364527D01*
X170027857Y-100758571D01*
X169799146Y-100758571D01*
X169736194Y-100777055D01*
X169678509Y-100843628D01*
X169665972Y-100930820D01*
X169702565Y-101010947D01*
X169776670Y-101058571D01*
X170027857Y-101058571D01*
X170027857Y-101658875D01*
X169994625Y-101725338D01*
X169928161Y-101758571D01*
X169799146Y-101758571D01*
X169736194Y-101777055D01*
X169678509Y-101843628D01*
X169665972Y-101930820D01*
X168563571Y-101930820D01*
X168563571Y-99320714D01*
X179099286Y-99320714D01*
X179099286Y-102899286D01*
G37*
G36*
X177292857Y-78184285D02*
G01*
X177099430Y-78184285D01*
X177069598Y-78178785D01*
X177056175Y-78184285D01*
X176906838Y-78184285D01*
X176817424Y-78139578D01*
X176780419Y-78102573D01*
X176735714Y-78013161D01*
X176735714Y-77869695D01*
X176780420Y-77780281D01*
X176817424Y-77743277D01*
X176906838Y-77698571D01*
X177292857Y-77698571D01*
X177292857Y-78184285D01*
G37*
G36*
X170925432Y-77743278D02*
G01*
X170962436Y-77780282D01*
X171015613Y-77886636D01*
X171078571Y-78138468D01*
X171078571Y-78458678D01*
X171015615Y-78710501D01*
X170962437Y-78816857D01*
X170925431Y-78853863D01*
X170836017Y-78898571D01*
X170763981Y-78898571D01*
X170674570Y-78853865D01*
X170637563Y-78816859D01*
X170584385Y-78710505D01*
X170521428Y-78458677D01*
X170521428Y-78138465D01*
X170584383Y-77886642D01*
X170637564Y-77780282D01*
X170674568Y-77743277D01*
X170763981Y-77698571D01*
X170836018Y-77698571D01*
X170925432Y-77743278D01*
G37*
G36*
X178464286Y-80039286D02*
G01*
X168971429Y-80039286D01*
X168971429Y-78470794D01*
X170215224Y-78470794D01*
X170221428Y-78495610D01*
X170221428Y-78498710D01*
X170226645Y-78516480D01*
X170290855Y-78773317D01*
X170288996Y-78790545D01*
X170301329Y-78815212D01*
X170302567Y-78820161D01*
X170310941Y-78834435D01*
X170371710Y-78955972D01*
X170377076Y-78980636D01*
X170406296Y-79009856D01*
X170434453Y-79040127D01*
X170437293Y-79040853D01*
X170466347Y-79069907D01*
X170479237Y-79091609D01*
X170516203Y-79110092D01*
X170552482Y-79129902D01*
X170555404Y-79129692D01*
X170654265Y-79179123D01*
X170684527Y-79198571D01*
X170715180Y-79198571D01*
X170745352Y-79204001D01*
X170758444Y-79198571D01*
X170863352Y-79198571D01*
X170899116Y-79202432D01*
X170926531Y-79188724D01*
X170955948Y-79180087D01*
X170965229Y-79169375D01*
X171064547Y-79119716D01*
X171089208Y-79114352D01*
X171118419Y-79085140D01*
X171148699Y-79056975D01*
X171149425Y-79054134D01*
X171178479Y-79025080D01*
X171200181Y-79012191D01*
X171218664Y-78975224D01*
X171223707Y-78965989D01*
X171644065Y-78965989D01*
X171651147Y-78998546D01*
X171653524Y-79031773D01*
X171660363Y-79040909D01*
X171662790Y-79052064D01*
X171686345Y-79075619D01*
X171706312Y-79102293D01*
X171717008Y-79106282D01*
X171738290Y-79127564D01*
X171739913Y-79133091D01*
X171761012Y-79151373D01*
X171777743Y-79173723D01*
X171793654Y-79179657D01*
X171806486Y-79190776D01*
X171823291Y-79193192D01*
X171838198Y-79201332D01*
X171849583Y-79200517D01*
X171860277Y-79204506D01*
X171876869Y-79200896D01*
X171893678Y-79203313D01*
X171909125Y-79196258D01*
X171926062Y-79195047D01*
X171935200Y-79188206D01*
X171946352Y-79185780D01*
X171958356Y-79173775D01*
X171973805Y-79166720D01*
X171982984Y-79152435D01*
X171996581Y-79142258D01*
X172000571Y-79131560D01*
X172041337Y-79090793D01*
X172068008Y-79070828D01*
X172068011Y-79070820D01*
X172359543Y-79070820D01*
X172396136Y-79150947D01*
X172470241Y-79198571D01*
X172932126Y-79198571D01*
X172965106Y-79203313D01*
X172975489Y-79198571D01*
X173392996Y-79198571D01*
X173455948Y-79180087D01*
X173513633Y-79113514D01*
X173526170Y-79026322D01*
X173489577Y-78946195D01*
X173415472Y-78898571D01*
X173092857Y-78898571D01*
X173092857Y-77982132D01*
X173109206Y-77998481D01*
X173122095Y-78020181D01*
X173159052Y-78038659D01*
X173195340Y-78058474D01*
X173198263Y-78058264D01*
X173323638Y-78120952D01*
X173388210Y-78132572D01*
X173469577Y-78098825D01*
X173519784Y-78026444D01*
X173522888Y-77938412D01*
X173477904Y-77862675D01*
X173317424Y-77782435D01*
X173202283Y-77667294D01*
X173126901Y-77554221D01*
X173643769Y-77554221D01*
X174149115Y-79070262D01*
X174148504Y-79087165D01*
X174162775Y-79111243D01*
X174164517Y-79116467D01*
X174173726Y-79129718D01*
X174193419Y-79162942D01*
X174198631Y-79165554D01*
X174201960Y-79170343D01*
X174237643Y-79185104D01*
X174272173Y-79202408D01*
X174277972Y-79201787D01*
X174283358Y-79204015D01*
X174321355Y-79197142D01*
X174359759Y-79193031D01*
X174364299Y-79189375D01*
X174370040Y-79188337D01*
X174398300Y-79162001D01*
X174428374Y-79137789D01*
X174430217Y-79132257D01*
X174434483Y-79128283D01*
X174444015Y-79090865D01*
X174450697Y-79070820D01*
X175073829Y-79070820D01*
X175110422Y-79150947D01*
X175184527Y-79198571D01*
X175932126Y-79198571D01*
X175965106Y-79203313D01*
X175995412Y-79189472D01*
X176027377Y-79180087D01*
X176034851Y-79171461D01*
X176045233Y-79166720D01*
X176063245Y-79138692D01*
X176085062Y-79113514D01*
X176086686Y-79102216D01*
X176092857Y-79092615D01*
X176092857Y-79059302D01*
X176095288Y-79042393D01*
X176429503Y-79042393D01*
X176450961Y-79127828D01*
X176515202Y-79188100D01*
X176601830Y-79204071D01*
X176683341Y-79170673D01*
X177163812Y-78484285D01*
X177292857Y-78484285D01*
X177292857Y-79070139D01*
X177311341Y-79133091D01*
X177377914Y-79190776D01*
X177465106Y-79203313D01*
X177545233Y-79166720D01*
X177592857Y-79092615D01*
X177592857Y-78345016D01*
X177597599Y-78312036D01*
X177592857Y-78301653D01*
X177592857Y-77559302D01*
X177597599Y-77526322D01*
X177583758Y-77496015D01*
X177574373Y-77464051D01*
X177565747Y-77456576D01*
X177561006Y-77446195D01*
X177532978Y-77428182D01*
X177507800Y-77406366D01*
X177496502Y-77404741D01*
X177486901Y-77398571D01*
X177453588Y-77398571D01*
X177420608Y-77393829D01*
X177410225Y-77398571D01*
X176879503Y-77398571D01*
X176843739Y-77394710D01*
X176816323Y-77408418D01*
X176786908Y-77417055D01*
X176777626Y-77427766D01*
X176678311Y-77477425D01*
X176653650Y-77482790D01*
X176624435Y-77512004D01*
X176594158Y-77540167D01*
X176593431Y-77543007D01*
X176564375Y-77572062D01*
X176542675Y-77584952D01*
X176524194Y-77621912D01*
X176504382Y-77658196D01*
X176504591Y-77661119D01*
X176455159Y-77759982D01*
X176435714Y-77790241D01*
X176435714Y-77820892D01*
X176430284Y-77851067D01*
X176435714Y-77864159D01*
X176435714Y-78040495D01*
X176431853Y-78076258D01*
X176445560Y-78103672D01*
X176454198Y-78133091D01*
X176464909Y-78142372D01*
X176514567Y-78241688D01*
X176519932Y-78266350D01*
X176549137Y-78295555D01*
X176577309Y-78325841D01*
X176580149Y-78326567D01*
X176609206Y-78355624D01*
X176622095Y-78377324D01*
X176659044Y-78395798D01*
X176695340Y-78415618D01*
X176698264Y-78415408D01*
X176797122Y-78464837D01*
X176806852Y-78471090D01*
X176450461Y-78980221D01*
X176429503Y-79042393D01*
X176095288Y-79042393D01*
X176097599Y-79026322D01*
X176092857Y-79015939D01*
X176092857Y-78273588D01*
X176097599Y-78240608D01*
X176092857Y-78230225D01*
X176092857Y-77559302D01*
X176097599Y-77526322D01*
X176083758Y-77496015D01*
X176074373Y-77464051D01*
X176065747Y-77456576D01*
X176061006Y-77446195D01*
X176032978Y-77428182D01*
X176007800Y-77406366D01*
X175996502Y-77404741D01*
X175986901Y-77398571D01*
X175953588Y-77398571D01*
X175920608Y-77393829D01*
X175910225Y-77398571D01*
X175207003Y-77398571D01*
X175144051Y-77417055D01*
X175086366Y-77483628D01*
X175073829Y-77570820D01*
X175110422Y-77650947D01*
X175184527Y-77698571D01*
X175792857Y-77698571D01*
X175792857Y-78112857D01*
X175421289Y-78112857D01*
X175358337Y-78131341D01*
X175300652Y-78197914D01*
X175288115Y-78285106D01*
X175324708Y-78365233D01*
X175398813Y-78412857D01*
X175792857Y-78412857D01*
X175792857Y-78898571D01*
X175207003Y-78898571D01*
X175144051Y-78917055D01*
X175086366Y-78983628D01*
X175073829Y-79070820D01*
X174450697Y-79070820D01*
X174949122Y-77575544D01*
X174951494Y-77509977D01*
X174906579Y-77434200D01*
X174827826Y-77394734D01*
X174740239Y-77404111D01*
X174671624Y-77459353D01*
X174299998Y-78574229D01*
X173935481Y-77480676D01*
X173898038Y-77426799D01*
X173816640Y-77393127D01*
X173729958Y-77408806D01*
X173665515Y-77468859D01*
X173643769Y-77554221D01*
X173126901Y-77554221D01*
X173080342Y-77484382D01*
X173074373Y-77464051D01*
X173056414Y-77448489D01*
X173055701Y-77447420D01*
X173040109Y-77434361D01*
X173007800Y-77406366D01*
X173006450Y-77406171D01*
X173005402Y-77405294D01*
X172962935Y-77399915D01*
X172920608Y-77393829D01*
X172919365Y-77394396D01*
X172918012Y-77394225D01*
X172879405Y-77412645D01*
X172840481Y-77430422D01*
X172839743Y-77431570D01*
X172838509Y-77432159D01*
X172815964Y-77468571D01*
X172792857Y-77504527D01*
X172792857Y-77505892D01*
X172792138Y-77507053D01*
X172792857Y-77549841D01*
X172792857Y-78898571D01*
X172492717Y-78898571D01*
X172429765Y-78917055D01*
X172372080Y-78983628D01*
X172359543Y-79070820D01*
X172068011Y-79070820D01*
X172079649Y-79039614D01*
X172095618Y-79010372D01*
X172094803Y-78998986D01*
X172098791Y-78988295D01*
X172091709Y-78955740D01*
X172089332Y-78922509D01*
X172082493Y-78913373D01*
X172080067Y-78902219D01*
X172056506Y-78878659D01*
X172036543Y-78851990D01*
X172025848Y-78848001D01*
X172004567Y-78826720D01*
X172002945Y-78821194D01*
X171981845Y-78802911D01*
X171965116Y-78780563D01*
X171949204Y-78774628D01*
X171936372Y-78763509D01*
X171919566Y-78761092D01*
X171904660Y-78752953D01*
X171893275Y-78753767D01*
X171882583Y-78749779D01*
X171865989Y-78753388D01*
X171849180Y-78750972D01*
X171833732Y-78758026D01*
X171816797Y-78759238D01*
X171807659Y-78766078D01*
X171796508Y-78768504D01*
X171784502Y-78780509D01*
X171769053Y-78787565D01*
X171759873Y-78801849D01*
X171746277Y-78812027D01*
X171742287Y-78822723D01*
X171701524Y-78863485D01*
X171674848Y-78883455D01*
X171663203Y-78914675D01*
X171647240Y-78943910D01*
X171648054Y-78955293D01*
X171644065Y-78965989D01*
X171223707Y-78965989D01*
X171238474Y-78938946D01*
X171238264Y-78936023D01*
X171279358Y-78853835D01*
X171291982Y-78841966D01*
X171298670Y-78815212D01*
X171300952Y-78810649D01*
X171303883Y-78794358D01*
X171368104Y-78537472D01*
X171378571Y-78521186D01*
X171378571Y-78495606D01*
X171379323Y-78492598D01*
X171378571Y-78474093D01*
X171378571Y-78144687D01*
X171384775Y-78126349D01*
X171378571Y-78101533D01*
X171378571Y-78098432D01*
X171373353Y-78080662D01*
X171309144Y-77823822D01*
X171311004Y-77806596D01*
X171298671Y-77781931D01*
X171297434Y-77776981D01*
X171289057Y-77762704D01*
X171228289Y-77641168D01*
X171222924Y-77616505D01*
X171193693Y-77587274D01*
X171165547Y-77557015D01*
X171162707Y-77556288D01*
X171133649Y-77527231D01*
X171120762Y-77505533D01*
X171083808Y-77487056D01*
X171047517Y-77467239D01*
X171044592Y-77467448D01*
X170945730Y-77418016D01*
X170915472Y-77398571D01*
X170884821Y-77398571D01*
X170854647Y-77393141D01*
X170841555Y-77398571D01*
X170736646Y-77398571D01*
X170700882Y-77394710D01*
X170673466Y-77408418D01*
X170644051Y-77417055D01*
X170634769Y-77427766D01*
X170535454Y-77477424D01*
X170510791Y-77482790D01*
X170481560Y-77512020D01*
X170451301Y-77540167D01*
X170450574Y-77543006D01*
X170421517Y-77572064D01*
X170399819Y-77584952D01*
X170381343Y-77621903D01*
X170361525Y-77658197D01*
X170361734Y-77661121D01*
X170320642Y-77743305D01*
X170308018Y-77755176D01*
X170301329Y-77781932D01*
X170299048Y-77786494D01*
X170296117Y-77802779D01*
X170231894Y-78059669D01*
X170221428Y-78075956D01*
X170221428Y-78101536D01*
X170220676Y-78104544D01*
X170221428Y-78123049D01*
X170221428Y-78452455D01*
X170215224Y-78470794D01*
X168971429Y-78470794D01*
X168971429Y-76460714D01*
X178464286Y-76460714D01*
X178464286Y-80039286D01*
G37*
%TO.C,G1*%
G36*
X171619334Y-91016667D02*
G01*
X171577000Y-91059000D01*
X171534667Y-91016667D01*
X171577000Y-90974334D01*
X171619334Y-91016667D01*
G37*
G36*
X177312238Y-90807460D02*
G01*
X177376667Y-90889667D01*
X177374207Y-90909904D01*
X177292000Y-90974334D01*
X177271763Y-90971873D01*
X177207334Y-90889667D01*
X177209794Y-90869429D01*
X177292000Y-90805000D01*
X177312238Y-90807460D01*
G37*
G36*
X173278918Y-90808896D02*
G01*
X173355000Y-90889667D01*
X173368230Y-90922464D01*
X173317664Y-90974334D01*
X173293088Y-90971080D01*
X173228000Y-90889667D01*
X173228971Y-90870506D01*
X173265337Y-90805000D01*
X173278918Y-90808896D01*
G37*
G36*
X171731098Y-89403326D02*
G01*
X171815696Y-89534196D01*
X171777047Y-89726046D01*
X171732078Y-89790629D01*
X171591138Y-89859479D01*
X171463357Y-89796834D01*
X171407667Y-89619667D01*
X171434248Y-89480111D01*
X171566855Y-89379662D01*
X171731098Y-89403326D01*
G37*
G36*
X176942454Y-89440916D02*
G01*
X177004552Y-89588690D01*
X176941414Y-89761029D01*
X176923620Y-89780960D01*
X176765699Y-89859916D01*
X176629985Y-89798575D01*
X176572334Y-89618507D01*
X176607659Y-89460230D01*
X176752058Y-89382357D01*
X176786100Y-89379664D01*
X176942454Y-89440916D01*
G37*
G36*
X176603787Y-90880250D02*
G01*
X176665885Y-91028023D01*
X176602747Y-91200363D01*
X176584954Y-91220294D01*
X176427032Y-91299249D01*
X176291318Y-91237909D01*
X176233667Y-91057841D01*
X176268992Y-90899564D01*
X176413391Y-90821690D01*
X176447433Y-90818997D01*
X176603787Y-90880250D01*
G37*
G36*
X172529669Y-90873098D02*
G01*
X172550667Y-91059000D01*
X172548018Y-91146589D01*
X172508138Y-91279470D01*
X172402500Y-91296882D01*
X172308978Y-91242243D01*
X172254334Y-91059000D01*
X172280257Y-90921868D01*
X172402500Y-90821118D01*
X172451497Y-90816445D01*
X172529669Y-90873098D01*
G37*
G36*
X170740829Y-89406679D02*
G01*
X170772667Y-89557334D01*
X170759697Y-89696855D01*
X170713296Y-89820149D01*
X170710143Y-89823236D01*
X170571706Y-89868733D01*
X170446300Y-89788423D01*
X170391667Y-89618507D01*
X170430785Y-89454570D01*
X170582167Y-89380945D01*
X170615659Y-89376969D01*
X170740829Y-89406679D01*
G37*
G36*
X179128967Y-83904667D02*
G01*
X179129600Y-83914985D01*
X179140077Y-84228676D01*
X179147133Y-84633900D01*
X179151443Y-85146217D01*
X179152019Y-85309489D01*
X179153685Y-85781187D01*
X179154534Y-86554370D01*
X179154667Y-87481326D01*
X179154075Y-88392580D01*
X179151903Y-89194325D01*
X179149469Y-89577334D01*
X179147699Y-89855734D01*
X179141015Y-90391632D01*
X179131400Y-90816841D01*
X179118404Y-91146187D01*
X179107646Y-91304954D01*
X179101579Y-91394491D01*
X179080474Y-91576579D01*
X179054639Y-91707273D01*
X179023626Y-91801397D01*
X178914896Y-92023406D01*
X178609080Y-92403336D01*
X178181000Y-92676977D01*
X178102885Y-92709406D01*
X178006977Y-92738243D01*
X177882774Y-92762265D01*
X177716170Y-92781916D01*
X177493063Y-92797641D01*
X177199348Y-92809884D01*
X176820923Y-92819091D01*
X176343682Y-92825706D01*
X175753523Y-92830174D01*
X175036343Y-92832939D01*
X174178036Y-92834447D01*
X173164500Y-92835141D01*
X168486667Y-92837000D01*
X168486934Y-91341916D01*
X169908824Y-91341916D01*
X169918304Y-91453243D01*
X169978844Y-91482334D01*
X170070436Y-91422841D01*
X170148349Y-91258250D01*
X170204590Y-91034167D01*
X170321999Y-91258250D01*
X170336740Y-91285827D01*
X170457094Y-91450311D01*
X170561813Y-91451687D01*
X170670389Y-91291834D01*
X170763321Y-91101334D01*
X170820202Y-91291834D01*
X170918686Y-91439538D01*
X171121209Y-91482334D01*
X171291994Y-91458022D01*
X171365334Y-91397667D01*
X171394826Y-91349419D01*
X171529670Y-91313000D01*
X171626914Y-91326541D01*
X171746334Y-91397667D01*
X171796898Y-91451235D01*
X171903776Y-91477912D01*
X171958000Y-91408430D01*
X171956263Y-91387967D01*
X171909335Y-91232032D01*
X171817995Y-91015853D01*
X171789226Y-90957446D01*
X171958000Y-90957446D01*
X171989166Y-91097598D01*
X172089801Y-91294161D01*
X172220534Y-91408430D01*
X172248794Y-91433131D01*
X172517559Y-91482334D01*
X172813516Y-91482334D01*
X172808929Y-91402664D01*
X172889334Y-91402664D01*
X172889898Y-91415932D01*
X172948674Y-91481507D01*
X173075395Y-91435687D01*
X173229103Y-91291834D01*
X173315277Y-91191011D01*
X173368141Y-91163687D01*
X173369674Y-91261554D01*
X173379067Y-91355536D01*
X173460834Y-91459110D01*
X173515657Y-91443865D01*
X173554717Y-91307825D01*
X173566667Y-91023722D01*
X173563289Y-90793860D01*
X173548015Y-90686113D01*
X173725222Y-90686113D01*
X173759904Y-90769313D01*
X173926500Y-90810367D01*
X174117000Y-90815734D01*
X173921061Y-90894317D01*
X173919546Y-90894928D01*
X173791149Y-90995752D01*
X173794840Y-91023722D01*
X173804556Y-91097347D01*
X173952664Y-91143667D01*
X174006453Y-91152394D01*
X174074667Y-91228334D01*
X174042914Y-91277544D01*
X173905334Y-91313000D01*
X173806913Y-91328877D01*
X173736000Y-91397667D01*
X173738560Y-91408778D01*
X173836466Y-91461068D01*
X174032334Y-91482334D01*
X174328667Y-91482334D01*
X174328667Y-90678000D01*
X174413334Y-90678000D01*
X174428085Y-90737227D01*
X174540334Y-90805000D01*
X174576845Y-90811147D01*
X174646363Y-90908182D01*
X174667334Y-91143667D01*
X174669493Y-91219582D01*
X174698982Y-91407221D01*
X174752000Y-91482334D01*
X174770979Y-91473698D01*
X174817889Y-91355741D01*
X174836667Y-91143667D01*
X174838972Y-91046303D01*
X174875360Y-90860923D01*
X174963667Y-90805000D01*
X175022894Y-90790249D01*
X175090667Y-90678000D01*
X175175334Y-90678000D01*
X175190085Y-90737227D01*
X175302334Y-90805000D01*
X175338845Y-90811147D01*
X175408363Y-90908182D01*
X175429334Y-91143667D01*
X175431639Y-91241031D01*
X175468027Y-91426410D01*
X175556334Y-91482334D01*
X175588261Y-91477778D01*
X175661185Y-91384785D01*
X175683334Y-91152725D01*
X175689634Y-91100437D01*
X175960410Y-91100437D01*
X176062014Y-91310436D01*
X176099734Y-91347042D01*
X176322103Y-91458584D01*
X176569803Y-91472332D01*
X176585018Y-91465267D01*
X176905386Y-91465267D01*
X176986065Y-91482334D01*
X177103131Y-91435058D01*
X177244866Y-91294161D01*
X177376667Y-91105989D01*
X177376667Y-91294161D01*
X177400496Y-91410347D01*
X177508092Y-91482334D01*
X177518077Y-91482049D01*
X177590307Y-91440953D01*
X177619382Y-91304954D01*
X177613925Y-91037834D01*
X177607419Y-90938520D01*
X177576852Y-90716856D01*
X177516813Y-90607659D01*
X177408387Y-90567661D01*
X177314201Y-90566694D01*
X177128035Y-90644139D01*
X177019715Y-90793590D01*
X177034142Y-90967123D01*
X177067579Y-91095313D01*
X177053464Y-91131082D01*
X176986840Y-91299910D01*
X176930365Y-91384371D01*
X176905386Y-91465267D01*
X176585018Y-91465267D01*
X176767067Y-91380734D01*
X176796431Y-91345819D01*
X176864391Y-91131082D01*
X176828652Y-90882447D01*
X176696770Y-90675680D01*
X176516183Y-90579432D01*
X176301912Y-90592834D01*
X176114860Y-90707135D01*
X176112709Y-90710236D01*
X175989526Y-90887836D01*
X175960410Y-91100437D01*
X175689634Y-91100437D01*
X175713812Y-90899758D01*
X175815700Y-90772323D01*
X175908407Y-90710236D01*
X175885935Y-90634530D01*
X175743961Y-90575072D01*
X175509004Y-90551000D01*
X175419603Y-90552997D01*
X175232105Y-90589088D01*
X175175334Y-90678000D01*
X175090667Y-90678000D01*
X175084521Y-90641489D01*
X174987486Y-90571971D01*
X174752000Y-90551000D01*
X174654636Y-90553305D01*
X174469257Y-90589693D01*
X174413334Y-90678000D01*
X174328667Y-90678000D01*
X174328667Y-90551000D01*
X174032334Y-90551000D01*
X173986595Y-90552594D01*
X173806203Y-90600597D01*
X173725222Y-90686113D01*
X173548015Y-90686113D01*
X173540289Y-90631608D01*
X173480135Y-90564320D01*
X173365367Y-90551000D01*
X173159541Y-90600666D01*
X173015956Y-90765630D01*
X173007190Y-91010379D01*
X173020492Y-91158363D01*
X172974311Y-91270475D01*
X172950894Y-91288043D01*
X172889334Y-91402664D01*
X172808929Y-91402664D01*
X172787925Y-91037834D01*
X172778815Y-90903922D01*
X172747157Y-90700540D01*
X172683460Y-90602582D01*
X172566939Y-90565637D01*
X172438334Y-90568519D01*
X172212601Y-90649592D01*
X172031930Y-90792463D01*
X171958000Y-90957446D01*
X171789226Y-90957446D01*
X171708692Y-90793944D01*
X171607875Y-90620822D01*
X171541993Y-90551000D01*
X171494301Y-90593319D01*
X171396014Y-90754737D01*
X171281232Y-90995500D01*
X171089887Y-91440000D01*
X170994777Y-91032746D01*
X170914427Y-90763104D01*
X170824910Y-90639947D01*
X170722793Y-90680069D01*
X170600054Y-90880372D01*
X170469775Y-91148526D01*
X170360053Y-90845097D01*
X170350990Y-90820582D01*
X170247378Y-90623401D01*
X170148855Y-90594554D01*
X170054775Y-90734364D01*
X169964493Y-91043155D01*
X169949225Y-91112264D01*
X169908824Y-91341916D01*
X168486934Y-91341916D01*
X168487181Y-89958334D01*
X169333334Y-89958334D01*
X169342775Y-89978037D01*
X169462722Y-90024449D01*
X169676425Y-90043000D01*
X170019516Y-90043000D01*
X169998588Y-89684935D01*
X170105247Y-89684935D01*
X170228381Y-89909953D01*
X170379201Y-89998405D01*
X170606403Y-90043000D01*
X170833573Y-89980540D01*
X170975842Y-89817518D01*
X171001117Y-89685427D01*
X171131221Y-89685427D01*
X171266167Y-89902878D01*
X171274527Y-89910240D01*
X171497000Y-90019938D01*
X171745403Y-90031822D01*
X171941067Y-89941400D01*
X171968194Y-89909312D01*
X172037389Y-89697403D01*
X172008513Y-89451159D01*
X171887834Y-89251789D01*
X171843324Y-89219617D01*
X172205650Y-89219617D01*
X172207401Y-89251344D01*
X172210694Y-89418541D01*
X172212000Y-89662000D01*
X172213208Y-89697403D01*
X172215885Y-89775862D01*
X172246174Y-89967326D01*
X172296667Y-90043000D01*
X172345878Y-90011247D01*
X172381334Y-89873667D01*
X172409163Y-89764202D01*
X172550667Y-89704334D01*
X172660132Y-89732163D01*
X172720000Y-89873667D01*
X172735877Y-89972088D01*
X172804667Y-90043000D01*
X172839511Y-90001490D01*
X172856549Y-89921227D01*
X173058667Y-89921227D01*
X173129761Y-90012602D01*
X173352022Y-90043000D01*
X173587253Y-89998915D01*
X173762065Y-89832099D01*
X173765407Y-89815584D01*
X173921322Y-89815584D01*
X173926433Y-89844150D01*
X174010649Y-89972695D01*
X174214888Y-90026605D01*
X174222355Y-90027296D01*
X174421713Y-90019833D01*
X174533769Y-89968956D01*
X174546317Y-89883520D01*
X174454976Y-89821772D01*
X174293974Y-89840117D01*
X174221723Y-89854003D01*
X174159334Y-89803764D01*
X174191727Y-89741864D01*
X174328667Y-89662000D01*
X174424608Y-89601599D01*
X174496329Y-89442317D01*
X174468908Y-89269713D01*
X174427166Y-89233302D01*
X174667334Y-89233302D01*
X174702633Y-89316171D01*
X174857834Y-89371034D01*
X175048334Y-89376400D01*
X174852394Y-89454984D01*
X174850880Y-89455595D01*
X174722482Y-89556419D01*
X174735889Y-89658014D01*
X174883997Y-89704334D01*
X174937786Y-89713061D01*
X175006000Y-89789000D01*
X174974248Y-89838211D01*
X174836667Y-89873667D01*
X174775585Y-89883520D01*
X174738246Y-89889543D01*
X174667334Y-89958334D01*
X174670379Y-89970356D01*
X174770474Y-90022026D01*
X174968092Y-90043000D01*
X175268850Y-90043000D01*
X175255445Y-89810167D01*
X175359945Y-89810167D01*
X175376567Y-89881076D01*
X175471023Y-89982835D01*
X175683697Y-90025704D01*
X175970256Y-90001705D01*
X176137573Y-89863964D01*
X176179636Y-89661103D01*
X176299077Y-89661103D01*
X176400680Y-89871103D01*
X176438400Y-89907709D01*
X176660770Y-90019250D01*
X176908470Y-90032999D01*
X177105734Y-89941400D01*
X177135098Y-89906485D01*
X177203058Y-89691749D01*
X177186612Y-89577334D01*
X177376667Y-89577334D01*
X177381173Y-89691749D01*
X177384214Y-89768976D01*
X177414967Y-89966448D01*
X177461334Y-90043000D01*
X177510544Y-90011247D01*
X177546000Y-89873667D01*
X177573830Y-89764202D01*
X177715334Y-89704334D01*
X177824799Y-89732163D01*
X177884667Y-89873667D01*
X177900544Y-89972088D01*
X177969334Y-90043000D01*
X178004178Y-90001490D01*
X178040082Y-89832348D01*
X178054000Y-89577334D01*
X178046453Y-89385691D01*
X178015700Y-89188219D01*
X177969334Y-89111667D01*
X177920123Y-89143420D01*
X177884667Y-89281000D01*
X177856838Y-89390465D01*
X177715334Y-89450334D01*
X177605869Y-89422504D01*
X177546000Y-89281000D01*
X177530124Y-89182579D01*
X177461334Y-89111667D01*
X177426490Y-89153177D01*
X177390586Y-89322319D01*
X177376667Y-89577334D01*
X177186612Y-89577334D01*
X177167319Y-89443114D01*
X177035437Y-89236347D01*
X176854849Y-89140099D01*
X176640579Y-89153500D01*
X176453526Y-89267802D01*
X176328192Y-89448503D01*
X176306803Y-89604685D01*
X176299077Y-89661103D01*
X176179636Y-89661103D01*
X176191334Y-89604685D01*
X176182903Y-89528381D01*
X176087652Y-89340166D01*
X175921992Y-89198355D01*
X175730715Y-89123798D01*
X175558608Y-89137341D01*
X175450461Y-89259834D01*
X175488791Y-89337581D01*
X175681902Y-89365667D01*
X175837333Y-89374692D01*
X175921596Y-89436696D01*
X175921791Y-89597776D01*
X175918587Y-89619485D01*
X175850586Y-89772731D01*
X175742615Y-89861397D01*
X175642650Y-89862454D01*
X175598667Y-89752875D01*
X175581617Y-89687797D01*
X175465779Y-89619667D01*
X175381769Y-89653182D01*
X175359945Y-89810167D01*
X175255445Y-89810167D01*
X175243258Y-89598500D01*
X175225964Y-89365553D01*
X175188001Y-89216519D01*
X175103137Y-89152230D01*
X174942500Y-89127469D01*
X174881224Y-89122774D01*
X174715212Y-89141988D01*
X174667334Y-89233302D01*
X174427166Y-89233302D01*
X174340595Y-89157786D01*
X174271782Y-89142425D01*
X174096916Y-89149089D01*
X173970610Y-89205089D01*
X173953150Y-89289872D01*
X174017228Y-89335449D01*
X174185497Y-89369057D01*
X174291534Y-89377325D01*
X174283280Y-89413582D01*
X174132988Y-89501474D01*
X174081462Y-89542518D01*
X173959985Y-89639283D01*
X173921322Y-89815584D01*
X173765407Y-89815584D01*
X173820667Y-89542518D01*
X173794667Y-89434536D01*
X173652685Y-89265914D01*
X173443246Y-89157881D01*
X173230917Y-89153075D01*
X173165379Y-89180075D01*
X173101787Y-89261657D01*
X173175354Y-89334283D01*
X173365621Y-89365667D01*
X173453854Y-89370317D01*
X173547633Y-89429428D01*
X173550687Y-89577334D01*
X173551124Y-89598500D01*
X173537698Y-89683358D01*
X173465651Y-89798985D01*
X173291500Y-89815394D01*
X173131729Y-89828613D01*
X173058667Y-89921227D01*
X172856549Y-89921227D01*
X172875415Y-89832348D01*
X172889334Y-89577334D01*
X172881787Y-89385691D01*
X172851034Y-89188219D01*
X172804667Y-89111667D01*
X172755457Y-89143420D01*
X172720000Y-89281000D01*
X172692171Y-89390465D01*
X172550667Y-89450334D01*
X172437624Y-89420152D01*
X172381334Y-89273945D01*
X172362315Y-89172691D01*
X172290317Y-89127895D01*
X172264238Y-89139318D01*
X172205650Y-89219617D01*
X171843324Y-89219617D01*
X171757761Y-89157771D01*
X171545625Y-89124819D01*
X171299506Y-89243468D01*
X171291998Y-89248836D01*
X171140801Y-89448234D01*
X171134598Y-89601826D01*
X171131221Y-89685427D01*
X171001117Y-89685427D01*
X171017113Y-89601826D01*
X170948535Y-89381405D01*
X170761257Y-89204199D01*
X170636892Y-89142492D01*
X170492562Y-89131264D01*
X170316757Y-89224489D01*
X170295841Y-89238876D01*
X170129998Y-89443684D01*
X170105247Y-89684935D01*
X169998588Y-89684935D01*
X169993925Y-89605155D01*
X169959118Y-89332338D01*
X169898574Y-89161036D01*
X169832194Y-89123204D01*
X169778663Y-89228258D01*
X169756667Y-89485611D01*
X169755684Y-89599936D01*
X169736779Y-89782017D01*
X169674736Y-89858257D01*
X169545000Y-89873667D01*
X169405790Y-89894688D01*
X169333334Y-89958334D01*
X168487181Y-89958334D01*
X168488027Y-85217000D01*
X170605510Y-85217000D01*
X170615631Y-85342341D01*
X170742116Y-85734368D01*
X170993006Y-86143753D01*
X171342668Y-86539799D01*
X171765465Y-86891810D01*
X172235761Y-87169089D01*
X172579044Y-87309159D01*
X173059913Y-87415943D01*
X173465762Y-87387546D01*
X173783716Y-87223513D01*
X173924306Y-87062635D01*
X173936480Y-87035303D01*
X174348078Y-87035303D01*
X174350773Y-87036953D01*
X174447632Y-87091522D01*
X174660083Y-87209720D01*
X174959434Y-87375617D01*
X175316993Y-87573281D01*
X175369226Y-87602098D01*
X175721179Y-87794832D01*
X176011972Y-87951651D01*
X176212668Y-88057085D01*
X176294326Y-88095667D01*
X176303737Y-88075504D01*
X176342371Y-87924636D01*
X176402272Y-87650373D01*
X176477285Y-87281507D01*
X176561254Y-86846834D01*
X176597526Y-86654675D01*
X176681224Y-86212110D01*
X176753958Y-85828669D01*
X176808936Y-85540113D01*
X176839369Y-85382204D01*
X176847703Y-85309489D01*
X176824886Y-85223330D01*
X176742722Y-85131601D01*
X176578502Y-85016140D01*
X176309517Y-84858784D01*
X175913056Y-84641371D01*
X175846201Y-84605195D01*
X175489300Y-84414032D01*
X175193406Y-84258739D01*
X174987697Y-84154459D01*
X174901351Y-84116334D01*
X174881433Y-84146918D01*
X174841398Y-84302293D01*
X174801619Y-84544991D01*
X174792258Y-84621367D01*
X174783797Y-84888066D01*
X174836925Y-85129276D01*
X174967306Y-85428524D01*
X175031390Y-85564377D01*
X175142897Y-85867011D01*
X175146698Y-86058994D01*
X175039282Y-86157926D01*
X174817138Y-86181405D01*
X174653529Y-86181924D01*
X174541298Y-86223037D01*
X174475498Y-86347229D01*
X174416041Y-86595927D01*
X174384063Y-86753766D01*
X174351181Y-86951480D01*
X174348078Y-87035303D01*
X173936480Y-87035303D01*
X174031011Y-86823070D01*
X174116467Y-86463248D01*
X174130983Y-86385279D01*
X174175496Y-86101225D01*
X174176434Y-85902936D01*
X174127325Y-85724679D01*
X174021696Y-85500719D01*
X173951592Y-85352655D01*
X173857529Y-85111906D01*
X173820667Y-84951630D01*
X173821029Y-84938686D01*
X173900270Y-84773322D01*
X174070228Y-84687244D01*
X174261709Y-84717227D01*
X174361740Y-84757558D01*
X174435473Y-84721748D01*
X174487638Y-84573896D01*
X174536259Y-84285667D01*
X174591007Y-83904667D01*
X173581303Y-83355803D01*
X173526712Y-83678926D01*
X173472120Y-84002050D01*
X172995386Y-83841105D01*
X172859126Y-83798763D01*
X172405718Y-83726705D01*
X172033307Y-83793566D01*
X171726709Y-84001261D01*
X171700536Y-84027917D01*
X171584250Y-84181645D01*
X171542032Y-84358013D01*
X171554207Y-84628569D01*
X171630251Y-84982115D01*
X171818372Y-85382437D01*
X171835643Y-85408643D01*
X171985837Y-85659616D01*
X172026243Y-85807098D01*
X171954312Y-85876696D01*
X171767500Y-85894017D01*
X171730992Y-85893070D01*
X171373711Y-85801694D01*
X171035020Y-85586005D01*
X170772210Y-85281274D01*
X170732636Y-85216681D01*
X170644509Y-85086661D01*
X170610433Y-85089967D01*
X170605510Y-85217000D01*
X168488027Y-85217000D01*
X168488321Y-83566000D01*
X168689362Y-83134243D01*
X168885276Y-82799798D01*
X169214878Y-82482805D01*
X169663468Y-82266617D01*
X169770969Y-82248503D01*
X170041803Y-82228186D01*
X170443710Y-82210704D01*
X170955368Y-82196087D01*
X171555454Y-82184363D01*
X172222648Y-82175565D01*
X172935626Y-82169720D01*
X173673067Y-82166860D01*
X174413649Y-82167015D01*
X175136051Y-82170214D01*
X175818949Y-82176487D01*
X176441022Y-82185865D01*
X176980948Y-82198378D01*
X177417406Y-82214056D01*
X177729073Y-82232928D01*
X177894627Y-82255024D01*
X178246944Y-82391110D01*
X178666278Y-82690723D01*
X178964167Y-83097790D01*
X179002229Y-83174912D01*
X179039956Y-83264342D01*
X179070880Y-83367505D01*
X179095678Y-83499959D01*
X179115026Y-83677266D01*
X179128967Y-83904667D01*
G37*
%TD*%
M02*
