%TF.GenerationSoftware,KiCad,Pcbnew,(7.0.0)*%
%TF.CreationDate,2023-06-14T15:09:39+02:00*%
%TF.ProjectId,PEE50_voltametrie,50454535-305f-4766-9f6c-74616d657472,rev?*%
%TF.SameCoordinates,Original*%
%TF.FileFunction,Soldermask,Top*%
%TF.FilePolarity,Negative*%
%FSLAX46Y46*%
G04 Gerber Fmt 4.6, Leading zero omitted, Abs format (unit mm)*
G04 Created by KiCad (PCBNEW (7.0.0)) date 2023-06-14 15:09:39*
%MOMM*%
%LPD*%
G01*
G04 APERTURE LIST*
G04 Aperture macros list*
%AMRoundRect*
0 Rectangle with rounded corners*
0 $1 Rounding radius*
0 $2 $3 $4 $5 $6 $7 $8 $9 X,Y pos of 4 corners*
0 Add a 4 corners polygon primitive as box body*
4,1,4,$2,$3,$4,$5,$6,$7,$8,$9,$2,$3,0*
0 Add four circle primitives for the rounded corners*
1,1,$1+$1,$2,$3*
1,1,$1+$1,$4,$5*
1,1,$1+$1,$6,$7*
1,1,$1+$1,$8,$9*
0 Add four rect primitives between the rounded corners*
20,1,$1+$1,$2,$3,$4,$5,0*
20,1,$1+$1,$4,$5,$6,$7,0*
20,1,$1+$1,$6,$7,$8,$9,0*
20,1,$1+$1,$8,$9,$2,$3,0*%
G04 Aperture macros list end*
%ADD10R,1.400000X0.300000*%
%ADD11RoundRect,0.250000X0.337500X0.475000X-0.337500X0.475000X-0.337500X-0.475000X0.337500X-0.475000X0*%
%ADD12C,1.000000*%
%ADD13C,5.600000*%
%ADD14RoundRect,0.250000X-0.450000X0.350000X-0.450000X-0.350000X0.450000X-0.350000X0.450000X0.350000X0*%
%ADD15RoundRect,0.250000X0.450000X-0.350000X0.450000X0.350000X-0.450000X0.350000X-0.450000X-0.350000X0*%
%ADD16R,1.528000X0.650000*%
%ADD17R,1.700000X1.700000*%
%ADD18O,1.700000X1.700000*%
%ADD19RoundRect,0.250000X-0.475000X0.337500X-0.475000X-0.337500X0.475000X-0.337500X0.475000X0.337500X0*%
%ADD20RoundRect,0.250000X-0.350000X-0.450000X0.350000X-0.450000X0.350000X0.450000X-0.350000X0.450000X0*%
%ADD21R,0.300000X1.400000*%
%ADD22RoundRect,0.250000X-0.337500X-0.475000X0.337500X-0.475000X0.337500X0.475000X-0.337500X0.475000X0*%
%ADD23R,1.400000X0.800000*%
%ADD24R,0.450000X1.150000*%
%ADD25R,1.800000X1.350000*%
%ADD26R,2.140000X0.650000*%
%ADD27R,1.600000X0.650000*%
%ADD28R,1.300000X0.650000*%
%ADD29R,1.150000X0.600000*%
%ADD30R,1.500000X1.160000*%
%ADD31R,1.560000X1.560000*%
%ADD32C,1.560000*%
%ADD33R,1.475000X0.450000*%
%ADD34RoundRect,0.250000X0.350000X0.450000X-0.350000X0.450000X-0.350000X-0.450000X0.350000X-0.450000X0*%
%ADD35R,1.200000X0.600000*%
%ADD36C,1.100000*%
%ADD37RoundRect,0.250000X0.475000X-0.337500X0.475000X0.337500X-0.475000X0.337500X-0.475000X-0.337500X0*%
%ADD38R,1.400000X0.400000*%
%ADD39R,1.900000X2.300000*%
%ADD40R,1.900000X1.800000*%
G04 APERTURE END LIST*
D10*
%TO.C,IC6*%
X196099999Y-99724999D03*
X196099999Y-99224999D03*
X196099999Y-98724999D03*
X196099999Y-98224999D03*
X196099999Y-97724999D03*
X191699999Y-97724999D03*
X191699999Y-98224999D03*
X191699999Y-98724999D03*
X191699999Y-99224999D03*
X191699999Y-99724999D03*
%TD*%
D11*
%TO.C,C7*%
X198600000Y-102975000D03*
X196525000Y-102975000D03*
%TD*%
D12*
%TO.C,TP5*%
X200000000Y-82800000D03*
%TD*%
D13*
%TO.C,H1*%
X140000000Y-72000000D03*
%TD*%
D14*
%TO.C,R10*%
X188750000Y-87500000D03*
X188750000Y-89500000D03*
%TD*%
D15*
%TO.C,R12*%
X155250000Y-107250000D03*
X155250000Y-105250000D03*
%TD*%
D16*
%TO.C,IC7*%
X200599999Y-99204999D03*
X200599999Y-100474999D03*
X200599999Y-101744999D03*
X200599999Y-103014999D03*
X206021999Y-103014999D03*
X206021999Y-101744999D03*
X206021999Y-100474999D03*
X206021999Y-99204999D03*
%TD*%
D17*
%TO.C,J4*%
X201929999Y-89661999D03*
D18*
X204469999Y-89661999D03*
X201929999Y-92201999D03*
X204469999Y-92201999D03*
X201929999Y-94741999D03*
X204469999Y-94741999D03*
%TD*%
D15*
%TO.C,R14*%
X157250000Y-105250000D03*
X157250000Y-103250000D03*
%TD*%
D19*
%TO.C,C8*%
X197632000Y-110746500D03*
X197632000Y-112821500D03*
%TD*%
D13*
%TO.C,H4*%
X205000000Y-127000000D03*
%TD*%
D14*
%TO.C,R16*%
X157250000Y-117000000D03*
X157250000Y-119000000D03*
%TD*%
D20*
%TO.C,R8*%
X155000000Y-92250000D03*
X157000000Y-92250000D03*
%TD*%
D19*
%TO.C,C13*%
X155250000Y-114750000D03*
X155250000Y-116825000D03*
%TD*%
D21*
%TO.C,IC5*%
X191099999Y-109124999D03*
X191599999Y-109124999D03*
X192099999Y-109124999D03*
X192599999Y-109124999D03*
X193099999Y-109124999D03*
X193099999Y-104724999D03*
X192599999Y-104724999D03*
X192099999Y-104724999D03*
X191599999Y-104724999D03*
X191099999Y-104724999D03*
%TD*%
D22*
%TO.C,C15*%
X191100000Y-102725000D03*
X193175000Y-102725000D03*
%TD*%
D12*
%TO.C,TP3*%
X189350000Y-100725000D03*
%TD*%
D20*
%TO.C,R4*%
X203800000Y-105025000D03*
X205800000Y-105025000D03*
%TD*%
D22*
%TO.C,C10*%
X203792500Y-110950000D03*
X205867500Y-110950000D03*
%TD*%
D20*
%TO.C,R3*%
X203800000Y-108975000D03*
X205800000Y-108975000D03*
%TD*%
D11*
%TO.C,C4*%
X197506000Y-82300000D03*
X195431000Y-82300000D03*
%TD*%
D17*
%TO.C,JP1*%
X155274999Y-100249999D03*
D18*
X152734999Y-100249999D03*
X150194999Y-100249999D03*
%TD*%
D14*
%TO.C,R5*%
X208170000Y-101350000D03*
X208170000Y-103350000D03*
%TD*%
D12*
%TO.C,TP2*%
X193200000Y-111200000D03*
%TD*%
D23*
%TO.C,J1*%
X140814999Y-114360499D03*
X140814999Y-113259499D03*
X140814999Y-112159499D03*
X140814999Y-111059499D03*
X140814999Y-109959499D03*
X140814999Y-108859499D03*
X140814999Y-107759499D03*
X140814999Y-106659499D03*
D24*
X152639999Y-105694499D03*
X151979999Y-105694499D03*
D25*
X138764999Y-105795499D03*
D26*
X145394999Y-105444499D03*
D27*
X150474999Y-105444499D03*
D28*
X152414999Y-119345499D03*
D29*
X146489999Y-119370499D03*
D30*
X138514999Y-119089499D03*
%TD*%
D31*
%TO.C,U1*%
X160019999Y-76834999D03*
D32*
X160020000Y-79375000D03*
X160020000Y-81915000D03*
X160020000Y-84455000D03*
X160020000Y-86995000D03*
X160020000Y-89535000D03*
X160020000Y-92075000D03*
X160020000Y-94615000D03*
X160020000Y-97155000D03*
X160020000Y-99695000D03*
X160020000Y-102235000D03*
X160020000Y-104775000D03*
X160020000Y-107315000D03*
X160020000Y-109855000D03*
X160020000Y-112395000D03*
X160020000Y-114935000D03*
X160020000Y-117475000D03*
X160020000Y-120015000D03*
X160020000Y-122555000D03*
X185420000Y-76835000D03*
X185420000Y-79375000D03*
X185420000Y-81915000D03*
X185420000Y-84455000D03*
X185420000Y-86995000D03*
X185420000Y-89535000D03*
X185420000Y-92075000D03*
X185420000Y-94615000D03*
X185420000Y-97155000D03*
X185420000Y-99695000D03*
X185420000Y-102235000D03*
X185420000Y-104775000D03*
X185420000Y-107315000D03*
X185420000Y-109855000D03*
X185420000Y-112395000D03*
X185420000Y-114935000D03*
X185420000Y-117475000D03*
X185420000Y-120015000D03*
X185420000Y-122555000D03*
%TD*%
D13*
%TO.C,H3*%
X140000000Y-127000000D03*
%TD*%
D12*
%TO.C,TP1*%
X191200000Y-111200000D03*
%TD*%
D14*
%TO.C,R6*%
X208170000Y-105160000D03*
X208170000Y-107160000D03*
%TD*%
D33*
%TO.C,IC3*%
X195721999Y-104618999D03*
X195721999Y-105268999D03*
X195721999Y-105918999D03*
X195721999Y-106568999D03*
X195721999Y-107218999D03*
X195721999Y-107868999D03*
X195721999Y-108518999D03*
X195721999Y-109168999D03*
X201597999Y-109168999D03*
X201597999Y-108518999D03*
X201597999Y-107868999D03*
X201597999Y-107218999D03*
X201597999Y-106568999D03*
X201597999Y-105918999D03*
X201597999Y-105268999D03*
X201597999Y-104618999D03*
%TD*%
D34*
%TO.C,R11*%
X193600000Y-95725000D03*
X191600000Y-95725000D03*
%TD*%
D14*
%TO.C,R1*%
X195600000Y-110754000D03*
X195600000Y-112754000D03*
%TD*%
D15*
%TO.C,R15*%
X157250000Y-114500000D03*
X157250000Y-112500000D03*
%TD*%
D35*
%TO.C,IC2*%
X195430999Y-84209999D03*
X195430999Y-85159999D03*
X195430999Y-86109999D03*
X197930999Y-86109999D03*
X197930999Y-84209999D03*
%TD*%
D13*
%TO.C,H2*%
X205000000Y-72000000D03*
%TD*%
D15*
%TO.C,R9*%
X188750000Y-84000000D03*
X188750000Y-82000000D03*
%TD*%
D20*
%TO.C,R7*%
X195600000Y-95725000D03*
X197600000Y-95725000D03*
%TD*%
D36*
%TO.C,IC8*%
X153670000Y-88900000D03*
X154940000Y-88900000D03*
X156210000Y-88900000D03*
%TD*%
D37*
%TO.C,C16*%
X208200000Y-99575000D03*
X208200000Y-97500000D03*
%TD*%
D19*
%TO.C,C5*%
X156845000Y-78570000D03*
X156845000Y-80645000D03*
%TD*%
D37*
%TO.C,C12*%
X198350000Y-99800000D03*
X198350000Y-97725000D03*
%TD*%
%TO.C,C1*%
X193526000Y-86110000D03*
X193526000Y-84035000D03*
%TD*%
D22*
%TO.C,C11*%
X203792500Y-107000000D03*
X205867500Y-107000000D03*
%TD*%
D38*
%TO.C,J2*%
X142549999Y-90199999D03*
X142549999Y-90849999D03*
X142549999Y-91499999D03*
X142549999Y-92149999D03*
X142549999Y-92799999D03*
D39*
X139699999Y-87749999D03*
D40*
X139699999Y-90349999D03*
X139699999Y-92649999D03*
D39*
X139699999Y-95249999D03*
%TD*%
D19*
%TO.C,C9*%
X201650000Y-110746500D03*
X201650000Y-112821500D03*
%TD*%
D14*
%TO.C,R2*%
X199650000Y-110754000D03*
X199650000Y-112754000D03*
%TD*%
D11*
%TO.C,C14*%
X157015000Y-83820000D03*
X154940000Y-83820000D03*
%TD*%
M02*
