M48
; DRILL file {KiCad (7.0.0)} date Wed Jun 14 15:09:21 2023
; FORMAT={-:-/ absolute / metric / decimal}
; #@! TF.CreationDate,2023-06-14T15:09:21+02:00
; #@! TF.GenerationSoftware,Kicad,Pcbnew,(7.0.0)
; #@! TF.FileFunction,Plated,1,2,PTH
FMAT,2
METRIC
; #@! TA.AperFunction,Plated,PTH,ViaDrill
T1C0.400
; #@! TA.AperFunction,Plated,PTH,ComponentDrill
T2C0.850
; #@! TA.AperFunction,Plated,PTH,ComponentDrill
T3C1.000
; #@! TA.AperFunction,Plated,PTH,ComponentDrill
T4C1.040
; #@! TA.AperFunction,Plated,PTH,ComponentDrill
T5C3.200
%
G90
G05
T1
X137.04Y-69.04
X137.04Y-76.66
X137.04Y-79.2
X137.04Y-81.74
X137.04Y-84.28
X137.04Y-86.82
X137.04Y-89.36
X137.04Y-91.9
X137.04Y-94.44
X137.04Y-96.98
X137.04Y-99.52
X137.04Y-102.06
X137.04Y-112.22
X137.04Y-114.76
X137.04Y-117.3
X137.04Y-122.38
X137.04Y-130.0
X139.25Y-108.75
X139.58Y-76.66
X139.58Y-79.2
X139.58Y-81.74
X139.58Y-84.28
X139.58Y-99.52
X139.58Y-117.3
X139.58Y-122.38
X142.12Y-76.66
X142.12Y-79.2
X142.12Y-81.74
X142.12Y-84.28
X142.12Y-86.82
X142.12Y-94.44
X142.12Y-96.98
X142.12Y-99.52
X142.12Y-104.6
X142.12Y-117.3
X142.12Y-119.84
X142.12Y-122.38
X142.5Y-108.75
X144.66Y-69.04
X144.66Y-71.58
X144.66Y-74.12
X144.66Y-76.66
X144.66Y-79.2
X144.66Y-81.74
X144.66Y-84.28
X144.66Y-94.44
X144.66Y-96.98
X144.66Y-99.52
X144.66Y-117.3
X144.66Y-119.84
X144.66Y-122.38
X144.66Y-124.92
X144.66Y-127.46
X144.66Y-130.0
X147.2Y-69.04
X147.2Y-71.58
X147.2Y-74.12
X147.2Y-76.66
X147.2Y-79.2
X147.2Y-81.74
X147.2Y-89.36
X147.2Y-96.98
X147.2Y-99.52
X147.2Y-117.3
X147.2Y-122.38
X147.2Y-124.92
X147.2Y-127.46
X147.2Y-130.0
X149.74Y-69.04
X149.74Y-71.58
X149.74Y-74.12
X149.74Y-76.66
X149.74Y-79.2
X149.74Y-86.82
X149.74Y-89.36
X149.74Y-91.9
X149.74Y-117.3
X149.74Y-119.84
X149.74Y-122.38
X149.74Y-124.92
X149.74Y-127.46
X149.74Y-130.0
X152.28Y-69.04
X152.28Y-71.58
X152.28Y-74.12
X152.28Y-76.66
X152.28Y-84.28
X152.28Y-86.82
X152.28Y-91.9
X152.28Y-94.44
X152.28Y-96.98
X152.28Y-117.3
X152.28Y-122.38
X152.28Y-124.92
X152.28Y-127.46
X152.28Y-130.0
X154.82Y-69.04
X154.82Y-71.58
X154.82Y-74.12
X154.82Y-81.74
X154.82Y-86.82
X154.82Y-94.44
X154.82Y-119.84
X154.82Y-122.38
X154.82Y-124.92
X154.82Y-127.46
X154.82Y-130.0
X157.36Y-69.04
X157.36Y-71.58
X157.36Y-74.12
X157.36Y-96.98
X157.36Y-99.52
X157.36Y-122.38
X157.36Y-124.92
X157.36Y-127.46
X157.36Y-130.0
X158.243Y-118.006
X159.9Y-69.04
X159.9Y-71.58
X159.9Y-74.12
X159.9Y-124.92
X159.9Y-127.46
X159.9Y-130.0
X162.44Y-69.04
X162.44Y-71.58
X162.44Y-74.12
X162.44Y-79.2
X162.44Y-81.74
X162.44Y-86.82
X162.44Y-89.36
X162.44Y-91.9
X162.44Y-94.44
X162.44Y-96.98
X162.44Y-99.52
X162.44Y-102.06
X162.44Y-104.6
X162.44Y-107.14
X162.44Y-109.68
X162.44Y-112.22
X162.44Y-114.76
X162.44Y-117.3
X162.44Y-119.84
X162.44Y-122.38
X162.44Y-124.92
X162.44Y-127.46
X162.44Y-130.0
X164.98Y-69.04
X164.98Y-71.58
X164.98Y-74.12
X164.98Y-79.2
X164.98Y-81.74
X164.98Y-86.82
X164.98Y-89.36
X164.98Y-91.9
X164.98Y-94.44
X164.98Y-96.98
X164.98Y-99.52
X164.98Y-102.06
X164.98Y-104.6
X164.98Y-107.14
X164.98Y-109.68
X164.98Y-112.22
X164.98Y-114.76
X164.98Y-117.3
X164.98Y-119.84
X164.98Y-122.38
X164.98Y-124.92
X164.98Y-127.46
X164.98Y-130.0
X167.52Y-69.04
X167.52Y-71.58
X167.52Y-74.12
X167.52Y-79.2
X167.52Y-81.74
X167.52Y-86.82
X167.52Y-89.36
X167.52Y-91.9
X167.52Y-94.44
X167.52Y-96.98
X167.52Y-99.52
X167.52Y-102.06
X167.52Y-104.6
X167.52Y-107.14
X167.52Y-109.68
X167.52Y-112.22
X167.52Y-114.76
X167.52Y-117.3
X167.52Y-119.84
X167.52Y-122.38
X167.52Y-124.92
X167.52Y-127.46
X167.52Y-130.0
X170.06Y-69.04
X170.06Y-71.58
X170.06Y-74.12
X170.06Y-79.2
X170.06Y-81.74
X170.06Y-86.82
X170.06Y-89.36
X170.06Y-91.9
X170.06Y-94.44
X170.06Y-96.98
X170.06Y-99.52
X170.06Y-102.06
X170.06Y-104.6
X170.06Y-107.14
X170.06Y-109.68
X170.06Y-112.22
X170.06Y-114.76
X170.06Y-117.3
X170.06Y-119.84
X170.06Y-122.38
X170.06Y-124.92
X170.06Y-127.46
X170.06Y-130.0
X172.6Y-69.04
X172.6Y-71.58
X172.6Y-74.12
X172.6Y-79.2
X172.6Y-81.74
X172.6Y-86.82
X172.6Y-89.36
X172.6Y-91.9
X172.6Y-94.44
X172.6Y-96.98
X172.6Y-99.52
X172.6Y-102.06
X172.6Y-104.6
X172.6Y-107.14
X172.6Y-109.68
X172.6Y-112.22
X172.6Y-114.76
X172.6Y-117.3
X172.6Y-119.84
X172.6Y-122.38
X172.6Y-124.92
X172.6Y-127.46
X172.6Y-130.0
X175.14Y-69.04
X175.14Y-71.58
X175.14Y-74.12
X175.14Y-79.2
X175.14Y-81.74
X175.14Y-86.82
X175.14Y-89.36
X175.14Y-91.9
X175.14Y-94.44
X175.14Y-96.98
X175.14Y-99.52
X175.14Y-102.06
X175.14Y-104.6
X175.14Y-107.14
X175.14Y-109.68
X175.14Y-112.22
X175.14Y-114.76
X175.14Y-117.3
X175.14Y-119.84
X175.14Y-122.38
X175.14Y-124.92
X175.14Y-127.46
X175.14Y-130.0
X177.68Y-69.04
X177.68Y-71.58
X177.68Y-74.12
X177.68Y-79.2
X177.68Y-81.74
X177.68Y-86.82
X177.68Y-89.36
X177.68Y-91.9
X177.68Y-94.44
X177.68Y-96.98
X177.68Y-99.52
X177.68Y-102.06
X177.68Y-104.6
X177.68Y-107.14
X177.68Y-109.68
X177.68Y-112.22
X177.68Y-114.76
X177.68Y-117.3
X177.68Y-119.84
X177.68Y-122.38
X177.68Y-124.92
X177.68Y-127.46
X177.68Y-130.0
X180.22Y-69.04
X180.22Y-71.58
X180.22Y-74.12
X180.22Y-79.2
X180.22Y-81.74
X180.22Y-89.36
X180.22Y-91.9
X180.22Y-94.44
X180.22Y-96.98
X180.22Y-99.52
X180.22Y-102.06
X180.22Y-104.6
X180.22Y-107.14
X180.22Y-109.68
X180.22Y-112.22
X180.22Y-114.76
X180.22Y-117.3
X180.22Y-119.84
X180.22Y-122.38
X180.22Y-124.92
X180.22Y-127.46
X180.22Y-130.0
X182.76Y-69.04
X182.76Y-71.58
X182.76Y-74.12
X182.76Y-79.2
X182.76Y-81.74
X182.76Y-84.28
X182.76Y-109.68
X182.76Y-112.22
X182.76Y-114.76
X182.76Y-117.3
X182.76Y-119.84
X182.76Y-122.38
X182.76Y-124.92
X182.76Y-127.46
X182.76Y-130.0
X185.3Y-69.04
X185.3Y-71.58
X185.3Y-74.12
X185.3Y-124.92
X185.3Y-127.46
X185.3Y-130.0
X187.84Y-69.04
X187.84Y-71.58
X187.84Y-74.12
X187.84Y-91.9
X187.84Y-94.44
X187.84Y-107.14
X187.84Y-114.76
X187.84Y-117.3
X187.84Y-119.84
X187.84Y-122.38
X187.84Y-124.92
X187.84Y-127.46
X187.84Y-130.0
X189.75Y-109.25
X190.0Y-88.8
X190.38Y-69.04
X190.38Y-71.58
X190.38Y-74.12
X190.38Y-76.66
X190.38Y-91.9
X190.38Y-117.3
X190.38Y-119.84
X190.38Y-122.38
X190.38Y-124.92
X190.38Y-127.46
X190.38Y-130.0
X192.075Y-88.002
X192.92Y-69.04
X192.92Y-71.58
X192.92Y-74.12
X192.92Y-76.66
X192.92Y-79.2
X192.92Y-117.3
X192.92Y-119.84
X192.92Y-122.38
X192.92Y-124.92
X192.92Y-127.46
X192.92Y-130.0
X193.5Y-82.25
X195.0Y-103.0
X195.46Y-69.04
X195.46Y-71.58
X195.46Y-74.12
X195.46Y-76.66
X195.46Y-79.2
X195.46Y-117.3
X195.46Y-119.84
X195.46Y-122.38
X195.46Y-124.92
X195.46Y-127.46
X195.46Y-130.0
X197.75Y-105.5
X198.0Y-69.04
X198.0Y-71.58
X198.0Y-74.12
X198.0Y-76.66
X198.0Y-79.2
X198.0Y-89.36
X198.0Y-91.9
X198.0Y-94.25
X198.0Y-117.3
X198.0Y-119.84
X198.0Y-122.38
X198.0Y-124.92
X198.0Y-127.46
X198.0Y-130.0
X199.983Y-109.194
X200.25Y-104.5
X200.54Y-69.04
X200.54Y-71.58
X200.54Y-74.12
X200.54Y-76.66
X200.54Y-79.2
X200.54Y-117.3
X200.54Y-119.84
X200.54Y-122.38
X200.54Y-124.92
X200.54Y-127.46
X200.54Y-130.0
X202.25Y-103.0
X203.08Y-76.66
X203.08Y-79.2
X203.08Y-81.74
X203.08Y-84.28
X203.08Y-86.82
X203.08Y-117.3
X203.08Y-119.84
X203.08Y-122.38
X204.6Y-100.6
X205.62Y-76.66
X205.62Y-79.2
X205.62Y-81.74
X205.62Y-84.28
X205.62Y-86.82
X205.62Y-96.98
X205.62Y-117.3
X205.62Y-119.84
X205.62Y-122.38
X208.16Y-69.04
X208.16Y-76.66
X208.16Y-79.2
X208.16Y-81.74
X208.16Y-84.28
X208.16Y-86.82
X208.16Y-114.76
X208.16Y-117.3
X208.16Y-119.84
X208.16Y-122.38
X208.16Y-130.0
X208.25Y-96.0
X208.25Y-108.75
T2
X153.67Y-88.9
X154.94Y-88.9
X156.21Y-88.9
T3
X150.195Y-100.25
X152.735Y-100.25
X155.275Y-100.25
X201.93Y-89.662
X201.93Y-92.202
X201.93Y-94.742
X204.47Y-89.662
X204.47Y-92.202
X204.47Y-94.742
T4
X160.02Y-76.835
X160.02Y-79.375
X160.02Y-81.915
X160.02Y-84.455
X160.02Y-86.995
X160.02Y-89.535
X160.02Y-92.075
X160.02Y-94.615
X160.02Y-97.155
X160.02Y-99.695
X160.02Y-102.235
X160.02Y-104.775
X160.02Y-107.315
X160.02Y-109.855
X160.02Y-112.395
X160.02Y-114.935
X160.02Y-117.475
X160.02Y-120.015
X160.02Y-122.555
X185.42Y-76.835
X185.42Y-79.375
X185.42Y-81.915
X185.42Y-84.455
X185.42Y-86.995
X185.42Y-89.535
X185.42Y-92.075
X185.42Y-94.615
X185.42Y-97.155
X185.42Y-99.695
X185.42Y-102.235
X185.42Y-104.775
X185.42Y-107.315
X185.42Y-109.855
X185.42Y-112.395
X185.42Y-114.935
X185.42Y-117.475
X185.42Y-120.015
X185.42Y-122.555
T5
X140.0Y-72.0
X140.0Y-127.0
X205.0Y-72.0
X205.0Y-127.0
T0
M30
